<?xml version="1.0" encoding="utf-8"?>
<!-- Generator: Adobe Illustrator 26.0.3, SVG Export Plug-In . SVG Version: 6.00 Build 0)  -->
<svg version="1.1" id="_x2018_лой_x5F_1" xmlns="http://www.w3.org/2000/svg" xmlns:xlink="http://www.w3.org/1999/xlink" viewBox="0 0 3200 2000" xml:space="preserve">
<style type="text/css">
	.st0{fill:#EBF3FA;}
	.st1{fill:#F2A16B;}
	.st2{fill:#FFB27D;}
	.st3{fill:#ED7D2B;}
	.st4{fill:#2358A5;}
	.st5{fill:#163560;}
	.st6{fill:#1C468A;}
	.st7{fill:#F99746;}
	.st8{fill:#FCA56B;}
	.st9{fill:#E8945B;}
	.st10{fill:#F2CCAA;}
	.st11{fill:#FFFFFF;}
	.st12{fill:#233862;}
	.st13{fill:#AFCDFB;}
	.st14{fill:#2B478B;}
	.st15{opacity:0.8;}
	.st16{fill:#EABE96;}
	.st17{fill:#F9DDBF;}
	.st18{fill:#EDCBAB;}
	.st19{fill:#202D4F;}
	.st20{fill:#ED985F;}
	.st21{fill:#FFF0E3;}
	.st22{fill:#2C3A64;}
	.st23{fill:#2E3552;}
</style>
<g>
	<path class="st0" d="M2963.6,1630.18c-53.65,0-163.6,3.8-164.77,5.54h-277.2l-81.13-0.17h-726.45l-212.16-0.18H942.61L709,1635.2
		H286.56c0,0-0.7-1.39-2.1-4.17l-0.23-0.35c0,0-0.23-0.35-0.23-0.52c-0.93-1.39-351.54-553.39,227.33-825.51
		c226.49-106.47,107.14-319.07,442.36-447.86c432.21-166.05,550.02,75.22,1061.1,16.89c443.88-50.66,646.13,110.69,614.98,350.65
		c-14.63,112.71,85.83,199.11,184.93,214.61c273.4,42.75,263.6,293.17,241.25,477.16C3042.17,1529.52,2965.5,1630.18,2963.6,1630.18
		z"/>
	<path class="st1" d="M1312.06,1196.23c0,0-3.51-4.27-8.77-5.59c-5.26-1.32-16.64-6.88-15.32-3.97c1.32,2.91,7.67,6.35,6.61,8.47
		c0,0-18.08-5.03-18.61-1.85c-0.53,3.17,6.37,15.3,14.11,17.91c2.56,0.86,20.37-2.56,20.37-2.56L1312.06,1196.23z"/>
	<path class="st2" d="M1893.65,1249.83c0,0-7.09-7.73-16.56-6.5c-4.84,0.63-11.83-6.98-11.48-2.04c0.35,4.94,7.36,16.37,9.74,18.33
		c4.68,3.85,14.96,2.58,14.96,2.58l12.61,7.77L1893.65,1249.83z"/>
	<g>
		<path class="st3" d="M387.75,1039.63c0,0-52.22,54.15-54.69,74.53c-2.47,20.38,25.02,52.2,25.02,52.2L387.75,1039.63z"/>
		<path class="st4" d="M411.34,1600.8c0,0,1.84,28.72,7.4,29.12c0.74,0.05,28.19-0.01,28.19-0.01l35.04-0.28
			c0,0-0.25-8.44-10.49-10.21c-10.25-1.76-27.4-8.92-33.64-22.45C431.28,1582.75,411.34,1600.8,411.34,1600.8z"/>
		<path class="st4" d="M333.3,1600.97c0,0,1.84,28.72,7.4,29.12c0.74,0.05,28.19-0.01,28.19-0.01l35.04-0.28
			c0,0-0.25-8.44-10.49-10.21c-10.25-1.76-27.4-8.92-33.64-22.45C353.24,1582.92,333.3,1600.97,333.3,1600.97z"/>
		<path class="st5" d="M449.48,1291.99c0,0-9.04,58.63-43,162.75c-33.96,104.12-38.52,149.18-38.52,149.18l-36.68-0.95
			c0,0-0.56-113.71,15.08-166.06c15.64-52.35,2.99-188.62,2.99-188.62L449.48,1291.99z"/>
		<path class="st6" d="M467.23,1251.24c0,0,1.49,88.32-13.56,196.79c-15.05,108.48-9.77,154.5-9.77,154.5l-36.6,1.3
			c0,0-22.11-108.44-15.96-162.73c6.15-54.29-30.36-186.19-30.36-186.19L467.23,1251.24z"/>
		<path class="st2" d="M395.93,1044.71l19.53,12.74l28.17-5.31c-0.4-2.27-2.28-11.7-3.99-20.24c-0.1-0.5-0.21-1.01-0.3-1.5
			c-1.47-7.26-2.73-13.5-2.73-13.5l-26.35-11.56l-9.82-4.31c0.03,0.15,0.78,8.06,0.88,9.22
			C403.21,1030.76,395.93,1044.71,395.93,1044.71z"/>
		<path class="st3" d="M436.38,1038.17c-0.55-0.23-33.96-10.01-37.58-8.8c-3.62,1.21-5.76,8.23-5.76,8.23l54.64,12.23
			C447.69,1049.83,443.37,1041.1,436.38,1038.17z"/>
		<path class="st7" d="M346.96,1262.41c5.72,25.81,99.92,28.67,124.15,5.18c2.76-2.68,2.86-15.11,1.79-31.86
			c-2.11-32.74-8.76-81.97-9.07-107.14c-0.15-12.15-1.85-24.58-4.1-35.86c-4.78-24.04-12.04-42.9-12.04-42.9
			s-46.04-14.77-54.64-12.23C351.6,1049.88,341.24,1236.6,346.96,1262.41z"/>
		<path class="st3" d="M472.89,1235.72c-2.11-32.74-8.76-81.97-9.07-107.14c-0.15-12.15-1.85-24.58-4.1-35.86l-27.69-4.82
			C432.04,1087.9,405.22,1198.49,472.89,1235.72z"/>
		<path class="st2" d="M457.81,1190.12c0,0-1.88,4.51,2.09,7.53c3.97,3.02,6.55,7.92,5.65,11.5c-0.9,3.59-9.58,9.45-12.59,8.52
			c-3.01-0.94-9.16-5.64-8.5-7.54c0.66-1.89-4.16-16.58,3.17-22.26C454.96,1182.2,457.81,1190.12,457.81,1190.12z"/>
		<path class="st7" d="M426.54,1043.25c0,0,27,4.99,48.58,36.64c21.58,31.65,35.78,55.18,31.84,66.61
			c-3.94,11.43-39.96,51.13-46.19,51.14s-16.28-4.49-16.87-14.68c0,0,23.79-39.6,18.77-45.3c-2.15-2.43-31.51-25.99-35.9-14.66
			C419.52,1141.75,426.54,1043.25,426.54,1043.25z"/>
		<path class="st8" d="M403.3,1010.61c5.8,9.78,27.36,18.2,36.35,21.29c-0.1-0.5-0.21-1.01-0.3-1.5c-1.47-7.26-2.73-13.5-2.73-13.5
			l-26.35-11.56C404.44,1005.28,400.9,1006.59,403.3,1010.61z"/>
		<path class="st2" d="M446.53,1015.28c0,0-42.37,13.32-50.26-13.2c-7.89-26.51-18.67-42.65,8.05-52.28
			c26.72-9.62,35.01-1.08,39.79,7.13C448.9,965.15,457.34,1011.13,446.53,1015.28z"/>
		<path class="st5" d="M442.44,954.39c0,0-2.64,30.88-9.02,29.55c-6.39-1.33-12.18-2.31-11.23,7c0.96,9.3,9.83,20.03-9.84,21.72
			c-19.67,1.69-48.07-49-42.69-58.62C385.2,926.29,464.91,920.52,442.44,954.39z"/>
	</g>
	<g>
		<path class="st2" d="M2657.83,1148.06c0,0-3.61-5.96-5.82-9.26c-2.21-3.3-6.61-7.41-7.74-6.35c-1.13,1.06,3.38,5.42,3.18,6.88
			c-0.2,1.46-7.76-3.44-8.57-4.54c-1.64-2.21-5.96-4.59-6.49-1.81c-0.53,2.78,2.68,11.51,4.14,14.02c1.46,2.51,7.55,6.48,10.92,7.67
			c3.37,1.19,9.14,3.97,9.14,3.97L2657.83,1148.06z"/>
		<path class="st5" d="M2811.06,952.15c-12.89-6.69-23.22-2.48-23.22-2.48c-39.44-4.63-50.95,41.37-50.42,57.2
			c0.53,15.83,2.34,32.83-15.28,53.39c-50.88,59.4,55.68,62.02,55.68,62.02c0.9-47.46,57.79-30.14,55.3-25.33
			C2906.05,1114.44,2840.38,967.36,2811.06,952.15z"/>
		<path class="st7" d="M2759.22,1153.41c0,0-3.77,7.47-10.61,16.04c-8.24,10.32-20.95,22.25-36.91,24.61
			c-7.62,1.12-15.08-0.52-21.93-3.56c-0.02-0.01-0.02-0.01-0.02-0.01c-19.38-8.6-33.95-28.39-33.95-28.39
			c-3.42-9.32,2.17-15.63,2.17-15.63s39.13,8.8,42.86,6.94c3.73-1.86,25.47-64.5,30.64-72.37c5.18-7.87,22.82-11.96,22.82-11.96
			L2759.22,1153.41z"/>
		<path class="st3" d="M2748.61,1169.45c-8.24,10.32-20.95,22.25-36.91,24.61c-7.62,1.12-15.08-0.52-21.93-3.56
			c0.76,0.1,20.11,2.49,27.83-11.31c7.87-14.08,16.38-36.45,28.07-28.99C2750.72,1153.41,2750.49,1161.41,2748.61,1169.45z"/>
		<path class="st4" d="M2905.22,1575.84c0,0,11.94,10.9,9.61,18.64c-2.33,7.74-13.11,12.91-14.56,22.37
			c-1.46,9.46-7.28,14.63-12.52,14.63s-24.99,0-24.99,0s-3.86-6.66,5.46-8.67c9.32-2.01,12.83-13.13,12.25-23.45
			c-0.58-10.32,0.87-24.09,0.87-24.09l19.8-4.59L2905.22,1575.84z"/>
		<path class="st4" d="M2804.15,1580.47c0,0,4.3,46.17-0.95,48.75l-67.09-0.14c0,0,0-7.74,10.78-9.46s29.71-8.03,32.91-22.08
			S2804.15,1580.47,2804.15,1580.47z"/>
		<path class="st2" d="M2851.96,1249.26c-13.81-30.96-22.25-39.85-20.64-49.46c1.2-7.15-3.66-133.36-3.66-133.36
			c-1.64-0.51-4.92-0.96-6.72-1.36c-5.66-1.26-10.35-5.24-12.3-10.7c-2.35-6.58-4.22-16.3-4.17-28.48l-1.77,0.35l-29.74,5.89
			c0,0,0.68,9.36,0.7,18.17c0,0.07,0,0.15,0,0.22c0.04,7.66-4.99,14.42-12.34,16.54c-3.76,1.08-7.02,2.01-7.02,2.01
			s-10.92,31.17-13.01,63.2c-2.08,32.03,19.86,45.94-0.17,109.94C2720.69,1307.59,2859.59,1266.37,2851.96,1249.26z"/>
		<path class="st9" d="M2772.97,1032.14c0,0,0.68,9.36,0.7,18.17c16.64-0.47,25.44-15.65,29.04-24.06L2772.97,1032.14z"/>
		<path class="st2" d="M2767.41,1040.49c0,0,39.37,0.65,39.4-23.88c0.03-24.52,5.13-40.96-20.01-42.41
			c-25.14-1.45-30.03,7.9-32.03,16.08S2757.17,1039.69,2767.41,1040.49z"/>
		<path class="st5" d="M2768.87,973.61c0,0,10.78,28.77,27.32,33.03c16.54,4.25,23.72-0.18,23.72-0.18s-12.69-10.08-15.32-27.68
			C2804.59,978.78,2777,959.91,2768.87,973.61z"/>
		<path class="st5" d="M2771.54,975.94c0,0-7.99,2.99-11.28,8.82c-3.22,5.7-5.96,13.25-5.32,22.52c0,0-8.12-19.56,1-30.62
			C2765.62,964.92,2771.54,975.94,2771.54,975.94z"/>
		<path class="st0" d="M2775.98,1025.28c0,0-2.72,3.57-8.15,3.32c-4.38-0.21-6.07-4.01-6.07-4.01S2769.8,1022.65,2775.98,1025.28z"
			/>
		<path class="st7" d="M2855.76,1122.27c0,0,1,14.1,0,31.01c-0.67,11.21-12.01,26.23-13.62,29.95c-4.04,9.32-8.59,10.83-8.59,10.83
			l-35.23,8.63l-12.39,3.03l-39.06-11.67c0,0-17.79-49.66-10.65-77.61c7.14-27.95,18.06-47.36,18.06-47.36s31.87,31.21,73.37-2.65
			L2855.76,1122.27z"/>
		<path class="st10" d="M2845.45,1157.86c-0.67,11.21-1.7,21.65-3.3,25.37c-4.04,9.32-8.59,10.83-8.59,10.83l-35.23,8.63l-15.3-4.5
			c0,0,51.07-7.74,45.41-51.68L2845.45,1157.86z"/>
		<path class="st5" d="M2749.37,1201.6c0,0-19.34,60.21-20.59,80.71s36.98,291.2,38.51,300.65c1.45,8.9,12.5,14.58,12.5,14.58
			s5.08,3,12.34,0.95c10.07-2.84,13.25-6.25,13.25-6.25s15.06-193.06,5.74-262.03c-9.32-68.97-9.43-128.61-9.43-128.61H2749.37z"/>
		<path class="st6" d="M2831.32,1199.8c0,0,29.51,39.59,32.26,66.35c2.75,26.76,4.32,120.77,10.18,146.86
			c5.86,26.09,27.39,76.3,27.39,157.67c0,0-2.24,4.66-9.15,7.15c-2.21,0.79-5.17,1.57-8.04,2.22c-5.7,1.31-11.55-1.48-14.15-6.71
			c-14.56-29.31-60.93-123.84-63.3-143.46c-1.68-13.89-16.32-105.79-48.26-159.72c-7.67-12.95,4.71-64.43,4.71-64.43L2831.32,1199.8
			z"/>
		<path class="st11" d="M2775.1,1025.93c0,0-0.68,2.89-7.87,2.44c0,0-6.04-0.37-5.85-3.55
			C2761.38,1024.83,2767.23,1022.57,2775.1,1025.93z"/>
		<path class="st12" d="M2746.28,1192.3c0,0,7.77,6.14,23.19,6.45c18.43,0.37,64.08-4.7,64.08-4.7s2.03,5.67,1.95,11.65
			c0,0-55.76,14.07-88.07,2.05C2747.43,1207.76,2743.26,1199.92,2746.28,1192.3z"/>
		<g>
			<path class="st11" d="M2765.05,1214.63c-4.64,0-8.41-4.27-8.41-9.52c0-5.25,3.77-9.52,8.41-9.52c4.64,0,8.41,4.27,8.41,9.52
				C2773.46,1210.36,2769.69,1214.63,2765.05,1214.63z M2765.05,1198.39c-3.1,0-5.62,3.02-5.62,6.73c0,3.71,2.52,6.73,5.62,6.73
				s5.62-3.02,5.62-6.73C2770.67,1201.41,2768.15,1198.39,2765.05,1198.39z"/>
		</g>
		
			<rect x="2793.09" y="1137.12" transform="matrix(0.7542 -0.6567 0.6567 0.7542 -84.8167 2151.3655)" class="st13" width="75.75" height="103.7"/>
		<path class="st2" d="M2820.67,1203.37c0,0-22.21,3.41-22.15,8.38c0.07,4.97,4.59,13.96,9.08,14.67
			c5.7,0.9,17.04-13.81,17.04-13.81L2820.67,1203.37z"/>
		<path class="st2" d="M2820.2,1204.55c0,0-7.44-2.72-12.9-1.6c-5.46,1.12-10.51,0.3-9.26,2.28c1.24,1.99,8.63,1.25,9.8,2.03
			c1.17,0.78,1.19,0.29,1.19,0.29L2820.2,1204.55z"/>
		<path class="st7" d="M2827.67,1066.44c0,0,27.95,1.96,38.66,28c10.71,26.04,31.04,69.77,31.04,77.12
			c0,7.36-11.35,30.03-72.33,43.07c0,0-6.31-6.63-5.92-11.88c0,0,38.06-32.7,37.96-36.52c-0.19-7.23-6.24-16.77-39.66-50.2
			C2808.33,1106.95,2827.67,1066.44,2827.67,1066.44z"/>
	</g>
	<g>
		<path class="st14" d="M1045.96,1630.98c-14.7,0-29.38-1.29-43.82-3.88c-13.21-2.37-26.12-5.81-38.6-10.25
			c-19.48,1.84-39.1,1.88-58.56,0.06c-59.97-5.59-115.09-23.56-160.81-51.55c-10.87,2.36-22.08,3.24-33.61,2.64
			c-28.03-1.45-54.56-12-78.86-31.34c-23.1-18.39-43.05-43.77-59.3-75.44c-28.49-55.52-42.58-125.29-39.69-196.46
			c3.2-78.83,26.8-154.62,68.26-219.16c32.64-50.81,68.69-90.26,107.16-117.26c33.32-23.38,69.41-38.08,107.27-43.69
			c10.58-1.57,21.03-2.41,31.35-2.64c32.99-19.72,70.95-34.4,110.83-42.56c46.67-9.55,117.63-11.75,190.68,31.94
			c75.95,45.42,136.71,129.96,180.6,251.26c2.51,6.94,4.84,13.85,6.98,20.76c10.07,5.21,20.94,11.06,33.08,17.6l0.79,0.43
			c37.94,20.44,97.12,36.8,158.32,43.75c51.03,5.8,126.81,7.82,198.09-15.47c66.61-21.77,113.67-60.67,139.88-115.64l5.73,2.73
			c-26.99,56.6-75.32,96.61-143.64,118.94c-72.37,23.65-149.13,21.61-200.78,15.74c-61.96-7.04-122-23.67-160.62-44.47l-0.79-0.43
			c-9.99-5.38-19.08-10.28-27.52-14.71c17.64,60.89,21.06,120.39,10.13,177.26c-11.05,57.48-36.65,109.72-74.03,151.09
			c-10.87,12.03-22.55,22.9-34.83,32.47c-0.85,1.88-1.73,3.74-2.61,5.57c4.36,8.31,6.97,16.33,6.51,23.26
			c-0.75,11.38-13.67,21.38-38.4,29.73c-2.04,0.69-4.14,1.36-6.32,2.02c-20.16,20.4-44.52,35.36-73.02,44.79
			C1099.93,1626.66,1072.9,1630.98,1045.96,1630.98z M978.62,1615.06c8.07,2.36,16.29,4.29,24.64,5.79
			c39.87,7.16,81.56,4.12,120.56-8.79c23.54-7.79,44.28-19.57,62.01-35.19c-33.4,8.35-78.42,13.81-126.93,15.67
			c-1.9,0.82-3.81,1.61-5.73,2.39C1029.21,1604.67,1004.11,1611.42,978.62,1615.06z M752.83,1563.15
			c43.82,25.66,96.06,42.16,152.74,47.44c14.69,1.37,29.5,1.66,44.25,0.9c-16.15-6.9-31.44-15.53-45.52-25.74
			c-22.85-3.16-43.88-7.26-62.38-12.2c-24.23-6.47-44.11-14.31-59.47-23.42C772.92,1555.8,763.03,1560.15,752.83,1563.15z
			 M918.12,1587.51c14.4,9.29,29.92,16.96,46.22,22.88c25.87-2.56,51.46-8.37,75.98-17.3c-23.68,0.46-47.93,0.06-71.85-1.27
			C951.05,1590.85,934.2,1589.41,918.12,1587.51z M906.81,1579.71c19.27,2.61,40,4.55,62.02,5.77c29.62,1.64,59.74,1.85,88.61,0.78
			c17.68-7.67,34.34-16.88,49.75-27.46c-8.49-0.56-16.81-1.85-24.88-3.87c-19.05-4.78-34.66-16.14-47.44-34.83
			c-19.84,0.57-40.15-0.56-60.76-3.44c-49.29-6.89-89.65-21.85-120.67-44.66c-5.13,9.01-10.25,17.01-15.24,24.09
			c13.87,29.66,33.65,55.2,58.96,76.09C900.3,1574.78,903.52,1577.29,906.81,1579.71z M1117.73,1559.12
			c-13.54,9.89-28.13,18.73-43.55,26.37c47.7-2.63,90.91-8.81,121.31-17.82c5.98-6.15,11.56-12.79,16.74-19.93
			c6.01-8.28,11.51-17.28,16.49-26.96c-15.13,10.55-31.01,19.14-47.27,25.52C1159.97,1554.72,1138.42,1559.02,1117.73,1559.12z
			 M788.57,1546.26c24.67,13.82,60.71,24.61,105.47,31.59c-0.32-0.26-0.63-0.51-0.94-0.77c-25.14-20.75-44.98-45.95-59.16-75.13
			c-6.74,9.02-13.18,16.38-19.04,22.33C806.48,1532.86,797.69,1540.19,788.57,1546.26z M1233.46,1525.36
			c-7.46,14.18-16.05,26.94-25.75,38.27c18.56-6.88,28.98-14.8,29.49-22.51C1237.49,1536.78,1236.21,1531.48,1233.46,1525.36z
			 M836,888.72c-6.94,0.51-13.45,1.29-19.69,2.21c-36.88,5.46-72.05,19.8-104.55,42.61c-37.79,26.52-73.28,65.38-105.46,115.49
			c-40.85,63.59-64.1,138.27-67.26,215.98c-2.85,70.09,11,138.74,39,193.31c15.83,30.86,35.22,55.55,57.61,73.37
			c23.25,18.5,48.56,28.58,75.23,29.97c8.65,0.45,17.12,0.01,25.39-1.29c-28.76-18.8-53.49-41.7-72.97-68.08
			c-9.86-13.35-18.27-27.4-25.23-42.06c-21.55-11.6-39.26-28.41-52.9-50.26c-18.88-30.25-28.83-68.89-28.78-111.73
			c0.02-18.02,1.91-36.33,5.44-54.03c-1.96-51.61,19.3-111.35,60.07-168.61c39.09-54.9,90.15-98.94,140.06-120.83
			c5.58-2.45,11.08-4.59,16.51-6.43c7.12-8.17,14.85-15.98,23.17-23.4C812.19,905.53,823.7,896.76,836,888.72z M647.44,1454.84
			c6.02,11.66,13.01,22.9,20.97,33.67c20.27,27.44,46.37,51.05,76.86,70.07c10.73-2.58,21.11-6.68,31.1-12.29
			c-7.28-4.88-13.35-10.1-18.19-15.64c-17.2-19.71-32.37-40.36-44.94-61.1c-10.45-0.56-20.91-1.83-31.35-3.89
			C669.58,1463.21,658.09,1459.6,647.44,1454.84z M1042.47,1519.8c11.43,15.41,25.08,24.88,41.38,28.98
			c10.23,2.57,20.88,3.9,31.79,3.99c18.31-13.58,34.65-29.15,48.53-46.37c7.34-9.1,13.9-18.54,19.68-28.28
			C1141.91,1503.02,1093.84,1517.17,1042.47,1519.8z M1193.69,1473.71c-6.93,12.71-15.13,24.97-24.57,36.68
			c-12.41,15.39-26.73,29.5-42.64,42.08c17.2-1.09,34.93-5.14,52.65-12.08c16.58-6.5,32.77-15.38,48.14-26.35
			c-6.01-9.51-14.64-20.34-25.67-32.13C1199.05,1479.2,1196.42,1476.46,1193.69,1473.71z M720.83,1469.83
			c11.78,18.96,25.9,38.04,42.14,56.64c5,5.73,11.55,11.13,19.51,16.17c9.68-6.14,18.99-13.75,27.9-22.81
			c6.27-6.38,13.23-14.41,20.51-24.43c-1.92-4.29-3.73-8.66-5.42-13.11c-1.76-4.63-3.37-9.33-4.84-14.09
			c-2.29-0.49-4.55-1.05-6.79-1.68c-5.67-1.58-11.17-3.61-16.5-6.07C772.59,1466.75,746.82,1470.41,720.83,1469.83z M861.87,1470.19
			c29.54,20.32,67.36,33.78,113.12,40.17c18.93,2.65,37.6,3.79,55.87,3.47c-8.17-13.59-15.09-30.52-20.95-51.01
			c-0.74-2.6-1.47-5.24-2.17-7.92c-8.44-1.16-16.87-2.63-25.29-4.41c-10.92-2.3-21.31-5.18-31.13-8.62
			c-19.62,9.54-39.65,17.62-59.44,22.79C881.4,1467.41,871.42,1469.25,861.87,1470.19z M1014.55,1455.78
			c0.48,1.79,0.97,3.55,1.47,5.3c6.17,21.57,13.49,38.98,22.2,52.54c54.88-2.16,106-17.67,149.82-45.52
			c-8.61-8.38-18.02-16.91-28.06-25.44c-9.22,2.8-18.48,5.22-27.77,7.27C1093.36,1458.5,1053.91,1460.46,1014.55,1455.78z
			 M1198.08,1469.12c2.82,2.84,5.53,5.66,8.15,8.45c9.01,9.63,18.84,21.21,26.15,32.72c0.72-0.54,1.43-1.08,2.14-1.63
			c8.6-19.32,15.35-41.05,20.15-65c1.96-9.79,3.61-19.97,4.95-30.56c-9.64,11.74-20.26,22.78-31.78,32.97
			C1218.37,1454.44,1208.44,1462.12,1198.08,1469.12z M1267.11,1403.58c-1.52,14.47-3.59,28.26-6.21,41.33
			c-4.02,20.02-9.34,38.46-15.96,55.28c8.65-7.41,16.95-15.5,24.82-24.21c36.03-39.88,60.89-90.1,71.99-145.4
			c-10.25,10.62-30.71,30.29-59.59,50.97C1277.49,1389.11,1272.47,1396.46,1267.11,1403.58z M827.7,1469.5
			c1.15,3.55,2.39,7.06,3.71,10.54c1.19,3.14,2.44,6.24,3.75,9.3c3.81-5.57,7.68-11.69,11.57-18.4
			C840.19,1470.92,833.86,1470.44,827.7,1469.5z M825.6,1462.72c5.9,1.05,12.01,1.65,18.32,1.8c-5.17-4.35-10.04-8.95-14.61-13.79
			c-2.11,0.74-4.23,1.47-6.36,2.18C823.77,1456.21,824.65,1459.48,825.6,1462.72z M872.73,1432.74
			c-4.9,11.54-9.92,21.98-14.97,31.41c10.32-0.77,21.15-2.65,32.51-5.62c17.51-4.57,35.26-11.5,52.78-19.73
			c-14.77-5.85-28.19-13.06-40.2-21.6C893.33,1422.5,883.27,1427.73,872.73,1432.74z M716.9,1463.36
			c24.32,0.96,48.49-1.93,71.85-7.33c-15.91-9.11-30.12-22.39-42.44-39.72c-6.7-9.42-12.67-19.29-17.89-29.54
			c-14.3-2.61-28.75-6.22-43.32-10.81c-1.02-0.32-2.03-0.65-3.06-0.98C686.63,1402.23,698.61,1432.55,716.9,1463.36z
			 M1167.12,1440.42c8.85,7.62,17.2,15.22,24.92,22.72c6.12-12.31,11.06-25.03,14.8-38.08
			C1193.72,1430.95,1180.47,1436.08,1167.12,1440.42z M642.91,1445.59c12.16,6.31,25.58,10.94,40.21,13.83
			c8.72,1.73,17.46,2.88,26.2,3.51c-6.34-10.95-11.94-21.9-16.72-32.72c-8.91-20.18-14.74-39.58-17.38-57.57
			c-18.6-6.64-38-15.88-55.39-28.7C620.64,1380.09,628.39,1414.27,642.91,1445.59z M835.85,1448.36
			c4.86,4.98,10.07,9.69,15.61,14.12c4.24-7.84,8.46-16.39,12.61-25.73C854.96,1440.86,845.53,1444.77,835.85,1448.36z
			 M807.29,1457.76c3.67,1.36,7.43,2.51,11.28,3.46c-0.59-2.11-1.14-4.22-1.67-6.35C813.72,1455.88,810.52,1456.84,807.29,1457.76z
			 M1214.4,1421.57c-3.38,12.96-7.9,25.61-13.55,37.89c7.87-5.63,15.47-11.68,22.79-18.16c13.82-12.23,26.3-25.69,37.34-40.15
			c0.19-1.87,0.37-3.76,0.54-5.65c-4.36,2.78-8.88,5.54-13.52,8.27C1236.93,1410.27,1225.72,1416.21,1214.4,1421.57z
			 M736.29,1388.11c4.53,8.46,9.6,16.65,15.2,24.52c13.42,18.87,28.84,32.56,46.44,41.13c5.9-1.54,11.74-3.24,17.51-5.07
			c-1.45-6.52-2.66-13.13-3.62-19.84c-0.37-0.54-0.73-1.09-1.09-1.64c-7.13-10.86-13.14-22.67-18.02-35.41
			C774.21,1392.36,755.39,1391.12,736.29,1388.11z M1012.83,1449.18c39.48,4.97,79.05,3.15,118.01-5.44
			c7.79-1.72,15.57-3.71,23.31-5.96c-26.6-22.08-57.16-44-88.59-63.36c-6.94,4.31-14.24,8.94-21.84,13.75
			c-12.14,7.7-25.1,15.92-38.62,24.08C1007.38,1425.18,1009.92,1437.54,1012.83,1449.18z M959.37,1437.88
			c7.79,2.49,15.92,4.62,24.39,6.41c7.42,1.56,14.86,2.89,22.3,3.97c-2.52-10.34-4.76-21.21-6.79-32.52
			C986.37,1423.41,972.99,1430.96,959.37,1437.88z M820.16,1440.2c0.42,2.18,0.87,4.36,1.35,6.52c1.07-0.36,2.13-0.72,3.19-1.08
			C823.15,1443.85,821.63,1442.04,820.16,1440.2z M817.91,1426.51c4.05,5.9,8.47,11.52,13.24,16.83c12.69-4.62,24.96-9.8,36.67-15.3
			c3.99-9.55,7.89-19.86,11.64-30.99c-1.32-1.37-2.61-2.77-3.88-4.19c-3.67-4.11-7.12-8.42-10.34-12.91
			c-2.96,0.9-5.94,1.75-8.93,2.56c-13.42,3.6-27.06,6.16-40.91,7.7C815.46,1402.61,816.29,1414.71,817.91,1426.51z M564.51,1258.06
			c-1.15,10.04-1.75,20.15-1.77,30.18c-0.05,41.65,9.56,79.12,27.81,108.36c11.41,18.29,25.81,32.87,43.05,43.67
			c-13.26-31.41-20.04-65.45-20.19-101.31C590.14,1319.97,571.36,1293.88,564.51,1258.06z M1071.62,1370.69
			c31.98,19.88,62.98,42.34,89.8,64.88c16.01-5.02,31.88-11.19,47.54-18.46c5.79-23.45,7.77-47.91,5.86-72.89
			c-9.69,7.94-19.92,14.29-30.51,18.84c-28.43,12.23-54.27,12.67-76.81,1.32c-4.17-2.1-8.18-4.56-12.04-7.36
			C1088.19,1360.8,1080.21,1365.45,1071.62,1370.69z M908.99,1413.74c12.47,8.53,26.48,15.63,41.95,21.27
			c16.12-7.95,31.97-16.88,47.17-25.97c-2.78-16.41-5.16-33.68-7.32-51.57c-11.58,9.38-23.53,18.42-35.62,26.9
			C942.36,1393.35,926.74,1403.57,908.99,1413.74z M884.47,1402.05c-2.64,7.68-5.35,14.97-8.12,21.89
			c7.21-3.55,14.2-7.21,20.9-10.89C892.78,1409.58,888.52,1405.92,884.47,1402.05z M799.41,1391.53
			c3.12,7.88,6.69,15.38,10.71,22.49c-0.66-7.61-1.02-15.33-1.07-23.17C805.85,1391.13,802.64,1391.36,799.41,1391.53z
			 M1220.76,1339.09c2.43,25.49,0.92,50.48-4.44,74.5c9.57-4.68,19.06-9.78,28.45-15.3c6.05-3.55,11.85-7.16,17.4-10.77
			c2.35-31.26,2.26-65.56-0.27-102.76C1250.39,1306.48,1236.38,1324.9,1220.76,1339.09z M886.71,1395.38
			c5.15,5.11,10.68,9.88,16.59,14.3c18.61-10.53,34.94-21.19,48.22-30.51c13.46-9.45,26.3-19.25,38.38-29.14
			c-0.65-5.52-1.27-11.09-1.89-16.72c-7.05-3.07-13.93-5.86-20.63-8.36c-23.06,18.55-47.39,33.34-72.77,44.26
			C892.08,1378.37,889.44,1387.09,886.71,1395.38z M996.61,1352.69c2.18,18.34,4.55,36.04,7.34,52.82
			c12.7-7.7,24.9-15.44,36.37-22.71c6.62-4.2,13.02-8.26,19.17-12.09c-1.69-1.02-3.39-2.03-5.08-3.04
			c-15.84-9.38-31.24-17.72-46.04-24.96C1004.5,1346.07,1000.58,1349.4,996.61,1352.69z M1268.26,1391.12c0,0.01,0,0.03,0,0.04
			c0.01-0.02,0.03-0.05,0.05-0.07C1268.29,1391.1,1268.28,1391.11,1268.26,1391.12z M871.62,1377.94c2.73,3.7,5.64,7.28,8.7,10.7
			c0.46,0.52,0.93,1.04,1.4,1.55c1.85-5.76,3.66-11.72,5.43-17.9C882.02,1374.33,876.84,1376.21,871.62,1377.94z M732.68,1381.07
			c19.56,3.38,38.83,4.85,57.74,4.44c-11.53-33.3-15.74-72.67-12.62-117.91c-3.15-2.87-6.19-5.88-9.11-9.04
			c-1.79-1.94-3.54-3.93-5.24-5.97c-14.42,6.67-27.13,13.1-37.5,18.9c-6.36,3.56-12.08,7.55-17.13,11.98
			c0.02,0.7,0.04,1.39,0.07,2.09C710.09,1319.24,718.22,1351.69,732.68,1381.07z M783.81,1272.79
			c-2.51,43.21,1.91,80.78,13.25,112.5c4.02-0.19,8.03-0.46,12.02-0.82c0.18-12.13,1.08-24.52,2.71-37.13
			c0.1-2.36,1.19-23.45,9.66-52.07C807.7,1289.52,795.1,1282,783.81,1272.79z M827.45,1297.63c-8.41,28.79-9.31,49.76-9.32,50.08
			l-0.02,0.29c-1.57,12.17-2.46,24.11-2.66,35.81c13.28-1.51,26.36-3.99,39.23-7.44c2.28-0.61,4.54-1.25,6.81-1.92
			c-14.09-21.51-23.16-46.77-26.54-74.25C832.4,1299.41,829.91,1298.55,827.45,1297.63z M1267.45,1273.62
			c3.15,39.67,3.62,76.22,1.41,109.46c2.93-1.99,5.79-3.97,8.56-5.95c28.34-46.31,43.34-100.59,42.41-156.87
			c-0.42-25.59-7.97-42.81-23.08-52.67c-1.63-1.06-3.35-2.03-5.14-2.91C1291.93,1200.69,1283.33,1239.56,1267.45,1273.62z
			 M681.03,1367.94c1.97,0.67,3.97,1.32,5.99,1.96c12.75,4.02,25.4,7.27,37.93,9.74c-13.09-28-20.67-58.58-22.26-90.27
			c-11.17,11.89-18.28,26.38-21.22,43.34C679.59,1343.55,679.48,1355.39,681.03,1367.94z M841.6,1302.2
			c3.6,26.09,12.54,50,26.2,70.31c7.25-2.34,14.42-4.99,21.51-7.95c5.18-19.13,9.18-37.86,12.14-55.34c-2.35-0.13-4.64-0.2-6.88-0.2
			C875.74,1309.01,858.01,1306.71,841.6,1302.2z M1291.43,1157.63c3.14,1.33,6.07,2.88,8.78,4.65
			c16.77,10.94,25.51,30.41,25.96,57.88c0.86,52.42-11.8,103.13-35.98,147.54c31.37-24,50.25-44.85,53.67-48.73
			c9.04-54.98,4.56-112.41-13.32-171.17c-15.61-8.02-29.12-14.32-42.46-19.12c1.65,8.48,2.73,17.29,3.22,26.36
			C1291.36,1155.91,1291.4,1156.77,1291.43,1157.63z M1013.52,1338.18c14.24,7.03,29,15.06,44.12,24.03
			c2.64,1.56,5.27,3.15,7.9,4.75c8.74-5.37,16.91-10.2,24.42-14.22c-14.09-11.81-26.09-28.26-36.57-47.93
			c-2.27,0.62-4.54,1.18-6.8,1.68C1036.36,1317.13,1025.24,1327.78,1013.52,1338.18z M1101.94,1353.79
			c2.76,1.84,5.56,3.48,8.41,4.92c21.08,10.62,44.45,10.14,71.44-1.48c11.26-4.84,22.12-11.84,32.31-20.71
			c-1.85-17.13-5.52-34.5-11.03-51.93c-2.21-6.98-4.79-13.62-7.74-19.91c-29.09,44.2-60.98,76.2-85.4,85.66
			C1107.4,1351.31,1104.73,1352.47,1101.94,1353.79z M619.77,1336c15.05,11.82,33.29,21.71,54.57,29.57
			c-1.23-12.08-0.95-23.46,0.87-33.94c3.53-20.38,12.65-37.44,27.19-50.95c-0.62-38.15,7.11-76.33,22.5-111.14
			c-4.04-18.99-6.08-39.57-6.05-61.56c-6.67-0.34-13.28-0.45-19.83-0.32c-35.36,50.93-60.38,108.26-72.42,165.97
			C622.15,1294.92,619.89,1315.76,619.77,1336z M907.79,1309.73c-2.75,16.36-6.4,33.78-11.06,51.6
			c22.08-9.97,43.35-22.98,63.64-38.93C941.03,1315.62,923.33,1311.33,907.79,1309.73z M1059.7,1302.93
			c11.17,20.69,23.25,36.14,36.44,46.62c4.07-2.02,7.91-3.75,11.5-5.14c22.99-8.9,54.71-41.02,82.78-83.82
			c0.55-0.83,1.09-1.67,1.63-2.5c-8.56-16.12-19.74-29.75-33.46-40.8c-8.03,17.54-20.46,34.36-36.61,49.08
			C1103.41,1283.29,1081.62,1295.87,1059.7,1302.93z M994.73,1336.29c0.33,2.98,0.66,5.94,1,8.89c2.16-1.82,4.3-3.64,6.41-5.46
			C999.66,1338.55,997.19,1337.4,994.73,1336.29z M993.93,1328.99c4.42,1.96,8.89,4.03,13.43,6.2c10.22-9,19.75-17.99,28.5-26.79
			c-8.37,1.12-16.59,1.34-24.49,0.61c-6.51-0.61-12.49-3.06-18.07-7.02c-0.67,0.65-1.34,1.3-2.02,1.95
			C992.16,1312.37,993.04,1320.72,993.93,1328.99z M1199.38,1258.43c3.78,7.58,7.04,15.66,9.75,24.25
			c5.15,16.28,8.73,32.5,10.76,48.55c14.88-14.36,28.17-32.82,39-54.48c0.71-1.42,1.41-2.86,2.1-4.3
			c-2.04-25.18-5.17-51.63-9.37-79.3c-1.53-10.04-3.54-19.9-6.04-29.58C1234.56,1195.42,1218.83,1227.84,1199.38,1258.43z
			 M568.21,1234.69c0.03,0.62,0.06,1.24,0.09,1.86c1.63,30.2,11.63,56.58,29.71,78.39c4.63,5.59,9.8,10.88,15.48,15.85
			c0.45-19.03,2.73-38.56,6.89-58.46c11.9-57.07,36.31-113.75,70.74-164.4c-11.87,0.59-23.46,1.98-34.66,4.17
			c-25.63,5.01-49.44,26.54-67.04,60.62C579.95,1191.08,572.73,1212.36,568.21,1234.69z M973.02,1320.31
			c4.66,1.79,9.4,3.71,14.21,5.76c-0.59-5.52-1.18-11.09-1.76-16.69C981.36,1313.15,977.21,1316.79,973.02,1320.31z M908.81,1303.46
			c16.92,1.8,36.23,6.64,57.35,14.29c5.93-4.87,11.77-9.99,17.52-15.36c0.33-0.3,0.65-0.61,0.98-0.92
			c-0.27-2.66-0.55-5.34-0.82-8.02c-8.46-9.27-15.99-22.08-23.09-36.89c-16.3,4.65-29.48,6.59-38.37,4.43
			c-2.63-0.64-5.48-1.41-8.51-2.32C913.02,1271.95,911.38,1287.11,908.81,1303.46z M997.89,1297.46c4.43,2.94,9.11,4.75,14.08,5.22
			c10.03,0.94,20.63,0.23,31.39-1.97c1.76-1.84,3.49-3.68,5.17-5.5c-5.65-11.67-10.84-24.29-15.67-37.6
			C1021.78,1271.88,1010.09,1285.22,997.89,1297.46z M840.78,1295.35c16.56,4.84,34.58,7.31,53.79,7.31c2.57,0,5.2,0.08,7.91,0.25
			c2.68-16.98,4.36-32.65,5.16-46.22c-14.79-4.94-32.87-12.7-51.2-23.51c-2.75,4.29-5.37,8.7-7.86,13.23
			c-3.15,5.73-5.98,11.43-8.52,17.05C839.49,1274.23,839.72,1284.9,840.78,1295.35z M1056.2,1296.23c0.17,0.34,0.34,0.68,0.51,1.01
			c21.39-6.71,42.77-18.97,60.99-35.57c15.92-14.51,28.07-31.11,35.71-48.34c-9.45-6.86-20-12.61-31.63-17.22
			c-1.38-0.55-2.76-1.07-4.16-1.58c-3.35,1.32-6.7,2.65-10.03,4c-1.21,10.74-2.98,20.32-5.04,28.29
			C1098.3,1243.24,1081.43,1268.5,1056.2,1296.23z M989.94,1290.77c0.95,0.97,1.92,1.9,2.89,2.77
			c13.13-13.13,25.69-27.56,37.5-43.06c-1.97-5.69-3.89-11.51-5.75-17.41c-13.85,5.71-26.98,10.94-39.06,15.33
			c1.46,13.49,2.84,26.98,4.2,40.36C989.81,1289.43,989.87,1290.1,989.94,1290.77z M829.31,1291.54c1.62,0.61,3.25,1.19,4.9,1.75
			c-0.4-4.56-0.65-9.15-0.75-13.77C831.93,1283.62,830.55,1287.64,829.31,1291.54z M1037.47,1251.58
			c2.49,7.02,5.09,13.88,7.82,20.54c2.59,6.32,5.22,12.31,7.92,17.98c23.9-26.57,39.36-50.03,43.2-64.87
			c1.78-6.87,3.33-14.96,4.48-23.98c-13.71,5.58-27.26,11.27-40.36,16.78C1053.22,1229.65,1045.52,1240.86,1037.47,1251.58z
			 M784.34,1264.92c11.52,10.04,24.59,18.15,38.99,24.23c2.77-8.61,6.2-17.79,10.45-27.27c0.77-13.14,2.7-26.39,5.74-39.54
			c-0.21-0.14-0.41-0.29-0.62-0.43c-18.42,6.56-36.07,13.5-52.29,20.41C785.66,1250.01,784.91,1257.55,784.34,1264.92z
			 M966.88,1254.73c5.03,10.43,10.23,19.75,15.79,27.35c-1.07-10.46-2.16-20.97-3.29-31.49
			C975.06,1252.1,970.89,1253.49,966.88,1254.73z M727.38,1180.04c-11.97,29.97-18.45,63-18.65,95.25
			c4.32-3.37,9.02-6.49,14.12-9.34c10.14-5.67,22.51-11.95,36.51-18.46C744.83,1228.57,734.12,1205.91,727.38,1180.04z
			 M1250.69,1158.08c3.03,11.13,5.44,22.51,7.2,34.11c3.59,23.62,6.4,46.37,8.42,68.2c12.9-31.44,19.62-66.17,18.91-98.34
			C1275.36,1158.66,1263.68,1157.5,1250.69,1158.08z M769.44,1249.85c1.27,1.49,2.58,2.96,3.91,4.4c1.65,1.79,3.35,3.53,5.08,5.22
			c0.41-4.69,0.89-9.44,1.45-14.25C776.33,1246.77,772.84,1248.32,769.44,1249.85z M914.23,1252.15c3.46,1.06,6.69,1.95,9.65,2.67
			c7.59,1.85,19.44,0.06,34.14-4.09c-6.71-14.68-13.09-31.02-19.58-47.64c-1.17-3.01-2.35-6.02-3.54-9.04
			c-9.29,2.02-18.28,4.19-26.82,6.42c3.43,8.25,5.47,16.73,6.06,25.33C914.65,1233.03,914.7,1241.94,914.23,1252.15z
			 M1161.18,1211.21c14.13,11.06,25.74,24.67,34.77,40.74c18.83-30.12,34-61.94,44.52-93.1c-21.49,2.27-45.95,8.56-71.48,16.93
			C1168.49,1187.58,1165.82,1199.52,1161.18,1211.21z M859.91,1227.93c17.12,10.06,34.02,17.39,48.06,22.19
			c0.37-9.2,0.3-17.26-0.15-23.88c-0.56-8.17-2.56-16.24-5.93-24.12c-9.65,2.61-19.3,5.42-28.85,8.4
			C868.41,1216.06,864.03,1221.87,859.91,1227.93z M941.21,1192.72c1.06,2.7,2.11,5.39,3.15,8.07c6.58,16.87,13.05,33.43,19.8,48.14
			c4.61-1.42,9.47-3.04,14.52-4.83c-2.08-19.04-4.34-38.08-6.96-56.88C961.31,1188.8,951.1,1190.67,941.21,1192.72z M845.17,1226.17
			c-1.44,6.52-2.6,13.07-3.47,19.61c0.43-0.8,0.87-1.61,1.31-2.41c2.54-4.61,5.2-9.09,7.99-13.46
			C849.06,1228.69,847.11,1227.45,845.17,1226.17z M731.54,1170.23c6.45,29.04,17.75,54.12,33.74,74.54
			c4.99-2.27,10.17-4.56,15.51-6.86c2.52-19.26,6.24-39.46,11.15-60.6c-6.18-8.23-11.68-17.09-16.25-26.6
			c-5.15-10.72-8.87-21.74-11.15-33.05c-11.64,13.43-22.18,29.69-30.97,48.2C732.87,1167.31,732.2,1168.77,731.54,1170.23z
			 M1030.47,1230.64c1.45,4.6,2.94,9.17,4.48,13.69c5.24-7.11,10.32-14.43,15.24-21.95
			C1043.5,1225.2,1036.91,1227.96,1030.47,1230.64z M978,1186.29c2.56,18.39,4.78,36.99,6.82,55.59
			c11.81-4.33,24.59-9.43,37.88-14.91c-4.36-14.28-8.43-29.08-12.3-44.11C999.52,1183.62,988.68,1184.8,978,1186.29z
			 M796.98,1183.72c-4,17.79-7.14,34.9-9.41,51.31c14.16-5.96,29.34-11.92,45.12-17.62C819.89,1207.8,807.62,1196.6,796.98,1183.72z
			 M846.71,1219.63c2.58,1.73,5.16,3.4,7.75,5.01c2.46-3.64,5.02-7.19,7.66-10.65c-5.14,1.67-10.24,3.39-15.29,5.14
			C846.8,1219.29,846.76,1219.47,846.71,1219.63z M1016.83,1182.48c3.61,14,7.5,28.17,11.75,42.07c8.4-3.49,16.97-7.1,25.63-10.75
			c0.67-0.28,1.33-0.56,2.01-0.84c5.84-9.37,11.41-19,16.71-28.86C1054.71,1181.81,1035.77,1181.47,1016.83,1182.48z M798.8,1175.86
			c11.87,15.26,26.15,28.21,41.05,38.99c0.57-0.2,1.13-0.4,1.7-0.6c4.49-16.76,10.79-33.27,18.82-49.08
			c1.38-2.72,2.8-5.39,4.26-8.03c-0.01-0.01-0.02-0.01-0.03-0.02c-14.65-11.24-32.55-21.09-52.38-28.96
			c-2.21,6.05-4.21,12.31-5.99,18.77C803.51,1156.76,801.04,1166.41,798.8,1175.86z M869.67,1161.17c-1.24,2.26-2.45,4.56-3.63,6.88
			c-7.17,14.11-12.92,28.79-17.2,43.69c6.77-2.31,13.63-4.56,20.53-6.72c6.65-7.83,13.79-15.14,21.42-21.92
			C885.1,1175.47,878.04,1168.13,869.67,1161.17z M1079.62,1185.02c-4.28,8.06-8.75,15.97-13.39,23.72
			c11.57-4.86,23.46-9.82,35.46-14.68c0.14-1.44,0.27-2.91,0.39-4.39C1094.79,1187.73,1087.28,1186.19,1079.62,1185.02z
			 M1126.37,1191.12c10.76,4.44,20.6,9.83,29.53,16.16c3.68-9.71,5.93-19.58,6.61-29.33
			C1150.6,1181.99,1138.49,1186.45,1126.37,1191.12z M770.38,948.11c-1.94,0.78-3.9,1.61-5.87,2.47
			c-48.18,21.13-99.56,65.5-137.44,118.7c-32.34,45.41-52.16,92.3-57.53,135.14c3.95-12.27,8.72-23.92,14.24-34.61
			c18.51-35.84,43.89-58.55,71.46-63.94c13.03-2.55,26.6-4.01,40.38-4.44c8.1-11.5,16.59-22.5,25.41-32.94
			c3.49-29.66,11.97-57.57,25.25-83.1C753.07,972.34,761.13,959.89,770.38,948.11z M894.46,1188.33c-4.65,4.16-9.11,8.53-13.39,13.1
			c6-1.79,12.03-3.51,18.06-5.14C897.73,1193.61,896.17,1190.95,894.46,1188.33z M899.29,1184.13c2.29,3.45,4.33,6.94,6.11,10.49
			c9.2-2.41,18.25-4.6,27.14-6.56c-2.88-7.29-5.81-14.56-8.83-21.7c-3.06,1.92-6.07,3.9-9.01,5.95
			C909.37,1176.02,904.24,1179.96,899.29,1184.13z M1108.78,1184.94c2.97,0.88,5.88,1.81,8.73,2.81
			c15.16-5.95,30.37-11.62,45.23-16.61c-0.09-18.12-5.17-36.03-14.27-52.05c-12.36,0.92-25.82,2.06-40.61,3.41
			c-0.45,1.18-0.89,2.36-1.35,3.54C1109.43,1146.99,1109.88,1167.13,1108.78,1184.94z M929.21,1163.03
			c3.3,7.78,6.49,15.71,9.63,23.67c10.91-2.29,21.58-4.24,31.97-5.83c-1.7-11.76-3.55-23.41-5.6-34.9
			C952.48,1150.75,940.46,1156.45,929.21,1163.03z M1082.74,1179.06c6.85,1.12,13.44,2.5,19.79,4.15
			c0.79-13.79,0.63-28.98-0.94-44.86C1095.85,1152.24,1089.55,1165.84,1082.74,1179.06z M971.28,1143.78
			c2.14,11.91,4.06,23.99,5.82,36.17c10.88-1.53,21.45-2.67,31.69-3.41c-3.02-11.95-5.93-24.04-8.77-36.11
			c-0.36-1.54-0.7-3.08-1.01-4.64C989.43,1138.02,980.18,1140.68,971.28,1143.78z M872.85,1155.55
			c9.01,7.39,16.62,15.22,22.76,23.38c4.96-4.16,10.12-8.11,15.47-11.83c3.3-2.3,6.67-4.52,10.12-6.65
			c-6.55-15.1-13.53-29.45-21.27-41.92C889.94,1129.46,880.83,1141.89,872.85,1155.55z M1036.26,1175.51
			c14.03,0,27.33,0.85,39.85,2.55c8.85-17.02,16.86-34.68,23.89-52.8c-0.1-0.68-0.2-1.34-0.3-2.02c-17.89,1.67-37.64,3.61-59.57,5.8
			c-12.06,1.21-23.71,2.99-34.92,5.36c0.31,1.53,0.64,3.05,1,4.56c2.82,11.99,5.81,24.48,9.01,37.15c0.93-0.05,1.86-0.1,2.79-0.15
			C1024.21,1175.67,1030.3,1175.51,1036.26,1175.51z M770.54,1115.25c2.16,11.21,5.78,22.12,10.87,32.72
			c3.6,7.49,7.8,14.56,12.46,21.23c1.92-7.86,4-15.84,6.24-23.95c1.84-6.66,3.9-13.12,6.18-19.36
			C794.88,1121.66,782.88,1118.08,770.54,1115.25z M1155.43,1118.58c8.39,15.66,13.19,32.94,13.63,50.46
			c7.76-2.52,15.4-4.85,22.87-6.91c18.95-5.24,35.74-8.53,50.49-9.86c-3.63-12.04-8.04-23.79-13.21-35.23
			C1209.32,1115.84,1185.85,1116.47,1155.43,1118.58z M725.19,1108.38c0,18.17,1.43,35.33,4.27,51.39
			c8.8-17.84,19.23-33.57,30.71-46.71C748.46,1110.79,736.77,1109.23,725.19,1108.38z M904.42,1113.75
			c8.17,12.91,15.45,27.76,22.26,43.4c11.69-6.79,24.16-12.63,37.38-17.54c-2.13-11.44-4.46-22.7-7.05-33.73
			c-2.11-8.98-4.35-17.62-6.72-25.91C933.84,1088.01,918.35,1099.47,904.42,1113.75z M1256.84,1151.58
			c10.64,0,19.99,1.24,28.12,3.71c-0.55-10.02-1.85-19.71-3.84-28.97c-7.65-2.45-15.36-4.41-23.49-5.92
			c-2.16,10.3-4.9,20.78-8.19,31.36C1251.97,1151.64,1254.44,1151.58,1256.84,1151.58z M814.52,1122.14
			c19.74,7.83,37.89,17.73,53.3,29.44c8.41-14.26,18.01-27.2,28.55-38.56c-16.85-25.07-35.18-37.33-55.9-37.37
			C830.04,1089.35,821.38,1104.86,814.52,1122.14z M1236.39,1117.57c3.49,7.96,6.61,16.06,9.38,24.31
			c2.16-7.59,4.03-15.11,5.6-22.53C1246.56,1118.61,1241.6,1118.02,1236.39,1117.57z M1286.52,1121.45
			c13.28,4.51,26.52,10.44,41.35,17.9c-1.58-4.84-3.24-9.68-5-14.54c-43.38-119.89-103.23-203.31-177.89-247.97
			c-71.3-42.64-140.58-40.49-186.15-31.16c-35.44,7.25-69.32,19.73-99.42,36.36c25.51,0.66,50.2,4.91,74.09,11.1
			c30.86-8.55,62.71-11.72,91.86-8.81c40.3,4.02,71.44,18.86,89.98,42.06c35.24-8.33,71.26,2.6,104.1,32.23
			c29.44,26.56,44.34,64.36,44,110.77c0.95,1.32,1.87,2.65,2.77,4.02C1275.43,1087.29,1282.27,1103.55,1286.52,1121.45z
			 M956.12,1077.27c2.5,8.68,4.86,17.74,7.08,27.16c2.54,10.81,4.83,21.84,6.92,33.03c8.93-3.06,18.18-5.71,27.75-7.93
			c-3.42-21.4-2.55-44.28,2.45-67.14C985.94,1065.59,971.15,1070.55,956.12,1077.27z M1007.15,1061
			c-5.36,22.87-6.44,45.79-3.07,67.16c11.38-2.39,23.19-4.2,35.41-5.42c21.84-2.18,41.45-4.1,59.17-5.75
			c-1.77-9.98-4.14-20.09-7.21-30.17c-2.09-6.85-4.62-14.04-7.7-21.37C1060.68,1057.36,1034.74,1055.88,1007.15,1061z
			 M772.47,1109.11c12.38,2.85,24.49,6.45,36.11,10.75c6.35-16.02,14.21-30.57,23.54-43.63
			C811.58,1078.96,790.92,1090.6,772.47,1109.11z M1258.87,1114.19c7.07,1.32,13.85,2.98,20.54,4.99
			c-3.74-14.27-9.22-27.37-16.31-38.87c-0.59,10.49-1.93,21.39-4,32.67C1259.02,1113.37,1258.95,1113.78,1258.87,1114.19z
			 M1120.11,1085.72c-2.89,9.96-6.17,20.06-9.83,30.21c12.43-1.12,23.89-2.08,34.5-2.89
			C1138.14,1102.87,1129.83,1093.6,1120.11,1085.72z M1091.89,1068.63c2.17,5.58,4.03,11.06,5.64,16.34
			c2.89,9.48,5.17,18.99,6.92,28.4c3.86-10.7,7.28-21.34,10.26-31.79c-1.8-1.3-3.65-2.55-5.53-3.76
			C1103.64,1074.28,1097.87,1071.22,1091.89,1068.63z M1233.41,1110.98c4.22,0.31,8.28,0.7,12.23,1.18
			c2.36,0.29,4.68,0.61,6.97,0.96c0.08-0.43,0.16-0.87,0.24-1.3c2.29-12.42,3.96-26.17,4.19-40.45
			c-15.52-20.83-36.85-35.51-63.49-43.66c-7.41-2.27-15.49-4.61-24.13-6.93C1196.8,1048.25,1218.17,1078.39,1233.41,1110.98z
			 M1121.98,1079.09c12.09,9.39,22.23,20.79,29.96,33.41c30.9-2.21,54.38-2.93,74.21-1.97c-16.3-33.78-39.39-64.86-69.15-92.98
			c-7.24-1.81-14.81-3.58-22.63-5.25C1132.68,1032.66,1128.48,1055.39,1121.98,1079.09z M845.36,1069.5
			c20.62,1.73,38.86,14.51,55.49,38.83c14.46-14.62,30.55-26.34,47.62-34.53c-6.65-22.12-14.29-41.69-23.01-58.88
			c-10.27,3.65-20.23,8.05-29.76,13.29C876.13,1038.96,859.32,1052.75,845.36,1069.5z M725.25,1102.04
			c12.58,0.89,25.18,2.58,37.57,5.01c-3.28-26.99,1.35-55.49,13.89-85.23c-17.36,14.47-33.99,31-49.59,49.3
			c-0.3,2.69-0.55,5.4-0.76,8.11C725.75,1086.99,725.38,1094.6,725.25,1102.04z M787.68,1013.03c-0.55,1.12-1.1,2.26-1.63,3.41
			c-14.27,30.59-20,59.82-17.19,87.37c20.76-20.51,44.26-32.82,67.52-34.37c0.3-0.02,0.59-0.04,0.89-0.05
			c15.06-19.13,33.55-34.75,55.39-46.74c9.58-5.26,19.57-9.7,29.85-13.4c-9.73-18.1-20.72-33.39-33.07-46.06
			c-0.35-0.36-0.7-0.71-1.05-1.07c-21.31,5.14-43.2,14.16-65.27,27.01C811.08,996.13,799.24,1004.12,787.68,1013.03z
			 M704.48,1101.29c4.8,0,9.61,0.12,14.43,0.36c0.13-7.16,0.48-14.46,1.05-21.9c-5.63,6.95-11.12,14.14-16.44,21.54
			C703.83,1101.29,704.15,1101.29,704.48,1101.29z M1088.51,1060.42c8.42,3.16,16.46,7.18,24.09,12.05
			c1.32,0.85,2.63,1.71,3.91,2.61c6.13-22.81,10.08-44.61,11.65-64.07c-24.95-5.1-52.32-9.17-80.31-10.72
			C1066.76,1018.86,1079.68,1040.11,1088.51,1060.42z M931.54,1012.86c8.6,17.11,16.17,36.49,22.77,58.27
			c16.2-7.18,32.15-12.38,47.64-15.59c2.58-10.09,5.96-20.15,10.13-30.05c3.8-9.01,8.19-17.67,13.09-25.87c-0.32,0-0.64,0-0.96,0
			C992.65,999.63,960.94,1003.33,931.54,1012.86z M1160.16,1011.81c12.88,3.25,24.73,6.61,35.24,9.83
			c25.13,7.69,45.77,20.92,61.55,39.43c-1.18-34.3-11.5-70.45-41.75-97.75c-30.27-27.31-63.33-37.9-95.7-31.3
			c5.71,8.46,9.88,17.89,12.37,28.19c2.11,8.73,3.21,18.88,3.35,30.11c6.06,4.8,12.05,9.83,17.95,15.08
			C1155.53,1007.53,1157.87,1009.66,1160.16,1011.81z M782.14,943.81c-11.9,13.85-22.01,28.73-30.22,44.51
			c-11.5,22.09-19.29,46.03-23.27,71.39c16.99-19.08,35.11-36.14,54-50.82c10.66-21.22,28.85-47.36,59.58-70.95
			c-3.1-0.55-6.27-0.95-9.5-1.2C817.05,935.55,800.09,937.92,782.14,943.81z M1038.44,1051.66c14.63,0,28.65,1.99,41.84,5.97
			c-9.31-19.85-22.77-40.29-42.21-57.78c-1.84-0.06-3.67-0.11-5.52-0.15c-5.52,8.87-10.44,18.34-14.61,28.25
			c-3.65,8.67-6.68,17.46-9.08,26.28C1018.94,1052.52,1028.83,1051.66,1038.44,1051.66z M1134.83,1005.92
			c4.23,0.9,8.38,1.83,12.45,2.77c-4-3.53-8.05-6.95-12.13-10.27C1135.09,1000.88,1134.98,1003.38,1134.83,1005.92z M895.67,960.51
			c12.28,12.96,23.22,28.44,32.91,46.64c31.88-10.48,66.38-14.22,100.49-13.82c0.14-0.22,0.29-0.44,0.43-0.66
			c-14.93-11.7-32.97-21.67-54.76-28.68C950.06,956.05,923.41,954.94,895.67,960.51z M1040.65,993.62c30.65,1.17,60.7,5.48,87.93,11
			c0.21-3.83,0.32-7.55,0.33-11.17c-18.95-14.81-38.5-27.44-57.48-38.14c-12.27,9.72-23.61,22-33.4,36.07
			C1038.92,992.12,1039.79,992.87,1040.65,993.62z M850.41,939.79c-20.06,14.66-40.18,34.24-55.55,60.03
			c8.24-5.85,16.6-11.26,25.07-16.18c21.2-12.34,42.27-21.24,62.87-26.66C873.17,948.85,862.34,943.1,850.41,939.79z M929.56,950.68
			c16.27,0,32.04,2.41,47.13,7.26c22.42,7.21,41,17.44,56.4,29.43c9.54-13.64,20.5-25.65,32.36-35.39
			c-26.32-14.39-51.27-25.06-71.69-32.67c-22.71-8.47-42.72-14.83-60.53-19.52c-15.02,4.28-29.78,9.87-43.84,16.67
			c-10.04,4.86-21.13,11.01-32.41,18.69c12.31,4.15,23.45,10.83,33.32,19.99C903.63,952.18,916.75,950.68,929.56,950.68z
			 M1076.96,951.15c17.12,9.78,34.66,21.11,51.8,34.17c-0.36-8.7-1.38-16.62-3.07-23.6c-2.5-10.34-6.84-19.74-12.86-28.08
			c-9,2.5-17.92,6.34-26.7,11.53C1083.04,947,1079.98,949,1076.96,951.15z M945.86,896.52c17.13,4.95,33.84,10.77,50.12,16.84
			c21.26,7.93,47.4,19.14,74.9,34.36c3.93-2.93,7.94-5.62,12.03-8.03c8.45-5,17.03-8.82,25.67-11.48
			c-17.7-20.64-46.64-33.86-83.84-37.58C999.69,888.14,972.57,890.26,945.86,896.52z M848.86,888.14
			c-15.6,9.42-30.04,19.98-43,31.54c-5.46,4.87-10.65,9.91-15.59,15.11c15.05-3.94,29.41-5.41,42.93-4.38
			c5.47,0.42,10.76,1.24,15.86,2.47c10.99-7.82,23.44-15.29,37.55-22.12c11.18-5.41,22.8-10.07,34.65-13.94
			C891.68,889.89,868.48,887.79,848.86,888.14z"/>
	</g>
	<g>
		<path class="st13" d="M804.45,637.45c17.76-69.03,47.78-129.05,129.05-129.05c71.27,0,135.92,62.79,131.22,140.16
			c-4.32,71.14-66.1,131.4-141.73,122.93C852.16,763.56,784.11,716.49,804.45,637.45z"/>
		<g class="st15">
			<path class="st11" d="M914.01,683.6c0-5.64,0.34-10.55,1.01-14.73c0.67-4.17,1.79-7.99,3.34-11.45c1.55-3.46,3.56-6.74,6.02-9.84
				c2.46-3.1,5.49-6.4,9.06-9.9c2.7-2.62,5.23-5.11,7.57-7.45c2.34-2.34,4.41-4.75,6.2-7.21c1.79-2.46,3.2-5.09,4.23-7.87
				c1.03-2.78,1.55-5.88,1.55-9.3c0-7.47-1.85-13.18-5.54-17.11c-3.7-3.94-9.12-5.9-16.28-5.9c-2.86,0-5.65,0.4-8.35,1.19
				c-2.7,0.8-5.13,2.07-7.28,3.82c-2.15,1.75-3.88,3.98-5.19,6.68c-1.31,2.7-1.97,5.96-1.97,9.78h-28.98
				c0.08-7.47,1.45-14.05,4.11-19.74c2.66-5.68,6.32-10.45,10.97-14.31c4.65-3.86,10.1-6.76,16.34-8.71
				c6.24-1.95,13.02-2.92,20.33-2.92c8.03,0,15.18,1.03,21.47,3.1c6.28,2.07,11.61,5.09,15.98,9.06c4.37,3.98,7.69,8.83,9.96,14.55
				c2.27,5.73,3.4,12.21,3.4,19.44c0,5.25-0.83,10.14-2.5,14.67c-1.67,4.53-3.9,8.79-6.68,12.76c-2.79,3.98-5.96,7.79-9.54,11.45
				c-3.58,3.66-7.28,7.28-11.09,10.85c-4.38,3.98-7.3,8.33-8.77,13.06c-1.47,4.73-2.25,10.08-2.33,16.04H914.01z M911.98,720.69
				c0-2.23,0.36-4.29,1.07-6.2c0.71-1.91,1.77-3.58,3.16-5.01c1.39-1.43,3.1-2.54,5.13-3.34c2.03-0.79,4.35-1.19,6.98-1.19
				c2.62,0,4.95,0.4,6.98,1.19c2.03,0.8,3.74,1.91,5.13,3.34c1.39,1.43,2.46,3.1,3.22,5.01c0.75,1.91,1.13,3.98,1.13,6.2
				c0,4.37-1.43,8.03-4.29,10.97c-2.86,2.94-6.92,4.41-12.17,4.41c-5.25,0-9.28-1.47-12.1-4.41
				C913.39,728.72,911.98,725.06,911.98,720.69z"/>
		</g>
	</g>
	<g>
		<polygon class="st16" points="1287.18,476.19 1171.38,509.48 1242.35,445.14 1248.72,461.71 1278.17,462.92 		"/>
		<polygon class="st17" points="1171.38,509.48 1262.64,445.12 1358.33,426.87 		"/>
		<polygon class="st17" points="1242.35,445.14 1171.38,509.48 1220.46,417.52 		"/>
	</g>
	<g>
		<polygon class="st18" points="2303.96,953.04 2424.65,970.23 2344.55,915.66 2340.48,933.16 2311.13,938.48 		"/>
		<polygon class="st17" points="2424.65,970.23 2324.21,918.47 2225.77,913.54 		"/>
		<polygon class="st17" points="2344.55,915.66 2424.65,970.23 2362.63,884.93 		"/>
	</g>
	<g>
		<g>
			<g>
				<path class="st14" d="M2240.15,1553.19c-113.33,0-225.6-49.97-300.34-133.68c-64-71.68-93.64-160.57-83.45-250.3l1.52,0.17
					l-1.52-0.17c13.93-122.72,55.41-217.81,123.27-282.63c64.37-61.49,152-95.47,260.45-101c126.87-6.47,224.5,29.67,290.17,107.42
					c28.72,34.01,51.32,76.17,67.16,125.31c14.42,44.74,23.35,95.54,26.56,150.99c3.38,58.57-1.8,111.81-15.42,158.23
					c-13.9,47.39-36.72,88.13-67.82,121.09C2475.21,1518,2374.08,1553.19,2240.15,1553.19z M2268.47,787.9
					c-9.25,0-18.65,0.24-28.24,0.73c-107.7,5.49-194.67,39.19-258.49,100.15c-67.33,64.32-108.5,158.78-122.34,280.77
					c-10.09,88.85,19.28,176.89,82.69,247.91c74.17,83.07,185.59,132.66,298.06,132.66c133.06,0,233.44-34.86,298.33-103.62
					c30.77-32.6,53.35-72.92,67.11-119.85c13.51-46.08,18.66-98.97,15.3-157.2c-3.19-55.19-12.07-105.74-26.41-150.23
					c-15.71-48.75-38.12-90.57-66.58-124.27C2467.84,823.85,2380.64,787.9,2268.47,787.9z"/>
				<path class="st14" d="M2240.15,1555.3c-113.92,0-226.79-50.24-301.92-134.39c-63.91-71.58-93.77-160.22-84.21-249.84l-0.01,0
					l0.48-4.21l0,0c14.22-122.21,55.83-217.02,123.67-281.82c64.75-61.85,152.83-96.02,261.8-101.58
					c127.58-6.5,225.78,29.89,291.89,108.17c28.9,34.22,51.63,76.62,67.55,126.02c14.47,44.9,23.44,95.88,26.66,151.52
					c3.4,58.82-1.82,112.3-15.5,158.95c-13.99,47.72-36.98,88.75-68.32,121.94C2476.33,1519.9,2374.69,1555.3,2240.15,1555.3z
					 M2268.47,790.02c-9.16,0-18.63,0.25-28.13,0.73c-107.17,5.46-193.69,38.96-257.13,99.57c-66.96,63.97-107.91,158-121.7,279.48
					c-10.02,88.24,19.16,175.7,82.17,246.26c73.77,82.62,184.61,131.95,296.48,131.95c132.46,0,232.31-34.64,296.8-102.95
					c30.54-32.35,52.96-72.39,66.62-118.99c13.45-45.85,18.57-98.5,15.22-156.48c-3.18-55.02-12.03-105.38-26.32-149.7
					c-15.63-48.49-37.9-90.06-66.18-123.55C2466.7,825.79,2379.96,790.02,2268.47,790.02z"/>
			</g>
		</g>
		<g>
			<g>
				<path class="st14" d="M2253.79,1570.21c-63.64,0-133.68-18.07-209.43-54.15c-102.31-48.73-182.19-142.13-213.67-249.85
					c-26.96-92.23-15.49-185.23,32.29-261.86c65.35-104.8,143.68-172.82,232.83-202.16c84.55-27.83,178.28-20.83,278.57,20.82
					c117.33,48.72,189.93,123.33,215.78,221.76c11.31,43.06,13.58,90.83,6.74,142.01c-6.22,46.59-20,96.29-40.95,147.74
					c-22.13,54.34-49.71,100.17-81.96,136.23c-32.93,36.81-71.05,63.78-113.3,80.15
					C2327.44,1563.78,2291.75,1570.21,2253.79,1570.21z M1864.28,1005.17l1.3,0.81c-47.31,75.88-58.66,167.99-31.95,259.38
					c31.24,106.89,110.51,199.58,212.05,247.94c120.13,57.22,225.74,68.91,313.9,34.74c41.8-16.2,79.53-42.89,112.13-79.34
					c32.02-35.79,59.41-81.33,81.41-135.34c20.86-51.2,34.57-100.66,40.75-146.99c6.78-50.77,4.53-98.16-6.67-140.83
					c-25.59-97.46-97.59-171.38-213.99-219.71c-99.59-41.35-192.6-48.33-276.44-20.74c-88.45,29.11-166.23,96.69-231.19,200.87
					L1864.28,1005.17z"/>
				<path class="st14" d="M2253.79,1572.33c-63.84,0-134.61-18.29-210.34-54.36c-102.85-48.99-183.14-142.88-214.79-251.16
					c-27.13-92.82-15.58-186.43,32.53-263.57c65.62-105.23,144.34-173.55,233.96-203.05c85.05-27.99,179.27-20.97,280.04,20.87
					c117.97,48.99,190.99,124.07,217.01,223.18c11.38,43.33,13.66,91.38,6.79,142.83c-6.24,46.76-20.07,96.64-41.09,148.25
					c-22.23,54.56-49.93,100.6-82.34,136.84c-33.15,37.06-71.55,64.22-114.12,80.72
					C2328.13,1565.78,2291.91,1572.33,2253.79,1572.33z M1867.37,1007.1c-46.99,75.36-58.25,166.87-31.71,257.67
					c31.07,106.32,109.92,198.52,210.93,246.62c119.59,56.96,224.63,68.63,312.23,34.68c41.49-16.08,78.94-42.58,111.32-78.78
					c31.86-35.61,59.12-80.94,81.03-134.73c20.79-51.04,34.45-100.32,40.61-146.47c6.74-50.5,4.52-97.6-6.62-140.01
					c-25.42-96.78-97-170.23-212.75-218.29c-99.11-41.16-191.62-48.11-274.96-20.68C2009.47,836.07,1932.07,903.35,1867.37,1007.1z"
					/>
			</g>
		</g>
		<g>
			<g>
				<path class="st14" d="M2275.32,1593.77c-92.35,0-187.21-44.38-282.32-132.15c-86.21-79.57-136.54-196.42-134.63-312.57
					c1.64-99.47,41.5-187.9,112.25-249.01l1.03,1.2l-1.03-1.2c96.76-83.57,195.08-126.8,292.22-128.46
					c92.1-1.58,182.66,34.09,269.04,106.03c101.07,84.16,149.96,180.2,145.32,285.45c-2.03,46.04-14.44,93.98-36.89,142.48
					c-20.44,44.16-49.31,89.08-85.81,133.51c-38.55,46.94-79.88,83.79-122.83,109.55c-43.85,26.3-89.81,41.27-136.61,44.5
					C2288.51,1593.54,2281.92,1593.77,2275.32,1593.77z M2268.71,774.69c-1.94,0-3.87,0.02-5.81,0.05
					c-96.38,1.65-194.02,44.62-290.2,127.69c-70.06,60.51-109.53,148.11-111.15,246.66c-1.9,115.27,48.05,231.23,133.61,310.19
					c101.23,93.42,202.05,137.38,299.71,130.64c46.3-3.2,91.79-18.02,135.2-44.05c42.64-25.57,83.69-62.19,122.01-108.84
					c36.33-44.23,65.06-88.92,85.38-132.83c22.28-48.13,34.59-95.66,36.6-141.29c4.59-104.21-43.92-199.38-144.19-282.88
					C2445.9,810.12,2358.06,774.69,2268.71,774.69z"/>
				<path class="st14" d="M2275.32,1595.88L2275.32,1595.88c-92.86,0-188.33-44.65-283.75-132.71
					c-86.65-79.97-137.23-197.41-135.31-314.16c1.63-99.33,41.17-187.73,111.39-249.18l0,0l3.2-2.77l0,0
					c96.63-83,194.85-125.93,291.96-127.6c92.63-1.61,183.64,34.24,270.43,106.52c101.6,84.61,150.75,181.22,146.08,287.17
					c-2.04,46.32-14.52,94.52-37.08,143.27c-20.51,44.32-49.48,89.39-86.09,133.97c-38.71,47.12-80.21,84.14-123.37,110.02
					c-44.14,26.47-90.42,41.54-137.56,44.79C2288.64,1595.65,2281.94,1595.88,2275.32,1595.88L2275.32,1595.88z M2268.71,776.81
					c-1.93,0-3.84,0.02-5.77,0.05c-95.87,1.65-193.06,44.43-288.86,127.18c-69.59,60.11-108.81,147.15-110.42,245.1
					c-1.89,114.68,47.8,230.04,132.93,308.6c94.09,86.84,187.76,130.75,278.74,130.75c6.48,0,12.94-0.22,19.39-0.67
					c45.96-3.17,91.14-17.89,134.26-43.76c42.43-25.45,83.29-61.91,121.46-108.37c36.22-44.09,64.85-88.63,85.1-132.38
					c22.16-47.87,34.41-95.14,36.41-140.49c4.56-103.51-43.7-198.11-143.43-281.16C2444.96,812.09,2357.55,776.81,2268.71,776.81z"
					/>
			</g>
		</g>
		<g>
			<g>
				<path class="st14" d="M2161.34,1586.98c-36.23,0-70.79-6.04-103.14-18.05c-92.6-34.38-167-116.54-221.13-244.2
					c-45.8-108.01-43.54-235.22,6.04-340.28c42.45-89.97,115.2-154.14,204.83-180.69c122.59-36.31,229.98-35.21,319.19,3.27
					c84.61,36.5,152.41,106.29,201.51,207.41c57.44,118.31,62.45,225.96,14.88,319.97c-20.81,41.12-51.86,79.69-92.29,114.64
					c-36.81,31.82-81.62,60.87-133.18,86.33c-54.46,26.9-107.29,43.47-157.04,49.25C2187.59,1586.2,2174.36,1586.98,2161.34,1586.98
					z M2048.38,805.28l0.45,1.52c-88.76,26.29-160.8,89.86-202.87,179c-49.2,104.26-51.43,230.5-5.98,337.69
					c53.77,126.82,127.56,208.4,219.32,242.47c43.51,16.15,91.06,21.38,141.35,15.53c49.38-5.74,101.87-22.21,156-48.94
					c51.32-25.34,95.9-54.24,132.51-85.89c40.12-34.68,70.92-72.93,91.54-113.68c47.1-93.07,42.08-199.78-14.91-317.15
					c-48.76-100.43-116.02-169.7-199.92-205.89c-88.51-38.18-195.18-39.24-317.04-3.14L2048.38,805.28z"/>
				<path class="st14" d="M2161.34,1589.1c-36.44,0-71.39-6.12-103.88-18.18c-93.17-34.59-167.98-117.15-222.35-245.36
					c-46.03-108.56-43.76-236.41,6.07-342.01c42.71-90.52,115.92-155.09,206.14-181.81c123.08-36.46,230.96-35.33,320.63,3.36
					c85.09,36.71,153.25,106.84,202.58,208.43c57.75,118.94,62.75,227.22,14.87,321.85c-20.93,41.37-52.15,80.16-92.79,115.29
					c-36.95,31.94-81.91,61.08-133.62,86.62c-54.68,27-107.75,43.64-157.73,49.46C2187.82,1588.31,2174.39,1589.1,2161.34,1589.1z
					 M2049.43,808.83c-88.17,26.12-159.75,89.29-201.55,177.88c-48.94,103.72-51.17,229.32-5.95,335.96
					c53.54,126.26,126.92,207.45,218.11,241.31c43.19,16.04,90.42,21.22,140.37,15.41c49.14-5.71,101.39-22.11,155.31-48.74
					c51.16-25.26,95.59-54.06,132.06-85.59c39.91-34.5,70.54-72.53,91.03-113.03c46.78-92.45,41.76-198.52-14.92-315.27
					c-48.53-99.96-115.43-168.89-198.85-204.87C2276.99,773.9,2170.8,772.87,2049.43,808.83z"/>
			</g>
		</g>
		<g>
			<g>
				<path class="st14" d="M2262.3,1553.19c-113.32,0-209.24-59.49-283.98-143.2c-64-71.68-110-151.05-99.81-240.78
					c13.93-122.72,55.41-217.81,123.27-282.63c64.37-61.49,152-95.47,260.45-101c126.88-6.47,224.5,29.67,290.17,107.42
					c28.72,34.01,51.32,76.17,67.16,125.31c14.42,44.74,23.35,95.54,26.56,150.99c3.38,58.57-1.8,111.81-15.42,158.23
					c-13.9,47.39-36.72,88.13-67.83,121.09C2497.37,1518,2396.24,1553.19,2262.3,1553.19z M1880.03,1169.38l1.52,0.17
					c-10.09,88.85,38.46,168.15,101.87,239.17c74.17,83.07,166.42,141.4,278.89,141.4c133.06,0,233.44-34.86,298.33-103.62
					c30.77-32.6,53.35-72.92,67.11-119.85c13.51-46.08,18.66-98.97,15.3-157.2c-3.19-55.19-12.07-105.74-26.41-150.23
					c-15.72-48.75-38.12-90.57-66.58-124.27c-65.01-76.98-161.8-112.76-287.67-106.34c-107.7,5.49-194.67,39.19-258.49,100.15
					c-67.33,64.32-108.5,158.78-122.34,280.77L1880.03,1169.38z"/>
				<path class="st14" d="M2262.3,1555.3c-54.16,0-107.14-13.61-157.46-40.46c-45.29-24.16-88.39-58.97-128.1-103.45
					c-35.83-40.12-61.37-77.46-78.08-114.15c-19.84-43.55-27.12-85.51-22.26-128.27c13.99-123.22,55.68-218.75,123.91-283.92
					c64.75-61.85,152.83-96.02,261.8-101.58c127.58-6.49,225.78,29.89,291.89,108.17c28.9,34.22,51.63,76.62,67.55,126.02
					c14.47,44.91,23.44,95.88,26.66,151.52c3.4,58.82-1.82,112.3-15.5,158.95c-13.99,47.72-36.98,88.75-68.32,121.94
					C2498.49,1519.9,2396.85,1555.3,2262.3,1555.3z M1883.65,1169.79c-8.52,75.07,23.68,150.54,101.35,237.52
					c83.36,93.36,176.66,140.69,277.31,140.69c132.46,0,232.31-34.64,296.8-102.95c30.54-32.35,52.96-72.39,66.62-118.99
					c13.45-45.85,18.57-98.5,15.22-156.48c-3.18-55.02-12.03-105.38-26.32-149.7c-15.63-48.49-37.9-90.06-66.18-123.55
					c-64.56-76.45-160.76-111.98-285.95-105.59c-107.17,5.46-193.69,38.96-257.13,99.57
					C1938.39,954.28,1897.44,1048.31,1883.65,1169.79z M1904.54,1299.83c16.55,34.91,41.24,70.53,75.37,108.75
					c14.55,16.29,29.55,31.27,44.94,44.9c-14.61-13.14-28.95-27.59-43-43.33C1947.32,1371.48,1921.69,1335.03,1904.54,1299.83z"/>
			</g>
		</g>
	</g>
	<g>
		<path class="st7" d="M2187.23,1340.36c-0.19,0.33-0.38,0.68-0.58,1.02c-4.6,7.99-15.15,27.58-26.77,49.01
			c-5.5,10.17-11.25,20.75-16.71,30.71c-9.41,17.19-17.96,32.5-22.95,40.58c-5.08,8.22-8.82,14-10.33,16.32
			c-0.01,0.01-0.01,0.01-0.01,0.01c-0.45,0.71-0.55,1.55-0.49,2.39c0.53,7.25,0.38,14.46-0.33,21.55
			c-7.01,69.72-54.02,107.09-54.02,107.09l-13.98,2.07c0,0,19.78-73.29,25.61-114.72c0.98-7.02,1.41-12.71,1.07-16.43
			c-1.03-10.79,0.88-26.64,4.51-44.84c6.46-32.33,18.29-72.02,28.58-103.79c0.65-2.03,20.31-73.14,20.31-73.14
			c16.5,14.42,76.68,20.37,76.68,20.37S2208.03,1303.36,2187.23,1340.36z"/>
		<path class="st4" d="M2011.72,1628.79h58.34c0,0,1.4-8.89-1.65-15.64c-2.92-6.47-7.08-6.68-0.53-16.83
			c-3.71,3.82-15.62,5.4-24.06,4.26c-1.03,1.68-6.66,12.92-10.12,15.4C2029.89,1618.72,2012.89,1617.74,2011.72,1628.79z"/>
		<path class="st3" d="M2187.23,1340.36c-0.19,0.33-0.38,0.68-0.58,1.02c-4.6,7.99-29.47,53.92-41.08,75.35
			c13.46-55.39,4.1-110.78,4.1-110.78L2187.23,1340.36z"/>
		<path class="st19" d="M1962.04,1066.76c0,0-2.31-25.17,25.82-25.17c0,0-8.52,2.31-12.93,6.94c0,0,17.94-10.53,37.46,5.65
			c19.52,16.18,7.39,56.77,13.33,64.48c5.94,7.71,29.06,9.25,26.23,34.17c-2.83,24.92-73.38,56.13-68.84,76.74
			c0,0-27.65-40.64-7.88-59.19c0,0-9.64,9.08-10.62,19.87c0,0-2.61-21.06,10.79-27.8c11.86-5.96,21.58-27.77,20.55-31.67
			C1994.92,1126.87,1962.04,1066.76,1962.04,1066.76z"/>
		<path class="st2" d="M2001.74,1172.47c0,0-40.02,100.98-48.64,97.24c-8.62-3.74-59.45-19.88-59.45-19.88s1.81,14.4,2.63,15.05
			c7.44,5.9,44.86,34.75,67.27,36.22c24.89,1.63,58.59-71.69,58.59-71.69L2001.74,1172.47z"/>
		<path class="st19" d="M1970,1063.22c-0.38-1.53,33.32,15.23,35.03,17.13c15.81,17.53,11.3,40.42,2.26,40.63
			c-5.8,0.14-4.68,9.79-4.68,9.79l-64.62-27.34C1937.99,1103.43,1945.77,1058.06,1970,1063.22z"/>
		<path class="st6" d="M1991.72,1174.57c0,0-8.61,8.91-8.61,35.59c0,0,11.86,18.72,42.61,23.46
			C2025.72,1233.62,1999.28,1174.56,1991.72,1174.57z"/>
		<path class="st7" d="M2141.75,1282.89l-0.2-10.91c21.74,2.74,74.96-25.98,74.96-25.98s22.75,15.13,25.86,58.33
			c1.52,21.09,11.13,110.27,12.2,136.89c0.39,9.65,0.52,16.54,0.56,19.29c0,0.01,0,0.02,0,0.03c0.01,0.84,0.41,1.58,0.92,2.25
			c4.5,5.72,8.4,11.78,11.78,18.06c33.17,61.72,15.83,145.59,15.83,145.59l-7.7-1.96c0,0-28.05-86.94-46.38-124.55
			c-3.11-6.38-5.94-11.34-8.3-14.21c-6.89-8.37-14.16-22.59-21.33-39.7C2186.39,1413.67,2141.75,1282.89,2141.75,1282.89z"/>
		<path class="st4" d="M2237.26,1628.79h58.34c0,0,1.4-8.89-1.65-15.64c-2.92-6.47-7.49-9.42-6.4-17.25
			c-3.71,3.82-9.75,8.09-18.18,6.96c-1.03,1.68-6.67,10.64-10.12,13.12C2255.43,1618.72,2238.43,1617.74,2237.26,1628.79z"/>
		<path class="st6" d="M2029.66,1246.15c7.84,1.34-1.28,7.57,9.5,8.74c15.34,1.67,31.18,2.82,39.48,6.13
			c3.03,1.21,5.05,2.7,5.68,4.6c3.6,10.82,19.45,27.5,19.45,27.5c101.59-4.62,112.75-47.12,112.75-47.12
			c-65.94-64.04-126.56-101.8-172.85-106.8c-7.92-0.86-17.94,4.17-25.08,7.35c-16.21,7.22-26.87,28.02-26.87,28.02
			S1999.88,1241.07,2029.66,1246.15z"/>
		<path class="st5" d="M2039.16,1254.88c15.34,1.67,31.18,2.82,39.48,6.13c3.39-50.67-20.52-88.78-20.52-88.78
			S2042.52,1235.71,2039.16,1254.88z"/>
		<path class="st2" d="M2025.92,1163.66c0,0,38.58-2.11,45.43,22.11c6.85,24.22-12.86,120.9-17.11,130.88
			c-7.74,18.17-45.39,70.02-45.39,70.02l-10.38-5.33c0,0,21.65-78.09,27.25-85.93C2034.52,1283.1,2014.38,1174.2,2025.92,1163.66z"
			/>
		<path class="st2" d="M2001.21,1374.09c0,0-3.22,11.38-9.51,17.67c-2.9,2.9-5.48,11.61-5.61,16.11c0,0-0.47,3.72,1.15,3.35
			c1.62-0.36,3.43-8.42,6.32-8.02c0,0-1.54,9-3.07,11.54c-1.53,2.53-2.43,10.38-0.26,11.33c5.26,2.32,13.04-7.6,17.67-13.83
			c4.63-6.22,0.07-31.47,0.07-31.47L2001.21,1374.09z"/>
		<path class="st6" d="M2078.97,1218.16c-0.1,0.57-36.51,6.7-59.28-4.86c0,0-19.02-59.6,8.16-56.75
			c27.19,2.85,43.28,11.41,43.97,24.43C2072.5,1194,2078.97,1218.16,2078.97,1218.16z"/>
		<path class="st2" d="M2018.59,1146.55c0,0-10.73,40.02-26.87,28.02c0.45-1.93-2.36-7.55-5.68-13.25
			c-4.24-7.29-9.29-14.74-9.29-14.74l21.84-19.13l1.3-1.14C2006.57,1137.98,2013.13,1142.57,2018.59,1146.55z"/>
		<path class="st20" d="M1976.74,1146.58c0,0,5.05,7.43,9.29,14.73c13.57-8.37,13.59-25.17,12.54-33.87L1976.74,1146.58z"/>
		<path class="st2" d="M1976.14,1156.17c0,0,32.95-18.34,21.22-38.68c-11.74-20.35-15.38-36.42-36.92-25.57
			s-21.11,20.95-18.85,28.69C1943.86,1128.36,1967.26,1160.42,1976.14,1156.17z"/>
		<path class="st19" d="M1936.02,1108.75c1.51-9.03,6.1-9.9,9.3-9.29c12.17-20.13,32.05-12.27,32.05-12.27
			c10.62,13.33,25.97,15.6,25.97,15.6s-3.83,7.12-19.58,11.52c-4.81,1.35-10.28,0.53-15.54-1.24c10.93,6.09,22.36,8.43,22.36,8.43
			c-20.76,1.9-40.52-17.08-42.57-19.11c-0.96,2.94-2.64,9.1-1.63,13.6c1.37,6.12,6.8,17.2,3.48,18.63
			C1949.87,1134.61,1933.76,1122.29,1936.02,1108.75z"/>
	</g>
	<path class="st2" d="M1900.76,1254.42c0,0-5.89,2.61-11.88-3.49c-3.06-3.12-8.54-4.81-5.71-6.48c2.83-1.67,10.38,1.76,12.16,2.37
		S1900.76,1254.42,1900.76,1254.42z"/>
	<g>
		<path class="st13" d="M2121.42,585.21c17.7-68.79,47.62-128.62,128.62-128.62c71.03,0,135.46,62.57,130.78,139.69
			c-4.31,70.9-65.88,130.96-141.25,122.52C2168.97,710.89,2101.15,663.98,2121.42,585.21z"/>
		<g class="st15">
			<path class="st11" d="M2230.93,672.73c0-2.5,0.42-4.82,1.27-6.97c0.85-2.14,2.05-4.02,3.62-5.63c1.56-1.61,3.48-2.86,5.76-3.75
				c2.28-0.89,4.89-1.34,7.83-1.34c2.95,0,5.56,0.45,7.84,1.34c2.28,0.89,4.2,2.14,5.76,3.75c1.56,1.61,2.77,3.48,3.62,5.63
				c0.85,2.14,1.27,4.47,1.27,6.97c0,4.91-1.61,9.02-4.82,12.32c-3.21,3.3-7.77,4.96-13.66,4.96c-5.89,0-10.45-1.65-13.66-4.96
				C2232.54,681.75,2230.93,677.64,2230.93,672.73z M2262.94,630.67h-28l-3.08-137.57h34.29L2262.94,630.67z"/>
		</g>
	</g>
	<g>
		<path class="st13" d="M1278.52,727.23c39.74-154.46,106.93-288.79,288.79-288.79c159.5,0,304.16,140.5,293.64,313.65
			c-9.67,159.2-147.92,294.05-317.15,275.1C1385.29,1009.43,1233.01,904.09,1278.52,727.23z"/>
		<g>
			<path class="st17" d="M1689.9,709.46c0.18,29.68-10.25,56.93-27.69,78.18c-15.03,18.3-23.5,41.11-23.5,64.79v34.14
				c0,9.65-3.53,18.54-9.35,25.4c-7.24,8.54-18.03,13.99-30.04,13.99h-63.04c-21.67,0-39.39-17.73-39.39-39.39V852.5
				c0-23.64-8.34-46.46-23.38-64.71c-17.37-21.09-27.81-48.12-27.81-77.59c0-58.29,40.85-107.05,95.49-119.19
				c1.55-0.35,3.12-0.66,4.69-0.94c0.84-0.15,1.68-0.3,2.52-0.43c6.32-1.02,12.8-1.54,19.4-1.54
				C1635.14,588.09,1689.5,642.12,1689.9,709.46z"/>
			<path class="st3" d="M1599.09,925.97l-0.14,1.05l-1.73,13.28l-0.46,3.5v0.03l-0.46,3.52l-1.73,13.27l-0.46,3.5l-0.01,0.03
				l-0.46,3.53l-0.25,1.94c-0.88,6.73-8.58,11.88-17.78,11.88h-20.75c-2.19,0-4.29-0.29-6.24-0.82h-0.01
				c-1.75-0.48-3.38-1.16-4.83-2.01l-0.11-0.07c-1.18-0.69-2.23-1.5-3.14-2.39c-1.86-1.83-3.09-4.04-3.44-6.46l-0.73-5.15
				l-0.47-3.24v-0.01l-0.01-0.07v-0.01l-0.46-3.17l-1.76-12.31l-0.46-3.23l-0.01-0.07l-0.46-3.19l-1.91-13.33H1599.09z"/>
			<g>
				<path class="st7" d="M1590.85,925.97h-0.14h-11.58c-18.92,5.47-37.69,10.88-46.38,13.33l0.46,3.19l0.01,0.07l0.46,3.23
					c7.04-1.95,23.95-6.79,65.27-18.77l0.14-1.05H1590.85z"/>
				<path class="st7" d="M1535.89,961.26L1535.89,961.26l0.01,0.08v0.01l0.47,3.24c8.14-2.29,24.94-7.11,59.93-17.25l0.46-3.52
					v-0.03l0.46-3.5c-22.11,6.4-48.87,14.13-61.78,17.8L1535.89,961.26z"/>
				<path class="st7" d="M1543.68,978.59l0.11,0.07c1.45,0.85,3.08,1.53,4.83,2.01h0.01c9.6-2.75,23.84-6.86,45.03-13l0.46-3.53
					l0.01-0.03l0.46-3.5c-18.92,5.48-40.63,11.75-54.04,15.58C1541.45,977.09,1542.5,977.9,1543.68,978.59z"/>
			</g>
			<g>
				<g>
					
						<rect x="1529.91" y="768.64" transform="matrix(0.986 -0.167 0.167 0.986 -120.0826 267.9017)" class="st3" width="5.52" height="158.44"/>
				</g>
				<g>
					
						<rect x="1523.14" y="846.33" transform="matrix(0.1799 -0.9837 0.9837 0.1799 477.9258 2271.4607)" class="st3" width="156.31" height="5.52"/>
				</g>
				<g>
					<path class="st3" d="M1582.36,798.09c-0.71,0-1.5-0.09-2.38-0.29c-1.48-0.34-2.41-1.36-2.71-2.96
						c-0.63-3.45,2.08-9.78,5.88-15.15c-1.99-3.47-4.63-6.33-7.41-7.17c-4.1-1.24-10.39,2.54-14.77,7.38
						c0.8,1.14,1.52,2.32,2.15,3.51c2.24,4.24,3.86,9.66,1.65,12.16c-0.82,0.93-2.49,1.77-5.8,0.52c-4.14-1.56-5.62-5.07-4.08-9.62
						c0.76-2.23,2.15-4.55,3.92-6.7c-3.39-4.43-7.93-7.79-12.4-7.23c-2.39,0.3-4.43,1.14-6.14,2.32c2.86,5.32,3.52,12.07,1.53,15.69
						c-1.35,2.47-3.71,3.25-6.64,2.2c-2.11-0.75-3.21-3.65-2.8-7.39c0.41-3.83,2.33-8.02,5.73-10.93c-0.89-1.38-1.95-2.61-3.18-3.56
						c-7.7-5.98-14.06,0.44-14.33,0.71l-1.2-1.16c0.08-0.08,7.69-7.75,16.56-0.87c1.34,1.04,2.51,2.37,3.48,3.87
						c1.89-1.28,4.15-2.2,6.78-2.53c5.01-0.63,10.01,2.9,13.72,7.61c4.77-5.18,11.56-9.01,16.3-7.58c2.99,0.91,5.82,3.79,7.98,7.35
						c2.01-2.61,4.25-4.88,6.43-6.32c3.49-2.31,5.76-1.78,7.05-0.93c1.33,0.87,2.45,2.04,3.39,3.39c1.05-0.83,2.15-1.54,3.24-2.09
						c4.04-2.01,7.75-1.86,10.45,0.42l-1.08,1.28c-2.91-2.46-6.65-1.18-8.62-0.2c-1.08,0.54-2.13,1.23-3.11,2.01
						c2.69,4.85,3.21,11.17,1.67,14.24c-0.97,1.93-2.7,2.6-4.73,1.85c-3.65-1.34-4.54-3.85-4.65-5.73
						c-0.2-3.58,2.29-7.67,5.53-10.67c-0.84-1.25-1.84-2.33-3.01-3.1c-1.58-1.04-3.71-0.07-5.21,0.93
						c-2.17,1.44-4.45,3.81-6.46,6.49c2.51,4.77,3.81,10.33,2.86,13.91C1587.49,795.49,1586.16,798.08,1582.36,798.09z
						 M1584.02,781.32c-3.31,4.82-5.64,10.28-5.1,13.21c0.17,0.93,0.63,1.45,1.43,1.63c3.27,0.74,5.29-0.21,5.98-2.84
						C1587.13,790.29,1586.08,785.54,1584.02,781.32z M1559.85,781.2c-1.53,1.91-2.73,3.92-3.37,5.81
						c-1.27,3.74-0.23,6.26,3.09,7.52c1.34,0.5,3.11,0.9,3.96-0.06c1.31-1.49,0.54-5.72-1.87-10.28
						C1561.11,783.18,1560.51,782.17,1559.85,781.2z M1538.95,775.91c-2.92,2.6-4.56,6.28-4.92,9.63c-0.31,2.85,0.39,5.17,1.7,5.63
						c2.12,0.75,3.68,0.27,4.62-1.43C1542.05,786.64,1541.43,780.67,1538.95,775.91z M1600.64,776.97c-2.9,2.79-4.88,6.36-4.72,9.12
						c0.11,2,1.31,3.43,3.55,4.25c1.23,0.45,2.08,0.12,2.66-1.04C1603.42,786.74,1602.87,781.25,1600.64,776.97z"/>
				</g>
			</g>
			<path class="st21" d="M1630.82,635.05c10.04,9.46,8.78,26.86-4.13,30.73c-9.73,2.92-24.25-0.98-31.43-13.4
				c-7.17-12.42-3.87-22.64,4.94-27.72C1609,619.57,1620.38,625.21,1630.82,635.05z"/>
		</g>
		<g>
			<path class="st21" d="M1565.11,565.13h-1.17c-2.14,0-3.88-1.75-3.88-3.88v-48.11c0-2.14,1.75-3.88,3.88-3.88h1.17
				c2.14,0,3.88,1.75,3.88,3.88v48.11C1569,563.38,1567.25,565.13,1565.11,565.13z"/>
			<g>
				<path class="st21" d="M1710.66,621.08l-0.64-1.11c-1.05-1.82-0.42-4.18,1.4-5.23l23.59-13.62c1.82-1.05,4.18-0.42,5.23,1.4
					l0.64,1.11c1.05,1.82,0.42,4.18-1.4,5.23l-23.59,13.62C1714.06,623.53,1711.71,622.9,1710.66,621.08z"/>
				<path class="st21" d="M1726.77,688.36L1726.77,688.36c0-2.46,2.01-4.47,4.47-4.47h59.66c2.46,0,4.47,2.01,4.47,4.47l0,0
					c0,2.46-2.01,4.47-4.47,4.47h-59.66C1728.78,692.83,1726.77,690.82,1726.77,688.36z"/>
				<path class="st21" d="M1643.39,585.3L1643.39,585.3c-2.26-0.96-3.32-3.6-2.36-5.86l31.67-74.24c0.96-2.26,3.6-3.32,5.87-2.36
					l0,0c2.26,0.96,3.32,3.6,2.36,5.86l-31.67,74.24C1648.29,585.2,1645.65,586.26,1643.39,585.3z"/>
			</g>
			<g>
				<path class="st21" d="M1424.38,621.08l0.64-1.11c1.05-1.82,0.42-4.18-1.4-5.23l-23.59-13.62c-1.82-1.05-4.18-0.42-5.23,1.4
					l-0.64,1.11c-1.05,1.82-0.42,4.18,1.4,5.23l23.59,13.62C1420.97,623.53,1423.33,622.9,1424.38,621.08z"/>
				<path class="st21" d="M1408.26,688.36L1408.26,688.36c0-2.46-2.01-4.47-4.47-4.47h-59.66c-2.46,0-4.47,2.01-4.47,4.47l0,0
					c0,2.46,2.01,4.47,4.47,4.47h59.66C1406.25,692.83,1408.26,690.82,1408.26,688.36z"/>
				<path class="st21" d="M1491.64,585.3L1491.64,585.3c2.26-0.96,3.32-3.6,2.36-5.86l-31.67-74.24c-0.96-2.26-3.6-3.32-5.86-2.36
					l0,0c-2.26,0.96-3.32,3.6-2.36,5.86l31.67,74.24C1486.74,585.2,1489.38,586.26,1491.64,585.3z"/>
			</g>
		</g>
	</g>
	<g>
		<path class="st22" d="M1449.75,938.9c0.06-1.69,1.37-19.89,29.1-20.84c0,0-13.63,1.63-15.99,7.62c0,0,9.28-7.41,16.84-5.02
			c7.56,2.38,12,15.63,12.05,19.98c0.04,4.36-4.16,18.4-8.95,19.6c-1.82,0.45-3.91,0.33-5.81,0.01c1.28,1.99,2.53,4.19,3.72,6.65
			c11.06,22.71-0.35,44.91-9.71,42.45c-6.01-1.57-7.71,8.68-7.71,8.68l-58.36-47.25C1404.92,970.77,1426.36,926.41,1449.75,938.9z"
			/>
		<path class="st6" d="M1429.43,1607.98l12.4,4.62c0,0,53.84-74.68,60.47-140.38c1.18-11.73,0.79-23.1-1.77-33.59
			c0,0,0.53-3.01,1.45-8.32c0.43-2.48,0.95-5.46,1.55-8.89c1.75-10.03,4.16-23.75,6.91-39.38c6.34-35.96,14.54-81.93,20.92-115.72
			l-3.34-1.07l-36.14-11.66l-7.47-23.72l-26.91-7.08c0,0-6.01,11.76-11.39,67.31c-0.99,7.29-1.89,15.32-2.57,24.04
			c-2.09,26.6-2.25,59.59,2.56,97.31c1.23,9.66,2.79,19.62,4.73,29.87c1.42,7.51,1.63,17.74,1.03,29.49
			C1449.14,1524.5,1429.43,1607.98,1429.43,1607.98z"/>
		<path class="st5" d="M1443.54,1314.13l58.44,116.17c0.43-2.48,0.95-5.46,1.55-8.89c1.75-10.03,4.16-23.75,6.91-39.38
			c6.34-35.96,14.54-81.93,20.92-115.72l-3.34-1.07l-36.14-11.66l-7.47-23.72l-34.95-19.38c0,0-0.01,5.41-3.04,64.51
			C1445.42,1282.28,1444.21,1305.41,1443.54,1314.13z"/>
		<path class="st6" d="M1469.24,1237.69l1.35-11.6c22.66,6.02,85.85-22.13,85.85-22.13s19.33,24.61,16.45,70.87
			c-1.41,22.58-3.98,118.53-6.66,146.93c-0.97,10.29-1.82,17.61-2.17,20.54c-0.01,0.01-0.01,0.02-0.01,0.03
			c-0.11,0.89,0.21,1.74,0.66,2.51c3.95,6.71,7.22,13.69,9.91,20.84c26.35,70.21-4.06,156.67-4.06,156.67l-7.89-3.18
			c0,0-17.3-96.22-31.36-138.73c-2.39-7.21-4.67-12.88-6.77-16.26c-6.11-9.87-11.79-25.99-16.93-45.16
			c-9.73-36.25-17.56-83.4-22.78-119.8C1480.39,1268.38,1469.24,1237.69,1469.24,1237.69z"/>
		<path class="st1" d="M1308.43,1195.84l-1.76,13.34c0,0,8.03-1.07,9.35-1.16c4.13-0.28,16.34-1.07,27.69-2.29
			c17.07-1.69,29.45-2.08,37.52-7.05c12.29-7.5,32.46-30.49,45.59-53.47c0.38-0.56,0.66-1.12,0.94-1.69
			c6.85-12.2,11.63-24.3,12.01-33.96c0.28-5.91-0.38-10.98-1.59-15.38c-1.59-5.82-4.22-10.41-6.94-13.88
			c-0.38-0.56-0.75-1.12-1.31-1.59c-4.5-5.35-8.91-7.6-8.91-7.6c-2.25-0.94-9.73,8.13-12.26,10.85l-2.12,6.29
			c-2.06,2.16-24.73,75.01-34.95,86.36c-4.41,4.88-24.95,12.54-43.66,17.73C1315.86,1195.68,1308.43,1195.84,1308.43,1195.84z"/>
		<path class="st2" d="M1425.95,1096.98c7.11,3.3,15.71,5.55,26.1,6.11c38.96,2.14,47.81-32.02,49.42-54.69
			c-5.62-2.03-10.54-1.84-13.37-1.69c-2.26,0.12-4.6,0.34-6.68,0.57c-0.98,0.11-1.97-0.16-2.75-0.77
			c-4.91-3.85-12.38-15.51-16.87-33.89l-1.68,0.78l-28.12,13.22c0,0,2.99,9.15,5.19,17.9c0.95,3.79,1.76,7.52,2.11,10.4
			c0.33,2.72-1.21,5.31-3.73,6.39c0,0,0,0,0,0s0,0.01-0.01,0.03C1435.28,1062.06,1429.17,1077.64,1425.95,1096.98z"/>
		<path class="st7" d="M1564.58,1216.63c-0.32,14.42-101.81,27.19-119.27,17.52c0,0-4.53-21.85-10.3-46.4
			c-1.74-7.39-3.59-15.01-5.45-22.36c-4.39-17.28-8.91-33.04-12.38-40.53c-0.36-0.78-0.68-1.53-0.97-2.32
			c-7.78-20.62,6.78-42.66-3.27-49.18c0,0,5.96-5.49,22.64-12.04c0,0,0,0.01-0.01,0.03c-0.26,0.97-1.75,14.66,1.11,20.01
			c5.64,10.58,27.69,5.05,37.74-8.01c5.9-7.64,10.46-15.37,12.53-22.6c0.47-1.63,1.15-4.04,1.15-4.04s18.6-2.52,29.04,1.71
			c0,0-4.13,8.96-5.64,18.85c-0.15,0.94-0.26,1.88-0.36,2.83c-0.2,1.99-0.26,3.99-0.15,5.93c0.15,2.57,1.48,4.85,3.59,7.08
			c1.93,2.04,4.54,4.05,7.49,6.21c1.94,1.4,4.01,2.86,6.15,4.46c0.19,11.64-0.63,30.79,1.52,51.22c0.54,5.19,2.27,10.14,4.97,14.53
			c1.08,1.76,2.31,3.41,3.68,4.96C1549.39,1176.79,1564.95,1214.95,1564.58,1216.63z"/>
		<path class="st20" d="M1432,1026.62c0,0,2.99,9.14,5.19,17.9c16.43-4.58,21.42-21.86,22.93-31.12L1432,1026.62z"/>
		<path class="st2" d="M1428.54,1036.3c0,0,39.32-9.1,33.27-33.5c-6.04-24.4-5.04-42-30.4-37.23
			c-25.36,4.78-27.91,15.29-27.88,23.93C1403.58,998.14,1418.15,1038.04,1428.54,1036.3z"/>
		<path class="st22" d="M1401.33,975.65c4.23-8.84,9.2-8.37,12.31-6.8c18.47-17.09,36.6-3.13,36.6-3.13
			c6.97,16.85,22.09,23.73,22.09,23.73s-6.04,6.18-23.55,6.05c-5.35-0.04-10.72-2.5-15.62-5.88c9.44,9.5,20.5,15.29,20.5,15.29
			c-21.91-4.19-36.61-29.56-38.12-32.26c-1.86,2.74-5.41,8.58-5.71,13.51c-0.41,6.7,1.9,19.7-1.94,20.19
			C1407.91,1006.36,1394.99,988.92,1401.33,975.65z"/>
		<path class="st7" d="M1412.93,1073.35c0,0-3.49,2.01-9.87,21.5c0,0,7.31,9.08,16.22,8.23
			C1419.28,1103.09,1420.47,1075.58,1412.93,1073.35z"/>
		<path class="st4" d="M1524.69,1628.79h62.44c0,0,1.5-9.52-1.76-16.73c-3.12-6.93-8.02-10.08-6.85-18.46
			c-3.97,4.08-10.43,8.66-19.46,7.45c-1.11,1.79-7.14,11.39-10.83,14.04C1544.14,1618.01,1525.95,1616.97,1524.69,1628.79z"/>
		<path class="st4" d="M1390.63,1628.79h62.44c0,0,2.33-9.96-1.77-16.73c-3.63-6-2.24-9.41,0.45-14.37
			c-2.83,1.16-6.49,2.21-10.52,1.98c-3.11-0.18-6.4-1.59-9.29-3.27c-2.69,3.06-14.19,16.1-17.79,18.69
			C1410.08,1618.01,1391.89,1616.97,1390.63,1628.79z"/>
		<path class="st2" d="M1334.24,1151.98c0,0-5.48-7.38-8.9-8.93c-3.42-1.55-6.66-11.07-8.55-8.16c-1.15,1.77,1.76,8.37,1.02,9.86
			c-0.75,1.49-8.3-1.66-9.62-3.77c-0.89-1.42-8.67-10.81-8.85-6.48c-0.18,4.33,6.62,20.95,9.97,23.06
			c3.35,2.12,16.03,4.97,16.03,4.97L1334.24,1151.98z"/>
		<path class="st3" d="M1504.41,1111.49c-14.12,34.54-68.46,77.32-68.46,77.32l-0.94-1.06c-1.74-7.39-3.59-15.01-5.45-22.36
			l57.88-53.89H1504.41z"/>
		<path class="st2" d="M1327.11,1152.68l-1.77,9.85c0,0,31.06,7.1,37.9,8.6l0.08,0.04c11.83,2.35,25.17,4.77,36.8,5.99
			c8.21,0.79,15.56,0.97,20.95,0.25c0.54-0.06,1-0.16,1.59-0.3c13.3-2.65,34.96-18.5,54.67-37.1c2.73-2.56,5.37-5.17,7.98-7.69
			c9.52-9.46,18.11-19.14,24.62-27.91c3.95-5.21,7.23-10.1,9.4-14.36c0.79-1.49,1.54-2.9,2.09-4.31c11.21-24.79,0.5-33.85,0.5-33.85
			c-0.22-0.2-0.43-0.41-0.73-0.65c-1.97-1.32-4.86-0.89-8.45,0.86c-4.51,2.16-10.2,6.46-16.53,11.91
			c-9.92,8.76-69.41,81.18-83.29,83.94C1400.88,1150.34,1327.11,1152.68,1327.11,1152.68z"/>
		<path class="st7" d="M1515.65,1047.88c0,0,12.12,3.4,13.18,16.1c1.06,12.7-0.59,52-0.59,52s-39.63-11.36-55.77-35.6
			C1472.48,1080.38,1501.58,1048.19,1515.65,1047.88z"/>
	</g>
	<path class="st23" d="M3051.85,1640.75H164.95c-2.25,0-4.09-1.84-4.09-4.09v-3.77c0-2.25,1.84-4.09,4.09-4.09h2886.9
		c2.25,0,4.09,1.84,4.09,4.09v3.77C3055.95,1638.9,3054.11,1640.75,3051.85,1640.75z"/>
</g>
</svg>
