<?xml version="1.0" encoding="utf-8"?>
<!-- Generator: Adobe Illustrator 26.0.3, SVG Export Plug-In . SVG Version: 6.00 Build 0)  -->
<svg version="1.1" xmlns="http://www.w3.org/2000/svg" xmlns:xlink="http://www.w3.org/1999/xlink" x="0px" y="0px"
	 viewBox="0 0 750 500" style="enable-background:new 0 0 750 500;" xml:space="preserve">
<style type="text/css">
	.st0{fill:#EAF3FA;}
	.st1{fill:#E0EBFF;}
	.st2{opacity:0.5;}
	.st3{fill:#FFFFFF;}
	.st4{fill:#D5DFEF;}
	.st5{fill:#EEF5FF;}
	.st6{fill:#7C9DE2;}
	.st7{opacity:0.6;}
	.st8{fill:#D0E0FA;}
	.st9{fill:#C0D1FF;}
	.st10{fill:#9EB3E8;}
	.st11{fill:#30376D;}
	.st12{fill:#2F579F;}
	.st13{fill:#162858;}
	.st14{fill:#E3B598;}
	.st15{fill:#2C4690;}
	.st16{fill:none;stroke:#FFFFFF;stroke-linecap:round;stroke-linejoin:round;stroke-miterlimit:10;}
	.st17{fill:#29458C;}
	.st18{fill:#F99746;}
	.st19{fill:none;stroke:#FFFFFF;stroke-width:2;stroke-miterlimit:10;}
	.st20{fill:#D78B73;}
	.st21{fill:#E1EAFF;}
	.st22{fill:#EBF5FF;}
	.st23{fill:#E58741;}
	.st24{opacity:0.3;}
	.st25{fill:#AEC4FF;}
	.st26{fill:#E2843D;}
	.st27{opacity:0.2;}
	.st28{fill:#3563A8;}
	.st29{fill:#D2DDF0;}
	.st30{fill:#C7D1E0;}
	.st31{fill:#FFA664;}
</style>
<g id="BACKGROUND">
	<g>
		<path class="st0" d="M75.96,386.01c0,0-51.36-99.13-1.2-144.52c21.48-19.43,41.5-41.48,53.7-68.05
			c13.81-30.07,10.36-62.89,20.43-93.88c7.06-21.73,20.7-42.5,41.36-52.25c24.86-11.73,54.18-5.47,80.54,2.33
			c31.42,9.3,61.22,15.98,93.93,9.85c22.51-4.22,43.02-14.83,65.6-18.67c34.92-5.94,72.09-1.02,104.59,12.93
			c22.55,9.68,40.52,23.65,53.38,44.64c12.33,20.11,20.5,42.9,36.19,60.85c15.45,17.68,36.91,28.44,53.25,45.13
			c17.87,18.25,26.43,46.67,31.63,71.1c4.93,23.17,6.46,47.71,1.29,70.97c-2.52,11.33-6.65,22.34-12.81,32.21
			c-3.47,5.56-16.06,24.95-23.48,24.98C674.35,383.62,75.96,386.01,75.96,386.01z"/>
		<g>
			<path class="st1" d="M324.64,65.84c-18.79-6.69-39.45,3.11-46.14,21.9c-6.69,18.79,3.11,39.45,21.9,46.14
				c18.79,6.69,39.45-3.11,46.14-21.9S343.42,72.53,324.64,65.84z M305.54,119.43c-10.81-3.85-16.45-15.74-12.6-26.55
				c3.85-10.81,15.74-16.45,26.55-12.6c10.81,3.85,16.45,15.74,12.6,26.55C328.24,117.64,316.35,123.29,305.54,119.43z"/>
			<polygon class="st1" points="333.84,77.94 309.85,69.4 318.46,49.21 339.93,56.86 			"/>
			<polygon class="st1" points="304.29,69.88 284.9,86.38 271.72,68.83 289.08,54.06 			"/>
			<polygon class="st1" points="282.53,91.43 287.13,116.48 265.34,119.11 261.23,96.7 			"/>
			<polygon class="st1" points="290.32,121.05 314.31,129.6 305.7,149.78 284.23,142.14 			"/>
			<polygon class="st1" points="319.87,129.31 339.07,112.59 352.45,129.99 335.26,144.95 			"/>
			<polygon class="st1" points="341.62,107.56 337.03,82.52 358.82,79.88 362.93,102.3 			"/>
		</g>
		<g class="st2">
			
				<rect x="452.05" y="47.76" transform="matrix(0.9854 0.17 -0.17 0.9854 24.0004 -83.8062)" class="st1" width="98.77" height="101"/>
			<path class="st3" d="M528.04,86.73c-0.93,5.36-3.54,10-7.2,13.48c-5.37,5.09-12.99,7.67-20.84,6.31
				c-7.89-1.36-14.23-6.39-17.57-13.04c-2.26-4.48-3.14-9.68-2.22-15c2.28-13.21,14.83-22.07,28.04-19.79
				C521.46,60.97,530.32,73.53,528.04,86.73z"/>
			<path class="st1" d="M520.84,100.21c-5.37,5.09-12.99,7.67-20.84,6.31c-7.89-1.36-14.23-6.39-17.57-13.04
				c5.37-5.09,12.99-7.67,20.84-6.31C511.17,88.53,517.51,93.56,520.84,100.21z"/>
			
				<ellipse transform="matrix(0.2321 -0.9727 0.9727 0.2321 311.9927 551.2077)" class="st1" cx="505.1" cy="78" rx="7.38" ry="7.38"/>
			
				<rect x="455.51" y="115.69" transform="matrix(0.9854 0.17 -0.17 0.9854 27.3281 -83.1741)" class="st3" width="87.8" height="4.64"/>
			
				<rect x="454.08" y="123.96" transform="matrix(0.9854 0.17 -0.17 0.9854 28.7123 -82.8115)" class="st3" width="87.8" height="4.64"/>
			
				<rect x="452.53" y="132.92" transform="matrix(0.9854 0.17 -0.17 0.9854 30.2143 -82.418)" class="st3" width="87.8" height="4.64"/>
		</g>
		<g class="st2">
			<g>
				<path class="st1" d="M304.78,117.58l22.56,130.39l-162.89,28.18L141.9,145.75c-0.51-2.95,1.47-5.75,4.41-6.26l152.22-26.33
					C301.47,112.66,304.27,114.63,304.78,117.58z"/>
				<path class="st4" d="M304.78,117.58l1.23,7.11l-162.89,28.18l-1.23-7.11c-0.51-2.95,1.47-5.75,4.41-6.26l152.22-26.33
					C301.47,112.66,304.27,114.63,304.78,117.58z"/>
				<g>
					<path class="st3" d="M154.52,145.23c0.27,1.55-0.77,3.02-2.32,3.29c-1.55,0.27-3.02-0.77-3.29-2.32
						c-0.27-1.55,0.77-3.02,2.32-3.29C152.78,142.64,154.25,143.68,154.52,145.23z"/>
					<path class="st3" d="M162.76,143.8c0.27,1.55-0.77,3.02-2.32,3.29c-1.55,0.27-3.02-0.77-3.29-2.32
						c-0.27-1.55,0.77-3.02,2.32-3.29S162.5,142.26,162.76,143.8z"/>
					<path class="st3" d="M171.01,142.38c0.27,1.55-0.77,3.02-2.32,3.29c-1.55,0.27-3.02-0.77-3.29-2.32
						c-0.27-1.55,0.77-3.02,2.32-3.29C169.27,139.79,170.74,140.83,171.01,142.38z"/>
				</g>
			</g>
			
				<rect x="151.28" y="146.76" transform="matrix(0.9854 -0.1705 0.1705 0.9854 -22.7049 39.6555)" class="st3" width="136.62" height="10.59"/>
			<g>
				<g>
					<path class="st3" d="M295.69,140.93c-0.6,0.1-1.21-0.03-1.72-0.37c-0.52-0.35-0.88-0.89-1-1.51c-0.12-0.62,0.01-1.25,0.36-1.77
						c0.35-0.52,0.89-0.88,1.51-1c0.62-0.12,1.25,0.01,1.77,0.36c0.52,0.35,0.88,0.89,1,1.51c0.12,0.62-0.01,1.25-0.36,1.77
						c-0.35,0.52-0.89,0.88-1.51,1C295.72,140.93,295.71,140.93,295.69,140.93z M295,136.95c-0.43,0.08-0.84,0.32-1.11,0.71
						c-0.25,0.37-0.34,0.82-0.26,1.26c0.09,0.44,0.34,0.82,0.71,1.07c0.37,0.25,0.82,0.34,1.26,0.26c0.44-0.09,0.82-0.34,1.07-0.71
						c0.25-0.37,0.34-0.82,0.26-1.26c-0.09-0.44-0.34-0.82-0.71-1.07C295.85,136.96,295.41,136.88,295,136.95z"/>
				</g>
				<g>
					<path class="st3" d="M300.28,142.15c-0.08,0.01-0.17,0-0.25-0.05l-3.12-2.1c-0.16-0.11-0.2-0.32-0.09-0.48
						c0.11-0.16,0.32-0.2,0.48-0.09l3.12,2.1c0.16,0.11,0.2,0.32,0.09,0.48C300.45,142.08,300.37,142.13,300.28,142.15z"/>
				</g>
			</g>
			<g>
				
					<rect x="153.8" y="163.76" transform="matrix(0.9854 -0.1705 0.1705 0.9854 -25.0853 41.6459)" class="st3" width="152.38" height="6.3"/>
				
					<rect x="155.59" y="174.08" transform="matrix(0.9854 -0.1705 0.1705 0.9854 -26.8184 42.1014)" class="st3" width="152.38" height="6.3"/>
				
					<rect x="157.38" y="184.4" transform="matrix(0.9854 -0.1705 0.1705 0.9854 -28.5514 42.5566)" class="st3" width="152.38" height="6.3"/>
			</g>
			<g>
				
					<rect x="166.47" y="237.64" transform="matrix(0.9854 -0.1705 0.1705 0.9854 -37.3432 44.8107)" class="st3" width="151.64" height="4.48"/>
				
					<rect x="167.74" y="244.98" transform="matrix(0.9854 -0.1705 0.1705 0.9854 -38.5741 45.1339)" class="st3" width="151.64" height="4.48"/>
				
					<rect x="169.01" y="252.31" transform="matrix(0.9854 -0.1705 0.1705 0.9854 -39.8052 45.4575)" class="st3" width="151.64" height="4.48"/>
			</g>
			
				<rect x="162.96" y="204.65" transform="matrix(0.9854 -0.1705 0.1705 0.9854 -35.4979 34.3348)" class="st3" width="38.49" height="38.49"/>
			
				<rect x="208.16" y="194.85" transform="matrix(0.9854 -0.1705 0.1705 0.9854 -32.9971 43.8536)" class="st3" width="61.47" height="38.49"/>
			
				<rect x="274.75" y="185.32" transform="matrix(0.9854 -0.1705 0.1705 0.9854 -30.5661 53.1057)" class="st3" width="38.49" height="38.49"/>
		</g>
		<g>
			<g>
				<path class="st4" d="M43.17,355.54C43.16,355.53,43.16,355.53,43.17,355.54c-0.04-0.03-0.18-0.16-0.41-0.38
					c-4.73-4.4-48.68-46.01-29.05-53.82C34.45,293.1,43.4,354.12,43.17,355.54z"/>
				<g>
					<path class="st3" d="M43.16,355.53c-0.03-0.03-0.17-0.15-0.4-0.37c-2.83-8.08-8.69-18.94-13.71-27.57
						c-7.09-12.21-14.09-22.71-14.16-22.81l0.22-0.15c0.07,0.11,7.06,10.62,14.16,22.82C34.4,336.25,40.39,347.38,43.16,355.53z"/>
				</g>
			</g>
			<g>
				<path class="st4" d="M43.47,350.67C43.48,350.66,43.48,350.66,43.47,350.67c0.04-0.02,0.18-0.1,0.41-0.24
					c4.79-2.8,49.49-29.45,34.48-39.69C62.52,299.92,43.54,349.44,43.47,350.67z"/>
				<g>
					<path class="st3" d="M43.48,350.66c0.03-0.02,0.17-0.1,0.41-0.24c3.89-6.25,10.85-14.26,16.68-20.55
						c8.25-8.91,16.09-16.4,16.16-16.48l-0.16-0.17c-0.08,0.08-7.92,7.58-16.17,16.49C54.45,336.14,47.34,344.34,43.48,350.66z"/>
				</g>
			</g>
			<g>
				<path class="st1" d="M41.57,353.08C41.58,353.08,41.58,353.08,41.57,353.08c0.03-0.04,0.12-0.19,0.28-0.46
					c3.2-5.3,32.74-55.17,12.61-57.2C33.19,293.28,40.99,351.84,41.57,353.08z"/>
				<g>
					<path class="st3" d="M41.58,353.08c0.02-0.03,0.12-0.19,0.27-0.45c0.48-8.19,3.02-19.73,5.38-29
						c3.33-13.11,7.01-24.62,7.04-24.73l-0.24-0.08c-0.04,0.12-3.71,11.64-7.04,24.74C44.58,333.02,41.99,344.83,41.58,353.08z"/>
				</g>
			</g>
			<polygon class="st1" points="62.73,346.23 62.72,346.29 62.47,350.06 60.37,381.52 60.07,385.99 29.32,385.99 29.02,381.52 
				26.92,350.06 26.67,346.29 26.66,346.23 			"/>
			<polygon class="st4" points="60.37,381.52 60.07,385.99 29.32,385.99 29.02,381.52 			"/>
			<polygon class="st5" points="62.72,346.29 62.47,350.06 26.92,350.06 26.67,346.29 			"/>
		</g>
		<g>
			<g>
				<path class="st4" d="M707.58,352.88C707.58,352.87,707.58,352.87,707.58,352.88c-0.04-0.03-0.18-0.16-0.41-0.38
					c-4.73-4.4-48.68-46.01-29.05-53.82C698.86,290.44,707.82,351.46,707.58,352.88z"/>
				<g>
					<path class="st3" d="M707.58,352.87c-0.03-0.03-0.17-0.15-0.4-0.37c-2.83-8.08-8.69-18.94-13.71-27.57
						c-7.09-12.21-14.09-22.71-14.16-22.81l0.22-0.15c0.07,0.11,7.06,10.62,14.16,22.82C698.81,333.59,704.8,344.71,707.58,352.87z"
						/>
				</g>
			</g>
			<g>
				<path class="st4" d="M707.89,348.01C707.89,348,707.89,348,707.89,348.01c0.04-0.02,0.18-0.1,0.41-0.24
					c4.79-2.8,49.49-29.45,34.48-39.69C726.94,297.26,707.96,346.78,707.89,348.01z"/>
				<g>
					<path class="st3" d="M707.89,348c0.03-0.02,0.17-0.1,0.41-0.24c3.89-6.25,10.85-14.26,16.68-20.55
						c8.25-8.91,16.09-16.4,16.16-16.48l-0.16-0.17c-0.08,0.08-7.92,7.58-16.17,16.49C718.87,333.48,711.75,341.68,707.89,348z"/>
				</g>
			</g>
			<g>
				<path class="st1" d="M705.99,350.42C706,350.42,706,350.42,705.99,350.42c0.03-0.04,0.12-0.19,0.28-0.46
					c3.2-5.3,32.74-55.17,12.61-57.2C697.61,290.62,705.41,349.18,705.99,350.42z"/>
				<g>
					<path class="st3" d="M706,350.42c0.02-0.03,0.12-0.19,0.27-0.45c0.48-8.19,3.02-19.73,5.38-29
						c3.33-13.11,7.01-24.62,7.04-24.73l-0.24-0.08c-0.04,0.12-3.71,11.64-7.04,24.74C709,330.36,706.41,342.17,706,350.42z"/>
				</g>
			</g>
			<polygon class="st1" points="727.15,343.57 727.14,343.63 726.89,347.4 724.79,378.86 724.49,383.33 693.74,383.33 
				693.44,378.86 691.33,347.4 691.08,343.63 691.08,343.57 			"/>
			<polygon class="st4" points="724.79,378.86 724.49,383.33 693.74,383.33 693.44,378.86 			"/>
			<polygon class="st5" points="727.14,343.63 726.89,347.4 691.33,347.4 691.08,343.63 			"/>
		</g>
	</g>
</g>
<g id="OBJECTS">
	<g>
		<circle class="st3" cx="485.73" cy="173.31" r="8.84"/>
	</g>
	<g>
		<g>
			<g>
				<path class="st6" d="M419.14,384.91h-98.37c23.25-8.72,26.51-42.91,26.51-42.91c0,1.75,48.14-0.35,48.14-0.35
					c0.01,0.42,0.02,0.84,0.03,1.26c0.32,8.07,2.65,15.13,5.74,21.04C408.2,377.41,419.14,384.91,419.14,384.91z"/>
				<path class="st7" d="M401.19,363.96c-12.98-9.05-54.61-16.38-54.61-16.38l48.87-4.66C395.76,350.99,398.1,358.05,401.19,363.96z
					"/>
			</g>
			<path class="st6" d="M524.79,150.46v188.08c0,5.19-4.21,9.4-9.4,9.4H224.5c-5.19,0-9.39-4.21-9.39-9.4V150.46
				c0-5.19,4.2-9.4,9.39-9.4h290.89C520.58,141.06,524.79,145.27,524.79,150.46z"/>
			<rect x="227.09" y="155.89" class="st8" width="285.71" height="164.28"/>
			<circle class="st7" cx="369.95" cy="333.63" r="8.84"/>
		</g>
		<g>
			<g>
				<polygon class="st7" points="244.08,320.2 237,141.05 244.07,141.06 				"/>
				<polygon class="st7" points="497.28,320.2 504.36,141.05 497.29,141.06 				"/>
			</g>
			<g>
				<g>
					<g>
						<path class="st9" d="M497.33,117.45V320.2H244.07V117.45c0-4.58,3.71-8.29,8.3-8.29h236.68
							C493.62,109.16,497.33,112.87,497.33,117.45z"/>
						<path class="st10" d="M497.33,117.45v11.05H244.07v-11.05c0-4.58,3.71-8.29,8.3-8.29h236.68
							C493.62,109.16,497.33,112.87,497.33,117.45z"/>
						<g>
							<path class="st3" d="M263.26,119.96c0,2.41-1.95,4.36-4.36,4.36s-4.36-1.95-4.36-4.36c0-2.41,1.95-4.36,4.36-4.36
								S263.26,117.55,263.26,119.96z"/>
							<path class="st3" d="M276.08,119.96c0,2.41-1.95,4.36-4.36,4.36c-2.41,0-4.36-1.95-4.36-4.36c0-2.41,1.95-4.36,4.36-4.36
								C274.12,115.59,276.08,117.55,276.08,119.96z"/>
							<path class="st3" d="M288.9,119.96c0,2.41-1.95,4.36-4.36,4.36s-4.36-1.95-4.36-4.36c0-2.41,1.95-4.36,4.36-4.36
								S288.9,117.55,288.9,119.96z"/>
						</g>
					</g>
					<g>
						<rect x="255.06" y="139.14" class="st3" width="209.31" height="16.22"/>
						<g>
							<g>
								<path class="st11" d="M477.5,150.33c-0.94,0-1.82-0.36-2.5-1.01c-0.7-0.67-1.09-1.57-1.11-2.54
									c-0.02-0.97,0.34-1.88,1.01-2.58c0.67-0.7,1.57-1.09,2.54-1.11c0.97-0.02,1.88,0.34,2.58,1.01c0.7,0.67,1.09,1.57,1.11,2.54
									c0.02,0.97-0.34,1.88-1.01,2.58c-0.67,0.7-1.57,1.09-2.54,1.11C477.56,150.33,477.53,150.33,477.5,150.33z M477.51,144.14
									c-0.68,0-1.35,0.26-1.86,0.79c-0.48,0.5-0.73,1.15-0.71,1.83c0.01,0.69,0.3,1.33,0.79,1.8c0.5,0.48,1.15,0.72,1.83,0.71
									c0.69-0.01,1.33-0.3,1.8-0.79c0.48-0.5,0.73-1.15,0.71-1.83c-0.01-0.69-0.3-1.33-0.79-1.8
									C478.79,144.38,478.15,144.14,477.51,144.14z"/>
							</g>
							<g>
								<path class="st11" d="M484.11,153.37c-0.13,0-0.26-0.05-0.36-0.15l-4.16-3.99c-0.21-0.2-0.22-0.53-0.02-0.74
									c0.2-0.21,0.53-0.22,0.74-0.02l4.16,3.99c0.21,0.2,0.22,0.53,0.02,0.74C484.39,153.31,484.25,153.37,484.11,153.37z"/>
							</g>
						</g>
						<g>
							<rect x="255.06" y="166.35" class="st12" width="113" height="109.33"/>
							<g>
								<rect x="260.29" y="173.16" class="st3" width="102.78" height="7.85"/>
								<rect x="260.29" y="186.18" class="st3" width="102.78" height="7.85"/>
								<rect x="260.29" y="199.44" class="st3" width="102.78" height="7.85"/>
							</g>
							<g>
								<rect x="318.84" y="217.81" class="st3" width="44.23" height="4.97"/>
								<rect x="318.84" y="226.26" class="st3" width="44.23" height="4.97"/>
								<rect x="318.84" y="234.7" class="st3" width="44.23" height="4.97"/>
								<rect x="318.84" y="243.15" class="st3" width="44.23" height="4.97"/>
								<rect x="318.84" y="251.6" class="st3" width="44.23" height="4.97"/>
								<rect x="318.84" y="260.05" class="st3" width="44.23" height="4.97"/>
							</g>
							<rect x="260.29" y="212.69" class="st3" width="55.43" height="54.27"/>
						</g>
						<g>
							<rect x="373.84" y="167.57" class="st3" width="114.42" height="9.65"/>
							<rect x="373.84" y="183.62" class="st3" width="114.42" height="9.65"/>
							<rect x="373.84" y="199.67" class="st3" width="114.42" height="9.65"/>
						</g>
						<g>
							<rect x="254.88" y="282.35" class="st3" width="232.34" height="6.86"/>
							<rect x="254.88" y="293.74" class="st3" width="232.34" height="6.86"/>
							<rect x="254.88" y="305.14" class="st3" width="232.34" height="6.86"/>
						</g>
						<g>
							<rect x="372.89" y="223.39" class="st3" width="61.31" height="4.97"/>
							<rect x="372.89" y="231.84" class="st3" width="61.31" height="4.97"/>
							<rect x="372.89" y="240.29" class="st3" width="61.31" height="4.97"/>
							<rect x="372.89" y="248.73" class="st3" width="61.31" height="4.97"/>
							<rect x="372.89" y="257.18" class="st3" width="61.31" height="4.97"/>
							<rect x="372.89" y="265.63" class="st3" width="61.31" height="4.97"/>
						</g>
					</g>
				</g>
			</g>
		</g>
	</g>
	<path class="st2" d="M534.52,267.26c0.91-0.27,1.85-0.58,2.84-0.94l-4.23,15.21c-0.23,0.08-0.47,0.15-0.71,0.21
		c0,0-2.29,3.57-3.68,2.17c-1-1.01-0.23-2.14,0.28-2.69c-0.48,0.37-1.39,0.82-2.51-0.07c-1.2-0.95,0.13-2.04,0.92-2.55
		c-0.7,0.34-1.97,0.7-2.92-0.54c0,0-1.13-1.8,1.41-2.84c-0.18,0.05-1.88,0.56-2.53-1.06c0,0,0.01-2.08,3.41-2.7
		c0,0-5.19-0.03-4.57-2.05c0.62-2.03,4.32-2.27,4.32-2.27S529.12,264.91,534.52,267.26z"/>
	<g>
		<g>
			<g>
				<g>
					
						<rect x="504.4" y="388.91" transform="matrix(0.9987 0.0512 -0.0512 0.9987 20.64 -26.1589)" class="st13" width="33.02" height="1.76"/>
					<g>
						<path class="st14" d="M523.27,354.03l-0.8,20.25c0,0,15.52,2.56,15.73,1.87c0.21-0.7,3.06-21.73,3.06-21.73L523.27,354.03z"/>
						<path class="st15" d="M521.46,374.15l-0.61,6.52c0,0-16.08-0.82-16.38,7.4l32.97,1.69l1.61-14.55L521.46,374.15z"/>
						<path class="st16" d="M516.58,380.49c1.44,0.85,2.44,2.4,2.64,4.07"/>
						<path class="st16" d="M513.56,380.65c1.44,0.85,2.44,2.4,2.64,4.07"/>
						<path class="st16" d="M510.66,381.28c1.44,0.85,2.44,2.4,2.64,4.07"/>
					</g>
				</g>
				<path class="st17" d="M585.26,241.75c0,0-13.62,27.6-23.19,61.04c-0.1,0.33-0.19,0.67-0.29,1.01c-0.69,2.45-1.41,4.81-2.15,7.12
					c-6.27,19.61-13.97,34.76-18.24,55.84l-21.28-1.55c0,0-0.59-35.45,4.87-68.06c3.83-22.84,15.63-43.88,20.98-54.72L585.26,241.75
					z"/>
			</g>
			<path class="st2" d="M562.07,302.79c-0.1,0.33-0.19,0.67-0.29,1.01c-0.69,2.45-1.41,4.81-2.15,7.12
				c-1.9-14.77-3.59-32.09-3.59-32.09L562.07,302.79z"/>
			<g>
				<g>
					
						<rect x="569.22" y="393.55" transform="matrix(0.9856 -0.1693 0.1693 0.9856 -58.3157 104.8447)" class="st13" width="33.02" height="1.76"/>
					<g>
						<path class="st14" d="M580.19,359.02l3.66,19.94c0,0,15.7-0.91,15.76-1.63c0.05-0.72-1.79-21.87-1.79-21.87L580.19,359.02z"/>
						<path class="st15" d="M582.83,379.05l0.84,6.49c0,0-15.87,2.72-14.36,10.81l32.54-5.59l-1.62-14.54L582.83,379.05z"/>
						<path class="st16" d="M579.47,386.31c1.59,0.52,2.91,1.81,3.46,3.39"/>
						<path class="st16" d="M576.55,387.13c1.59,0.52,2.91,1.81,3.46,3.39"/>
						<path class="st16" d="M573.87,388.38c1.59,0.52,2.91,1.81,3.46,3.39"/>
					</g>
				</g>
				<path class="st12" d="M595.51,241.41c0,0,7.89,74.75,6.56,127.46l-22.45,2.83c0,0-22.45-73.99-26.83-128.92L595.51,241.41z"/>
			</g>
		</g>
		<g>
			<g>
				<path class="st14" d="M543.5,187c0,0-32.05,18.72-48.7,23.77l6.44,13.36c0,0,38.07-16.01,53.12-29.01L543.5,187z"/>
				<path class="st18" d="M574.71,185.87c0,0-13.83-12.73-34.22,0.8l10.23,13.9L574.71,185.87z"/>
			</g>
			<path class="st18" d="M597.14,204.67c-2.05,29.22-1.54,37.16-1.54,37.16l-49.64,0.6l0.07-3.08l0.27-12.75l0.69-32.69
				c0,0-5.13-19.74,24.6-18.8C571.59,175.11,599.19,175.45,597.14,204.67z"/>
			<g class="st2">
				<polygon points="524.79,216.66 524.79,267.99 519.53,286.9 452.99,268.39 471.49,201.84 				"/>
			</g>
			<g>
				<polygon class="st12" points="535.6,216.14 530.71,233.73 526.48,248.94 517.09,282.69 450.55,264.18 469.05,197.63 				"/>
				<polygon class="st3" points="507.38,244.98 487.75,224.98 480.24,251.98 				"/>
				
					<ellipse transform="matrix(0.939 -0.344 0.344 0.939 -52.526 184.2947)" class="st19" cx="493.07" cy="240.16" rx="25.65" ry="25.65"/>
			</g>
			<path class="st2" d="M582.28,222.58l-1-1.37c-9.91,6.76-24.56,13.57-35.25,18.14l0.27-12.75c11.43-6.01,22.88-13.27,27.25-16.1
				l-1.38-1.91l21.32-18.34C593.49,190.25,601.38,207.31,582.28,222.58z"/>
			<g>
				<path class="st14" d="M532.48,242.42c0,0-2.43,3.16-6.55,4.23c0,0-2.29,3.58-3.68,2.18c-1.38-1.4,0.62-3.03,0.62-3.03
					s-1.21,1.58-2.85,0.28s1.43-2.85,1.43-2.85s-2.06,1.54-3.43-0.24c0,0-1.13-1.81,1.43-2.85c0,0-1.86,0.66-2.55-1.05
					c0,0,0.01-2.09,3.41-2.7c0,0-5.18-0.03-4.56-2.05c0.62-2.03,4.31-2.26,4.31-2.26s2.81-2.45,8.73,0.45L532.48,242.42z"/>
				<g>
					<path class="st14" d="M575.58,206.79c0,0-30.92,20.51-47.61,25.41l4.52,10.23c0,0,38.72-14.56,53.88-27.41L575.58,206.79z"/>
					<path class="st18" d="M593.66,187.76c0,0,7.9,17.06-11.21,32.34l-10.1-13.99L593.66,187.76z"/>
				</g>
			</g>
		</g>
		<g>
			<path class="st11" d="M552.3,140.76c-0.78-1.1-1.57-2.21-2.04-3.47c-0.47-1.26-0.58-2.72,0-3.93c0.58-1.22,1.95-2.1,3.27-1.83
				c-1.02-1.54-0.84-3.77,0.42-5.12c1.26-1.35,3.47-1.69,5.08-0.78c0.1-1.85,1.52-3.54,3.32-3.97c1.8-0.42,3.83,0.46,4.74,2.07
				c1.03-1.65,3.16-2.51,5.05-2.05s3.37,2.22,3.52,4.16c1.88-1.65,4.88-1.82,6.94-0.41c2.06,1.41,2.97,4.28,2.11,6.63
				c2.88-1,6.41,0.95,7.09,3.92c0.68,2.97-1.64,6.27-4.67,6.62c1.37,0.57,1.9,2.35,1.54,3.79c-0.36,1.44-1.39,2.61-2.41,3.69
				c-1.36,1.45-2.81,2.89-4.62,3.72c-1.98,0.9-4.23,0.99-6.41,0.91c-4.88-0.17-9.73-1.07-14.35-2.65c-3.01-1.03-7.89-2.9-9.47-5.88
				C550.5,144.45,550.62,141.96,552.3,140.76z"/>
			<g>
				<path class="st14" d="M570.81,183.29L570.81,183.29c-3.62,0-6.56-2.94-6.56-6.56v-12.49h13.12v12.49
					C577.38,180.36,574.44,183.29,570.81,183.29z"/>
				<path class="st20" d="M577.38,170.76v-6.52h-13.12v10.2C566.27,174.71,573.91,175.24,577.38,170.76z"/>
			</g>
			<path class="st14" d="M579.54,133.97c-7.32-8.14-20.86-4.37-23.18,6.32c-1.04,4.8-1.68,10.77-0.6,16.72
				c2.42,13.42,11.06,18.9,20.48,14.22c9.42-4.68,9.84-23.84,6.5-32.14C581.96,137.2,580.88,135.46,579.54,133.97z"/>
			<path class="st11" d="M579.95,148.97c-1.43-1.22-2.39-2.88-3.27-4.54c-0.72-1.37-1.43-2.79-2.6-3.81
				c-1.3-1.12-3.01-1.61-4.66-2.06c-2.18-0.59-4.49-1.16-6.65-0.52c-1.69,0.5-3.09,1.68-4.74,2.3c-1.65,0.61-3.89,0.4-4.65-1.19
				c-0.56-1.18-0.05-2.59,0.62-3.72c3.2-5.37,9.77-8.08,16.02-8.01c3.14,0.04,6.33,0.72,8.98,2.39c3.28,2.06,5.54,5.55,6.46,9.31
				c0.73,2.98,0.68,6.11,0.06,9.1c-0.26,1.28-0.27,2.24-1.71,2.32C582.44,150.61,580.96,149.84,579.95,148.97z"/>
			<g>
				<path class="st14" d="M586.39,151.76c-0.2,1.91-1.92,3.3-3.83,3.1c-1.91-0.2-3.3-1.92-3.1-3.83c0.2-1.91,1.92-3.3,3.83-3.1
					C585.2,148.13,586.59,149.84,586.39,151.76z"/>
				<path class="st7" d="M584.81,151.39c0,0.93-0.75,1.68-1.68,1.68c-0.93,0-1.68-0.75-1.68-1.68c0-0.93,0.75-1.68,1.68-1.68
					C584.06,149.72,584.81,150.47,584.81,151.39z"/>
			</g>
		</g>
	</g>
	<g>
		<g>
			<g>
				
					<rect x="258.28" y="469.36" transform="matrix(-0.9305 0.3664 -0.3664 -0.9305 702.4296 807.1429)" class="st13" width="32.68" height="1.74"/>
				<g>
					<path class="st14" d="M261.13,437.41l7.13,18.75c0,0-13.75,7.29-14.17,6.71c-0.42-0.59-9.71-19.43-9.71-19.43L261.13,437.41z"
						/>
					<path class="st15" d="M269.18,455.73l2.62,5.92c0,0,14.83-5.84,17.7,1.78l-30.41,11.97L253,462.26L269.18,455.73z"/>
					<path class="st16" d="M275.75,460.14c-1.08,1.26-1.54,3.03-1.19,4.65"/>
					<path class="st16" d="M278.64,459.33c-1.08,1.26-1.54,3.03-1.19,4.65"/>
					<path class="st16" d="M281.56,459.02c-1.08,1.26-1.54,3.03-1.19,4.65"/>
				</g>
			</g>
			<path class="st17" d="M205.45,325.2c0,0,13.87,87.61,40.25,128.2l21.31-6.77c0,0-9.81-94.71-22.66-120.76L205.45,325.2z"/>
		</g>
		<path class="st2" d="M234.37,361.9c0,0-4.51,46.29-7.05,51.58l-3.44-9.87L234.37,361.9z"/>
		<g>
			<g>
				
					<rect x="188.21" y="478.97" transform="matrix(-0.9856 -0.1693 0.1693 -0.9856 324.9169 987.3915)" class="st13" width="32.68" height="1.74"/>
				<g>
					<path class="st14" d="M210.04,444.79l-3.63,19.73c0,0-15.54-0.9-15.6-1.62c-0.05-0.72,1.77-21.65,1.77-21.65L210.04,444.79z"/>
					<path class="st15" d="M207.42,464.62l-0.83,6.43c0,0,15.7,2.7,14.21,10.7l-32.21-5.53l1.61-14.4L207.42,464.62z"/>
					<path class="st16" d="M210.75,471.8c-1.58,0.51-2.88,1.79-3.43,3.35"/>
					<path class="st16" d="M213.64,472.62c-1.58,0.51-2.88,1.79-3.43,3.35"/>
					<path class="st16" d="M216.3,473.86c-1.58,0.51-2.88,1.79-3.43,3.35"/>
				</g>
			</g>
			<path class="st12" d="M195.31,324.87c0,0-12.85,75.09-7.78,126.17l25.37,3.38c0,0,23.68-73.4,24.69-128.2L195.31,324.87z"/>
		</g>
		<g>
			<g>
				<path class="st14" d="M253.92,275.94c0,0,19.54,31.11,31.84,43.17l-11.78,8.77c0,0-26.07-31.5-33.32-49.79L253.92,275.94z"/>
				<path class="st18" d="M227.05,260.65c0,0,17.97-4.83,29.66,16.37l-15.35,7.5L227.05,260.65z"/>
			</g>
			<path class="st18" d="M218.98,259.24c0,0-27.31,0.34-25.29,29.26c2.03,28.92,1.52,36.79,1.52,36.79l49.13,0.59l-1.01-48.03
				C243.34,277.85,248.41,258.31,218.98,259.24z"/>
			<g>
				<g>
					<path class="st9" d="M315.69,334.5l-31.89,59.64l-74.5-39.83l31.89-59.64c0.72-1.35,2.4-1.86,3.75-1.13l69.62,37.22
						C315.9,331.47,316.41,333.15,315.69,334.5z"/>
					<path class="st10" d="M315.69,334.5l-1.74,3.25l-74.5-39.83l1.74-3.25c0.72-1.35,2.4-1.86,3.75-1.13l69.62,37.22
						C315.9,331.47,316.41,333.15,315.69,334.5z"/>
					<g>
						<path class="st3" d="M246.44,298.42c-0.38,0.71-1.26,0.98-1.97,0.6c-0.71-0.38-0.98-1.26-0.6-1.97
							c0.38-0.71,1.26-0.98,1.97-0.6C246.55,296.83,246.82,297.71,246.44,298.42z"/>
						<path class="st3" d="M250.21,300.44c-0.38,0.71-1.26,0.98-1.97,0.6c-0.71-0.38-0.98-1.26-0.6-1.97
							c0.38-0.71,1.26-0.98,1.97-0.6C250.32,298.85,250.59,299.73,250.21,300.44z"/>
						<path class="st3" d="M253.98,302.45c-0.38,0.71-1.26,0.98-1.97,0.6c-0.71-0.38-0.98-1.26-0.6-1.97
							c0.38-0.71,1.26-0.98,1.97-0.6C254.09,300.86,254.36,301.74,253.98,302.45z"/>
					</g>
				</g>
				
					<rect x="237.45" y="314.03" transform="matrix(0.8819 0.4715 -0.4715 0.8819 179.3496 -84.4678)" class="st3" width="41.56" height="3.29"/>
				
					<rect x="234.31" y="319.91" transform="matrix(0.8819 0.4715 -0.4715 0.8819 181.7514 -82.2901)" class="st3" width="41.56" height="3.29"/>
				
					<rect x="230.66" y="326.73" transform="matrix(0.8819 0.4715 -0.4715 0.8819 184.5356 -79.7651)" class="st3" width="41.56" height="3.29"/>
				<g>
					
						<rect x="273.97" y="331.82" transform="matrix(0.8819 0.4715 -0.4715 0.8819 194.8868 -96.4046)" class="st3" width="31.71" height="17.79"/>
					<polygon class="st21" points="273.55,342.1 286.3,334.11 286.91,346.5 296.01,341.17 296.86,354.55 					"/>
					
						<ellipse transform="matrix(0.9575 -0.2884 0.2884 0.9575 -85.8458 101.6602)" class="st21" cx="302.14" cy="342.21" rx="2.42" ry="2.42"/>
				</g>
				<g>
					<g>
						
							<rect x="218.38" y="348.94" transform="matrix(0.8819 0.4715 -0.4715 0.8819 192.7118 -69.0106)" class="st3" width="31.37" height="2.25"/>
						
							<rect x="217.03" y="350" transform="matrix(0.8819 0.4715 -0.4715 0.8819 192.3524 -65.4688)" class="st3" width="19.59" height="2.25"/>
						
							<rect x="214.98" y="353.83" transform="matrix(0.8819 0.4715 -0.4715 0.8819 193.9188 -64.0486)" class="st3" width="19.59" height="2.25"/>
					</g>
					<g>
						
							<rect x="224.37" y="330.29" transform="matrix(0.8819 0.4715 -0.4715 0.8819 188.3053 -73.197)" class="st3" width="31.71" height="17.79"/>
						<polygon class="st21" points="223.99,340.59 236.74,332.6 237.35,344.99 246.45,339.66 247.3,353.04 						"/>
						<path class="st22" d="M254.71,341.84c-0.63,1.18-2.09,1.62-3.27,0.99c-1.18-0.63-1.62-2.09-0.99-3.27
							c0.63-1.18,2.09-1.62,3.27-0.99C254.89,339.2,255.34,340.67,254.71,341.84z"/>
					</g>
				</g>
				<g>
					<g>
						
							<rect x="257.59" y="369.9" transform="matrix(0.8819 0.4715 -0.4715 0.8819 207.2285 -85.0223)" class="st3" width="31.37" height="2.25"/>
						
							<rect x="256.24" y="370.96" transform="matrix(0.8819 0.4715 -0.4715 0.8819 206.8702 -81.4806)" class="st3" width="19.59" height="2.25"/>
						
							<rect x="254.19" y="374.8" transform="matrix(0.8819 0.4715 -0.4715 0.8819 208.4366 -80.0604)" class="st3" width="19.59" height="2.25"/>
					</g>
					<g>
						
							<rect x="263.58" y="351.25" transform="matrix(0.8819 0.4715 -0.4715 0.8819 202.8244 -89.209)" class="st3" width="31.71" height="17.79"/>
						<polygon class="st21" points="263.2,361.56 275.95,353.57 276.57,365.95 285.66,360.62 286.51,374.01 						"/>
						
							<ellipse transform="matrix(0.9575 -0.2883 0.2883 0.9575 -91.8847 99.4856)" class="st21" cx="291.79" cy="361.67" rx="2.42" ry="2.42"/>
					</g>
				</g>
			</g>
			<path class="st2" d="M257.96,336.49c0,0-1.85-3.44-8.72-2.78c-12.43-7.87-31.18-30.08-36.38-36.38l1.88-1.47l-15.27-23.27
				c0,0-12.17,14.08,1.84,33.83l1.3-1.02c13.09,16.07,39.37,36.82,39.37,36.82l0.03-0.03c0.22,0.65,1.53,4.13,4.82,6.45
				c0,0,0.93,4.35,2.8,3.49c1.36-0.62,1.02-2.02,0.73-2.74c0.32,0.54,1.06,1.32,2.48,0.86c1.53-0.49,0.63-2.05,0.04-2.84
				c0.56,0.59,1.68,1.41,3.06,0.55c0,0,1.78-1.35-0.35-3.32c0,0,1.57,1.33,2.88-0.09c0,0,0.76-2.05-2.34-3.91
				c0,0,5.09,1.89,5.23-0.33C261.5,338.09,257.96,336.49,257.96,336.49z"/>
			<g>
				<g>
					<path class="st14" d="M211.26,291.44c0,0,23.22,28.87,37.77,38.09l-7.26,8.5c0,0-32.09-25.33-43.02-41.7L211.26,291.44z"/>
					<path class="st18" d="M199.25,268.39c0,0-12.17,14.08,1.84,33.83l13.43-10.55L199.25,268.39z"/>
				</g>
				<path class="st14" d="M241.75,337.87c0,0,1.21,3.99,4.85,6.56c0,0,0.93,4.35,2.8,3.49c1.87-0.86,0.51-3.2,0.51-3.2
					s0.61,2,2.69,1.32c2.09-0.67-0.35-3.32-0.35-3.32s1.45,2.27,3.45,1.03c0,0,1.78-1.35-0.35-3.32c0,0,1.57,1.33,2.88-0.09
					c0,0,0.76-2.05-2.34-3.91c0,0,5.09,1.89,5.23-0.33c0.14-2.21-3.39-3.81-3.39-3.81s-1.85-3.44-8.72-2.78L241.75,337.87z"/>
			</g>
		</g>
		<g>
			<g>
				<path class="st14" d="M223.65,265.8L223.65,265.8c3.8,0,6.87-3.08,6.87-6.87v-13.08h-13.74v13.08
					C216.78,262.72,219.86,265.8,223.65,265.8z"/>
				<path class="st20" d="M216.78,252.67v-6.83h13.74v10.68C228.41,256.8,220.41,257.36,216.78,252.67z"/>
			</g>
			<path class="st14" d="M214.52,214.14c7.66-8.52,21.85-4.58,24.28,6.62c1.09,5.02,1.76,11.28,0.63,17.51
				c-2.53,14.06-11.59,19.79-21.45,14.89c-9.86-4.9-10.31-24.97-6.8-33.66C211.98,217.52,213.11,215.7,214.52,214.14z"/>
			<path class="st11" d="M209.69,239.16c0,0-2.37-11.4-6.09-16.51c-3.72-5.12,2.15-7.92,6.75-7.69c0,0,5.34-10.58,16.74-9.42
				c11.4,1.16,12.63,3.93,12.86,8.35c0,0,7.68,1.86,0,15.82c0,0,0.23-7.21-3.26-9.54c-3.49-2.33-20.07,5.2-24.49,0.09
				C212.2,220.25,215.44,230.54,209.69,239.16z"/>
			<g>
				<g>
					<g>
						<g>
							<g>
								<g>
									<g>
										<g>
											<g>
												<path class="st18" d="M220.19,236.2c-3-0.71-4.87-3.73-4.16-6.73c0.71-3,3.73-4.87,6.73-4.16
													c3,0.71,4.87,3.73,4.16,6.73C226.22,235.05,223.19,236.91,220.19,236.2z M222.58,226.1c-2.57-0.61-5.14,0.99-5.75,3.55
													c-0.61,2.57,0.99,5.14,3.55,5.75c2.56,0.61,5.14-0.99,5.75-3.55C226.74,229.29,225.14,226.71,222.58,226.1z"/>
											</g>
										</g>
									</g>
								</g>
							</g>
						</g>
					</g>
				</g>
				<g>
					<g>
						<g>
							<g>
								<g>
									<g>
										<g>
											<g>
												<path class="st18" d="M216.3,230.19c-0.05,0-0.1,0-0.15-0.02c-3.19-0.97-5.86,0.45-5.89,0.47
													c-0.2,0.11-0.45,0.03-0.55-0.16c-0.11-0.2-0.03-0.45,0.16-0.55c0.12-0.07,3.01-1.6,6.52-0.53
													c0.22,0.07,0.34,0.29,0.27,0.51C216.61,230.07,216.47,230.17,216.3,230.19z"/>
											</g>
										</g>
									</g>
								</g>
							</g>
						</g>
					</g>
				</g>
				<g>
					<g>
						<g>
							<g>
								<g>
									<g>
										<g>
											<g>
												<path class="st18" d="M232.65,235.95c-3-0.71-4.87-3.73-4.16-6.73c0.71-3,3.73-4.87,6.73-4.16
													c3,0.71,4.87,3.73,4.16,6.73C238.67,234.79,235.65,236.66,232.65,235.95z M235.04,225.85
													c-2.57-0.61-5.14,0.99-5.75,3.55c-0.61,2.56,0.99,5.14,3.55,5.75c2.57,0.61,5.14-0.99,5.75-3.55
													C239.2,229.04,237.6,226.46,235.04,225.85z"/>
											</g>
										</g>
									</g>
								</g>
							</g>
						</g>
					</g>
				</g>
				<g>
					<g>
						<g>
							<g>
								<g>
									<g>
										<g>
											<g>
												<path class="st18" d="M226.35,229.73c-0.07-0.02-0.13-0.06-0.17-0.12c-0.14-0.17-0.12-0.43,0.05-0.58
													c0.05-0.04,1.29-1.05,2.84-0.16c0.2,0.11,0.26,0.36,0.15,0.56c-0.11,0.2-0.36,0.26-0.56,0.15
													c-1.06-0.61-1.9,0.07-1.91,0.08C226.64,229.76,226.48,229.78,226.35,229.73z"/>
											</g>
										</g>
									</g>
								</g>
							</g>
						</g>
					</g>
				</g>
			</g>
			<g>
				<path class="st14" d="M207.34,232.77c0.21,2,2.01,3.46,4.01,3.25c2-0.21,3.46-2.01,3.25-4.01c-0.21-2-2.01-3.46-4.01-3.25
					C208.59,228.97,207.13,230.76,207.34,232.77z"/>
				<path class="st7" d="M208.99,232.39c0,0.97,0.79,1.76,1.76,1.76s1.76-0.79,1.76-1.76s-0.79-1.76-1.76-1.76
					S208.99,231.42,208.99,232.39z"/>
			</g>
		</g>
	</g>
	<g>
		<path class="st23" d="M380.53,386.64v-79.61c0-2.55,2.07-4.62,4.62-4.62h36.44c1.06,0,2.08,0.37,2.89,1.04l11.6,9.53
			c0.69,0.57,1.55,0.88,2.44,0.88h44.12c2.55,0,4.62,2.07,4.62,4.62v68.39L380.53,386.64z"/>
		<path class="st24" d="M480.94,345.73h-94.08v-21.73c0-3.21,2.61-5.82,5.82-5.82h82.44c3.21,0,5.82,2.61,5.82,5.82V345.73z"/>
		<path class="st3" d="M479.25,345.73h-90.71v-19.88c0-3.03,2.46-5.48,5.48-5.48h79.74c3.03,0,5.48,2.46,5.48,5.48V345.73z"/>
		<path class="st18" d="M481.79,391.98h-95.78c-3.1,0-5.61-2.51-5.61-5.61v-49.94c0-3.1,2.51-5.61,5.61-5.61h95.78
			c3.1,0,5.61,2.51,5.61,5.61v49.94C487.4,389.47,484.89,391.98,481.79,391.98z"/>
	</g>
	<g>
		<g>
			<g>
				<g>
					
						<rect x="126.52" y="410.28" transform="matrix(-0.9722 0.2341 -0.2341 -0.9722 373.2972 777.7361)" class="st13" width="27.94" height="1.49"/>
					<g>
						<path class="st14" d="M132.96,381.64l3.82,16.72c0,0-12.51,4.55-12.79,4c-0.28-0.55-5.92-17.6-5.92-17.6L132.96,381.64z"/>
						<path class="st15" d="M137.6,398.1l1.52,5.33c0,0,13.24-3.19,14.78,3.6l-27.16,6.54l-3.6-11.85L137.6,398.1z"/>
						<path class="st16" d="M142.64,402.61c-1.06,0.93-1.66,2.38-1.56,3.79"/>
						<path class="st16" d="M145.18,402.27c-1.06,0.93-1.66,2.38-1.56,3.79"/>
						<path class="st16" d="M147.69,402.35c-1.06,0.93-1.66,2.38-1.56,3.79"/>
					</g>
				</g>
				<path class="st17" d="M137.2,390.29l-19.31,3.74c0,0-17.1-55.58-18.71-61.05c-0.05-0.18-0.14-0.41-0.24-0.68
					c-1.1-2.67-4.99-9.76-9.75-18.17c-10.06-17.73-24.02-41.28-24.02-41.28l46.74,0.8c0,0,14.13,46.27,17.67,57.56
					C133.12,342.49,137.2,390.29,137.2,390.29z"/>
			</g>
			<path class="st2" d="M107.15,289.45c0,0-2.67,22.75-8.22,42.85c-1.1-2.67-4.99-9.76-9.75-18.17L107.15,289.45z"/>
		</g>
		<g>
			<g>
				
					<rect x="43.79" y="415.65" transform="matrix(-0.9033 -0.4289 0.4289 -0.9033 -68.6744 817.3094)" class="st13" width="27.94" height="1.49"/>
				<g>
					<path class="st14" d="M70.36,388.81l-7.54,15.41c0,0-12.59-4.33-12.46-4.93c0.12-0.6,6.45-17.41,6.45-17.41L70.36,388.81z"/>
					<path class="st15" d="M63.63,404.52l-2.16,5.1c0,0,12.31,5.84,9.23,12.09l-25.24-11.98l4.64-11.48L63.63,404.52z"/>
					<path class="st16" d="M64.72,411.2c-1.42,0.06-2.79,0.81-3.6,1.97"/>
					<path class="st16" d="M66.91,412.54c-1.42,0.06-2.79,0.81-3.6,1.97"/>
					<path class="st16" d="M68.81,414.17c-1.42,0.06-2.79,0.81-3.6,1.97"/>
				</g>
			</g>
			<path class="st12" d="M65.16,272.85l-14.15,116.8l17.86,7.95c0,0,39.01-86.71,41.43-124.27
				C110.44,271.09,65.16,272.85,65.16,272.85z"/>
		</g>
		<g>
			<path class="st25" d="M65.08,273.09c0,0,0.27-4.31-0.43-18.39c-0.23-4.5-0.56-10-1.03-16.67c-0.43-6.16,0.54-10.95,2.28-14.69
				c6.11-12.99,21.82-13.19,21.82-13.19c28.05-0.89,23.21,17.73,23.21,17.73l0.97,45.78L65.08,273.09z"/>
			<g>
				<path class="st14" d="M118.7,236.37c0,0,0.3,34.95,5.78,50.43l-7.93,1.58c0,0-11.55-37.02-10.1-55.72L118.7,236.37z"/>
				<path class="st25" d="M102.1,212.03c0,0,17.41,3.39,18.54,26.44h-16.28L102.1,212.03z"/>
				<path class="st14" d="M116.55,288.37c0,0-0.81,2.72,0.29,5.54c0,0-1.11,2.81,0.27,3.03c1.38,0.21,1.49-1.62,1.49-1.62
					s-0.41,1.36,1.03,1.76s1.05-2.01,1.05-2.01s-0.03,1.83,1.57,1.88c0,0,1.52-0.1,1.05-2.01c0,0,0.39,1.34,1.67,1.03
					c0,0,1.2-0.88,0.14-3.09c0,0,2.18,2.98,3.09,1.78c0.91-1.2-0.49-3.43-0.49-3.43s0.25-2.64-3.9-4.85L116.55,288.37z"/>
			</g>
			<g>
				<path class="st18" d="M133.48,234.03l15.74,42.9c1,2.73-0.4,5.76-3.13,6.77l-36.39,13.35c-2.73,1-5.76-0.4-6.77-3.13
					l-18.14-49.45c-1-2.73,0.4-5.76,3.14-6.76l30.1-11.04l0.05,0.05L133.48,234.03z"/>
				<polygon class="st26" points="118.03,226.66 122.15,238.19 133.48,234.03 				"/>
				<polygon class="st27" points="122.15,238.19 134,235.47 133.48,234.03 				"/>
				<path class="st26" d="M146.28,268.94l2.93,8c1,2.73-0.4,5.76-3.13,6.77l-36.39,13.35c-2.73,1-5.76-0.4-6.77-3.13l-2.93-8
					L146.28,268.94z"/>
				<g>
					<path class="st3" d="M122.93,288.93c-0.25,0.25-0.89,0.69-1.79,1.02c-2.59,0.95-4.52-0.18-5.3-2.32
						c-0.94-2.56,0.37-4.64,2.63-5.47c0.88-0.32,1.61-0.4,1.97-0.34l0.13,1.46c-0.39-0.02-0.91,0.02-1.52,0.24
						c-1.33,0.49-2.08,1.68-1.47,3.35c0.55,1.5,1.79,2.12,3.29,1.57c0.52-0.19,1.04-0.5,1.33-0.77L122.93,288.93z"/>
					<path class="st3" d="M123.54,286.95c0.53,0.07,1.33,0.04,2.05-0.22c0.78-0.29,1.07-0.76,0.89-1.25
						c-0.17-0.47-0.62-0.6-1.64-0.58c-1.41,0.01-2.48-0.38-2.88-1.46c-0.47-1.28,0.25-2.64,2.01-3.29c0.86-0.31,1.53-0.37,2.05-0.32
						l0.12,1.49c-0.34-0.04-0.96-0.05-1.69,0.22c-0.73,0.27-0.96,0.74-0.82,1.12c0.18,0.48,0.66,0.54,1.78,0.55
						c1.5,0,2.37,0.47,2.75,1.52c0.46,1.26-0.1,2.67-2.16,3.43c-0.86,0.31-1.79,0.39-2.29,0.31L123.54,286.95z"/>
					<path class="st3" d="M129.55,284.75c0.53,0.07,1.33,0.04,2.05-0.22c0.78-0.29,1.07-0.76,0.89-1.25
						c-0.17-0.47-0.62-0.6-1.64-0.58c-1.41,0.01-2.48-0.38-2.88-1.46c-0.47-1.28,0.25-2.64,2.01-3.29c0.86-0.31,1.53-0.37,2.05-0.32
						l0.12,1.49c-0.34-0.04-0.96-0.05-1.69,0.22c-0.73,0.27-0.96,0.74-0.82,1.12c0.18,0.48,0.66,0.54,1.78,0.55
						c1.5,0,2.37,0.47,2.75,1.53c0.46,1.26-0.1,2.67-2.16,3.43c-0.86,0.31-1.79,0.39-2.29,0.31L129.55,284.75z"/>
				</g>
				<g>
					<path class="st3" d="M102.66,260.13c1.57-0.66,1.42-1.56,1.19-2.28c-0.21-0.56-0.51-1.17-0.79-1.79
						c-0.3-0.61-0.61-1.22-0.82-1.8c-0.81-2.21,0.22-3.68,2.41-4.48l0.82-0.3l0.73,2l-0.42,0.16c-1.05,0.41-1.2,1.16-0.82,2.19
						c0.16,0.42,0.36,0.83,0.61,1.29c0.22,0.45,0.49,0.97,0.71,1.58c0.67,1.75,0.19,2.7-1.02,3.46l0.02,0.05
						c1.41-0.22,2.39,0.19,3.02,1.98c0.22,0.61,0.35,1.18,0.49,1.69c0.1,0.5,0.22,0.96,0.37,1.36c0.38,1.03,0.96,1.54,2.05,1.17
						l0.42-0.16l0.72,1.97l-0.85,0.31c-2.09,0.77-3.86,0.46-4.72-1.89c-0.22-0.59-0.38-1.25-0.54-1.91
						c-0.18-0.65-0.34-1.29-0.55-1.87c-0.24-0.66-0.72-1.47-2.37-0.94L102.66,260.13z"/>
					<path class="st3" d="M126.14,253.54c-1.57,0.66-1.42,1.59-1.2,2.25c0.22,0.59,0.51,1.17,0.81,1.78
						c0.28,0.62,0.58,1.22,0.8,1.81c0.86,2.35-0.28,3.73-2.37,4.49l-0.85,0.31l-0.72-1.97l0.42-0.15c1.07-0.42,1.19-1.18,0.81-2.22
						c-0.15-0.4-0.36-0.83-0.6-1.27c-0.23-0.48-0.5-0.99-0.72-1.6c-0.68-1.78-0.2-2.72,1.02-3.46l-0.02-0.05
						c-1.42,0.2-2.4-0.21-3.02-1.98c-0.22-0.61-0.35-1.18-0.48-1.66c-0.11-0.52-0.22-0.96-0.37-1.38c-0.38-1.03-0.98-1.51-2.04-1.14
						l-0.42,0.15l-0.73-2l0.82-0.3c2.18-0.8,3.92-0.35,4.73,1.86c0.22,0.59,0.38,1.25,0.56,1.9c0.16,0.66,0.32,1.32,0.53,1.88
						c0.26,0.7,0.73,1.49,2.38,0.97L126.14,253.54z"/>
				</g>
			</g>
			<path class="st2" d="M104.95,245.27c-1.86,2.39-4.62,3.09-4.62,3.09s-13.81,19.54-28.61,12.36c-3.29-1.6-5.55-3.71-7.07-6.02
				c-0.23-4.5-0.56-10-1.03-16.67c-0.43-6.16,0.54-10.95,2.28-14.69c5.22-6.77,12.12-7.63,12.12-7.63l-1.51,25.14h-0.91
				c4.55,14.16,17.43,3.89,19.28,2.31c-0.22-4.68,2.17-5.83,2.17-5.83s1.19-2.34,2.69-2.18c1.44,0.16,0.18,3.29,0.07,3.54
				c1.36-2.03,2.71-1.45,2.71-1.45c0.85,0.86,0.12,1.79-0.01,1.94c1.39-1.35,2.25-0.11,2.25-0.11c0.54,0.97-0.05,1.7-0.47,2.06
				c0.56-0.37,1.64-0.94,1.92,0.12c0.27,1.01-0.31,1.47-0.69,1.67c0.5-0.18,1.48-0.39,1.86,0.57
				C107.93,244.78,104.95,245.27,104.95,245.27z"/>
			<g>
				<path class="st14" d="M62.55,233.56c0,0-6.06,17.59,8.74,24.78c14.8,7.19,28.62-12.36,28.62-12.36l-5.21-5.41
					c0,0-15.98,14.4-20.13-4.34L62.55,233.56z"/>
				<path class="st25" d="M78.35,212.03c0,0-17.41,3.39-18.54,26.44H76.1L78.35,212.03z"/>
				<path class="st14" d="M99.91,245.98c0,0,2.75-0.7,4.61-3.09c0,0,2.99-0.49,2.46-1.79c-0.53-1.3-2.16-0.45-2.16-0.45
					s1.38-0.35,0.98-1.79c-0.39-1.44-2.26,0.13-2.26,0.13s1.59-0.91,0.81-2.31c0,0-0.86-1.25-2.26,0.13c0,0,0.95-1.03,0.03-1.96
					c0,0-1.37-0.58-2.73,1.47c0,0,1.44-3.4-0.06-3.56c-1.5-0.17-2.69,2.18-2.69,2.18s-2.4,1.14-2.16,5.83L99.91,245.98z"/>
			</g>
			<g>
				<g>
					<g>
						<path class="st11" d="M81.29,160.52c-0.1,0.67-0.25,1.35-0.46,2.02c-0.91,3.22-2.86,6.26-5.49,8.29
							c-1.45,1.11-3.59,1.56-5.76,1.61c-0.66,0.01-1.32-0.01-1.97-0.07c-1.28-0.1-2.49-0.34-3.49-0.65
							c-2.75-0.85-5.25-3.25-5.26-6.14c-0.01-2.95,2.46-5.31,4.96-6.87c3.31-2.09,7.03-3.51,10.88-4.17
							c1.9-0.32,4.09-0.38,5.48,0.97C81.46,156.75,81.56,158.76,81.29,160.52z"/>
					</g>
					<path class="st18" d="M80.84,162.53c-0.91,3.22-2.86,6.26-5.49,8.29c-1.45,1.11-3.59,1.56-5.76,1.61
						c-0.66,0.01-1.32-0.01-1.97-0.07c0.5-2.33,2.04-4.76,3.44-6.2c2.18-2.22,5.24-3.57,8.35-3.68
						C79.88,162.46,80.37,162.48,80.84,162.53z"/>
				</g>
				<path class="st11" d="M77.43,189.88c-4.83-0.39-8.72-4.96-9.08-9.8c-0.36-4.83,2.33-9.58,6.23-12.47
					c3.89-2.89,8.82-4.1,13.67-4.29c5.32-0.2,11.3,1.17,14.12,5.69c3.63,5.83-0.22,13.97-6.19,17.35
					c-5.98,3.38-13.22,3.31-20.09,3.16"/>
				<g>
					<path class="st14" d="M87.94,217.15L87.94,217.15c3.25,0,5.89-2.64,5.89-5.89v-11.22H82.05v11.22
						C82.05,214.51,84.69,217.15,87.94,217.15z"/>
					<path class="st20" d="M82.05,205.89v-5.85h11.78v9.16C92.02,209.44,85.17,209.92,82.05,205.89z"/>
				</g>
				<path class="st14" d="M80.11,172.86c6.57-7.31,18.73-3.93,20.81,5.68c0.93,4.31,1.51,9.67,0.54,15.01
					c-2.17,12.05-9.93,16.97-18.39,12.77c-8.45-4.2-8.84-21.4-5.83-28.86C77.94,175.76,78.91,174.2,80.11,172.86z"/>
				<path class="st11" d="M93.65,173.6c-2.78,5.73-7.76,10.36-13.67,12.72c-1.63,0.65-3.43,1.14-5.13,0.71
					c-2.24-0.57-3.87-2.73-4.18-5.02c-0.31-2.29,0.53-4.63,1.92-6.48c1.39-1.85,3.28-3.25,5.25-4.46c3.08-1.88,6.47-3.35,10.05-3.77
					c3.58-0.41,7.38,0.32,10.27,2.48c1.36,1.02,2.48,2.36,3.23,3.88c0.55,1.1,1.63,3.6,0.8,4.77
					C100.59,180.7,94.79,174.83,93.65,173.6z"/>
				<g>
					<path class="st14" d="M73.96,188.83c0.18,1.72,1.72,2.97,3.44,2.79c1.72-0.18,2.97-1.72,2.79-3.44
						c-0.18-1.72-1.72-2.97-3.44-2.78C75.03,185.58,73.78,187.12,73.96,188.83z"/>
					<path class="st7" d="M75.38,188.51c0,0.83,0.67,1.51,1.51,1.51s1.51-0.67,1.51-1.51S77.71,187,76.88,187
						S75.38,187.68,75.38,188.51z"/>
				</g>
			</g>
		</g>
	</g>
	<g>
		<g>
			<path class="st12" d="M309.78,428.95v10.39c0,0.96,0.63,1.79,1.55,2.06c3.8,1.08,14.22,3.67,27.22,3.67
				c12.76,0,21.47-2.49,24.75-3.61c0.86-0.29,1.44-1.09,1.45-2l0.12-10.5H309.78z"/>
			<path class="st28" d="M364.87,428.95c0,2.22-12.33,4.03-27.54,4.03c-15.21,0-27.54-1.8-27.54-4.03s12.33-4.03,27.54-4.03
				C352.54,424.92,364.87,426.73,364.87,428.95z"/>
			<path class="st12" d="M359.11,428.83c0,1.73-9.62,3.14-21.48,3.14s-21.48-1.41-21.48-3.14c0-1.73,9.62-3.14,21.48-3.14
				S359.11,427.1,359.11,428.83z"/>
		</g>
		<path class="st17" d="M358.99,431.52c-14.28,2.24-28.84,2.18-43.6-0.07v-10.08h43.56L358.99,431.52z"/>
		<g>
			<path class="st12" d="M309.78,410.79v10.39c0,0.96,0.63,1.79,1.55,2.06c3.8,1.08,14.22,3.67,27.22,3.67
				c12.76,0,21.47-2.49,24.75-3.61c0.86-0.29,1.44-1.09,1.45-2l0.12-10.5H309.78z"/>
			<path class="st28" d="M364.87,410.79c0,2.22-12.33,4.03-27.54,4.03c-15.21,0-27.54-1.8-27.54-4.03s12.33-4.03,27.54-4.03
				C352.54,406.76,364.87,408.56,364.87,410.79z"/>
			<path class="st12" d="M359.11,410.67c0,1.73-9.62,3.14-21.48,3.14s-21.48-1.41-21.48-3.14c0-1.73,9.62-3.14,21.48-3.14
				S359.11,408.93,359.11,410.67z"/>
		</g>
		<path class="st17" d="M358.99,413.32c-14.28,2.24-28.84,2.18-43.6-0.07v-10.08h43.56L358.99,413.32z"/>
		<g>
			<path class="st12" d="M309.78,392.62v10.39c0,0.96,0.63,1.79,1.55,2.06c3.8,1.08,14.22,3.67,27.22,3.67
				c12.76,0,21.47-2.49,24.75-3.61c0.86-0.29,1.44-1.09,1.45-2l0.12-10.5H309.78z"/>
			<path class="st28" d="M364.87,392.62c0,2.22-12.33,4.03-27.54,4.03c-15.21,0-27.54-1.8-27.54-4.03s12.33-4.03,27.54-4.03
				C352.54,388.59,364.87,390.4,364.87,392.62z"/>
			<path class="st12" d="M359.11,392.5c0,1.73-9.62,3.14-21.48,3.14s-21.48-1.41-21.48-3.14c0-1.73,9.62-3.14,21.48-3.14
				S359.11,390.77,359.11,392.5z"/>
		</g>
		<path class="st17" d="M358.99,395.12c-14.28,2.24-28.84,2.18-43.6-0.07v-10.08h43.56L358.99,395.12z"/>
		<g>
			<path class="st12" d="M309.78,375.91v10.39c0,0.96,0.63,1.79,1.55,2.06c3.8,1.08,14.22,3.67,27.22,3.67
				c12.76,0,21.47-2.49,24.75-3.61c0.86-0.29,1.44-1.09,1.45-2l0.12-10.5H309.78z"/>
			<path class="st28" d="M364.87,375.91c0,2.22-12.33,4.03-27.54,4.03c-15.21,0-27.54-1.8-27.54-4.03c0-2.22,12.33-4.03,27.54-4.03
				C352.54,371.89,364.87,373.69,364.87,375.91z"/>
			<ellipse class="st12" cx="337.64" cy="375.79" rx="21.48" ry="3.14"/>
		</g>
	</g>
	<g>
		<g>
			<g>
				
					<rect x="684.41" y="457.93" transform="matrix(0.631 -0.7758 0.7758 0.631 -97.439 712.738)" class="st13" width="32.07" height="1.71"/>
				<g>
					<path class="st14" d="M673.77,436.43l15.42,12.24c0,0,10.9-10.69,10.48-11.26c-0.42-0.56-15.28-14.85-15.28-14.85
						L673.77,436.43z"/>
					<path class="st15" d="M688.5,449.39l4.76,4.21c0,0-9.86,12.13-3.59,17.08l20.23-24.88l-10.48-9.6L688.5,449.39z"/>
					<path class="st16" d="M690.67,456.85c1.49-0.64,3.29-0.54,4.7,0.27"/>
					<path class="st16" d="M689.06,459.31c1.49-0.64,3.29-0.54,4.7,0.27"/>
					<path class="st16" d="M687.9,461.95c1.49-0.64,3.29-0.54,4.7,0.27"/>
				</g>
			</g>
			<path class="st17" d="M677.31,321.88c0,0-13.44,32.05-15.57,68.32c-0.69,11.66,24.2,25.6,34.66,40.53l-17.09,14.6
				c0,0-54.2-36.8-51.11-66.71c2.36-22.84,5.65-45.34,10.95-56.09L677.31,321.88z"/>
		</g>
		<g>
			<g>
				
					<rect x="649.61" y="471.35" transform="matrix(0.9999 -0.0142 0.0142 0.9999 -6.6204 9.4738)" class="st13" width="32.07" height="1.71"/>
				<g>
					<path class="st14" d="M665.66,437.4l0.51,19.68c0,0,15.2,1.5,15.36,0.81c0.16-0.69,1.58-21.25,1.58-21.25L665.66,437.4z"/>
					<path class="st15" d="M665.18,457.01l-0.18,6.36c0,0-15.63,0.22-15.4,8.21l32.06-0.45l0.64-14.2L665.18,457.01z"/>
					<path class="st16" d="M660.86,463.47c1.45,0.74,2.52,2.17,2.81,3.77"/>
					<path class="st16" d="M657.93,463.81c1.45,0.74,2.52,2.17,2.81,3.77"/>
					<path class="st16" d="M655.17,464.61c1.45,0.74,2.52,2.17,2.81,3.77"/>
				</g>
			</g>
			<path class="st12" d="M687.43,321.55c0,0-8.46,32.17-6.39,68.61c1.1,19.3,5.23,39.08,6.22,57h-24.14c0,0-10.2-23.4-16.93-53.76
				c-4.95-22.33,0.17-47.74-0.25-70.52L687.43,321.55z"/>
		</g>
		<g>
			<g>
				<path class="st14" d="M624.68,269.48c0,0-11.68,33.94-21.3,47.83l9.13,4.9c0,0,21.74-34.14,25.34-53.11L624.68,269.48z"/>
				<path class="st25" d="M647.75,249.79c0,0-18.21-1.34-25.55,21.26l16.17,4.39L647.75,249.79z"/>
			</g>
			<path class="st25" d="M655.24,248.54c0,0,35.63-3.53,34.35,36.17c-0.91,28.38-2.16,36.84-2.16,36.84l-48.29,1l-5.64-46.96
				C633.51,275.59,625.54,249.04,655.24,248.54z"/>
			<g>
				<path class="st18" d="M632.34,290.5l23.77,46.74c1.51,2.98,0.33,6.62-2.65,8.14l-39.65,20.16c-2.98,1.51-6.62,0.33-8.14-2.65
					l-27.4-53.88c-1.51-2.98-0.32-6.62,2.65-8.13l32.8-16.68l0.06,0.05L632.34,290.5z"/>
				<polygon class="st26" points="613.74,284.2 620,296.78 632.34,290.5 				"/>
				<polygon class="st27" points="620,296.78 633.14,292.07 632.34,290.5 				"/>
				<path class="st26" d="M651.68,328.53l4.43,8.71c1.51,2.98,0.33,6.62-2.65,8.14l-39.65,20.16c-2.98,1.51-6.62,0.33-8.14-2.65
					l-4.43-8.71L651.68,328.53z"/>
				<g>
					<path class="st3" d="M615.34,350.57l1.6,3.14l3.04-1.55l-1.6-3.14l1.84-0.94l4.15,8.17l-1.84,0.94l-1.74-3.42l-3.04,1.55
						l1.74,3.42l-1.84,0.94l-4.15-8.17L615.34,350.57z"/>
					<path class="st3" d="M624.22,348.01l-2.21,1.12l-0.79-1.55l6.28-3.19l0.79,1.55l-2.23,1.13l3.37,6.62l-1.84,0.94L624.22,348.01
						z"/>
					<path class="st3" d="M637.9,345.44c-0.54-0.96-1.18-2.13-1.78-3.32l-0.02,0.01c0.26,1.18,0.52,2.51,0.69,3.63l0.63,3.69
						l-1.44,0.73l-2.47-2.71c-0.76-0.83-1.62-1.86-2.37-2.82l-0.02,0.01c0.53,1.12,1.12,2.41,1.59,3.45l1.42,3.18l-1.71,0.87
						l-3.63-8.43l2.46-1.25l2.19,2.32c0.75,0.81,1.51,1.7,2.17,2.57l0.05-0.03c-0.26-1.06-0.53-2.28-0.72-3.33l-0.52-3.15l2.42-1.23
						l4.59,7.95l-1.79,0.91L637.9,345.44z"/>
					<path class="st3" d="M638.7,338.69l1.84-0.94l3.37,6.62l3.25-1.65l0.79,1.55l-5.09,2.59L638.7,338.69z"/>
				</g>
				<g>
					<path class="st3" d="M596.79,329.01l9.4-11.96l1.38,2.71l-7.24,8.8l0.03,0.05l11.38-0.67l1.38,2.71l-15.21,0.55L596.79,329.01z
						"/>
					<path class="st3" d="M615.48,330.71l-3.96-21.33l2.58-1.31l3.96,21.33L615.48,330.71z"/>
					<path class="st3" d="M633.93,312.98l-9.44,11.89l-1.38-2.71l7.45-8.91l-0.03-0.05l-11.59,0.77l-1.38-2.71l15.17-0.63
						L633.93,312.98z"/>
				</g>
			</g>
			<path class="st2" d="M679.9,257.9l-13.54,23.72l1.88,1.29c-4.82,6.26-21.97,28.03-33.64,36.48c-6.76-0.65-8.58,2.73-8.58,2.73
				s-3.48,1.57-3.34,3.75c0.14,2.18,5.15,0.32,5.15,0.32c-3.05,1.83-2.3,3.85-2.3,3.85c1.29,1.4,2.84,0.09,2.84,0.09
				c-2.09,1.93-0.34,3.27-0.34,3.27c1.36,0.85,2.46,0.04,3.01-0.54c-0.58,0.78-1.47,2.31,0.04,2.79c1.4,0.45,2.12-0.32,2.44-0.85
				c-0.29,0.71-0.62,2.08,0.72,2.7c1.84,0.85,2.75-3.44,2.75-3.44c3.58-2.53,4.78-6.46,4.78-6.46l0,0
				c1.78-1.5,25.52-21.64,37.04-37.4l1.36,0.94C692.67,270.94,679.9,257.9,679.9,257.9z"/>
			<g>
				<g>
					<path class="st14" d="M669.1,279.11c0,0-21.26,28.28-34.95,38.19l7.04,8.31c0,0,30.75-25.79,40.45-42.48L669.1,279.11z"/>
					<path class="st25" d="M679.45,255.81c0,0,12.77,13.04,0.25,33.24l-13.8-9.52L679.45,255.81z"/>
				</g>
				<path class="st14" d="M641.31,325.51c0,0-1.19,3.93-4.78,6.46c0,0-0.91,4.28-2.75,3.44c-1.84-0.85-0.51-3.15-0.51-3.15
					s-0.6,1.97-2.65,1.3c-2.05-0.66,0.34-3.27,0.34-3.27s-1.42,2.23-3.4,1.01c0,0-1.75-1.33,0.34-3.27c0,0-1.55,1.31-2.84-0.09
					c0,0-0.74-2.02,2.3-3.85c0,0-5.01,1.86-5.15-0.32c-0.14-2.18,3.34-3.75,3.34-3.75s1.82-3.39,8.58-2.73L641.31,325.51z"/>
			</g>
		</g>
		<g>
			<g>
				<path class="st14" d="M655.33,257.32L655.33,257.32c-3.73,0-6.76-3.03-6.76-6.76v-12.87h13.52v12.87
					C662.09,254.29,659.06,257.32,655.33,257.32z"/>
				<path class="st20" d="M662.09,244.4v-6.72h-13.52v10.51C650.65,248.47,658.52,249.01,662.09,244.4z"/>
			</g>
			<path class="st14" d="M664.32,206.49c-7.54-8.38-21.5-4.51-23.89,6.51c-1.07,4.94-1.73,11.09-0.62,17.23
				c2.49,13.83,11.4,19.48,21.1,14.65c9.7-4.82,10.14-24.57,6.69-33.12C666.81,209.81,665.7,208.03,664.32,206.49z"/>
			<path class="st11" d="M669.07,231.11c0,0,0.46-9.77,4.13-14.8c3.66-5.03-0.55-8.89-5.08-8.66c0,0-10.49-18.37-21.7-17.22
				c-0.11,0.01-0.22,0.02-0.33,0.04c-10.04,1.13-16.04,11.78-11.95,21.02c1.22,2.76,2.89,6.18,5.17,10.32c0,0-0.23-7.09,3.2-9.38
				c3.43-2.29,19.75,5.12,24.1,0.08C666.6,212.5,663.41,222.62,669.07,231.11z"/>
			<g>
				<path class="st14" d="M671.38,224.82c-0.21,1.97-1.97,3.4-3.95,3.2c-1.97-0.21-3.4-1.97-3.2-3.95c0.21-1.97,1.97-3.4,3.95-3.2
					C670.15,221.08,671.58,222.85,671.38,224.82z"/>
				<path class="st7" d="M669.75,224.44c0,0.95-0.77,1.73-1.73,1.73c-0.95,0-1.73-0.77-1.73-1.73c0-0.95,0.77-1.73,1.73-1.73
					C668.98,222.72,669.75,223.49,669.75,224.44z"/>
			</g>
		</g>
	</g>
	<g>
		<g>
			<g>
				<path class="st29" d="M554.44,399.08l24.55,44.64l-55.77,30.67l-24.55-44.64c-0.55-1.01-0.19-2.28,0.82-2.83l52.11-28.66
					C552.62,397.7,553.88,398.07,554.44,399.08z"/>
				<path class="st30" d="M554.44,399.08l1.34,2.43l-55.77,30.67l-1.34-2.43c-0.55-1.01-0.19-2.28,0.82-2.83l52.11-28.66
					C552.62,397.7,553.88,398.07,554.44,399.08z"/>
				<g>
					<path class="st3" d="M503.2,427.98c0.29,0.53,0.1,1.2-0.43,1.49c-0.53,0.29-1.2,0.1-1.49-0.43s-0.1-1.2,0.43-1.49
						S502.91,427.45,503.2,427.98z"/>
					<path class="st3" d="M506.02,426.42c0.29,0.53,0.1,1.2-0.43,1.49c-0.53,0.29-1.2,0.1-1.49-0.43c-0.29-0.53-0.1-1.2,0.43-1.49
						S505.73,425.89,506.02,426.42z"/>
					<path class="st3" d="M508.85,424.87c0.29,0.53,0.1,1.2-0.43,1.49c-0.53,0.29-1.2,0.1-1.49-0.43c-0.29-0.53-0.1-1.2,0.43-1.49
						C507.89,424.15,508.55,424.34,508.85,424.87z"/>
				</g>
			</g>
			
				<rect x="501.07" y="418.81" transform="matrix(0.8762 -0.4819 0.4819 0.8762 -137.1575 307.6766)" class="st3" width="58.64" height="4.08"/>
			<g>
				
					<rect x="504.06" y="425.2" transform="matrix(0.8762 -0.4819 0.4819 0.8762 -139.4662 309.8109)" class="st3" width="58.66" height="2.43"/>
				
					<rect x="506" y="428.73" transform="matrix(0.8762 -0.4819 0.4819 0.8762 -140.9283 311.184)" class="st3" width="58.66" height="2.43"/>
				
					<rect x="507.95" y="432.27" transform="matrix(0.8762 -0.4819 0.4819 0.8762 -142.3905 312.5578)" class="st3" width="58.66" height="2.43"/>
			</g>
			<g>
				
					<rect x="517.82" y="450.57" transform="matrix(0.8762 -0.4819 0.4819 0.8762 -149.8381 319.4719)" class="st3" width="58.38" height="1.72"/>
				
					<rect x="519.2" y="453.08" transform="matrix(0.8762 -0.4819 0.4819 0.8762 -150.8766 320.4476)" class="st3" width="58.38" height="1.72"/>
				
					<rect x="520.58" y="455.59" transform="matrix(0.8762 -0.4819 0.4819 0.8762 -151.9153 321.4243)" class="st3" width="58.38" height="1.72"/>
			</g>
			
				<rect x="515.73" y="445.74" transform="matrix(0.8762 -0.4819 0.4819 0.8762 -153.6172 308.1772)" class="st3" width="14.82" height="14.82"/>
			
				<rect x="530.71" y="435.06" transform="matrix(0.8762 -0.4819 0.4819 0.8762 -146.0726 316.2095)" class="st3" width="23.67" height="14.82"/>
			
				<rect x="554" y="424.69" transform="matrix(0.8762 -0.4819 0.4819 0.8762 -138.7387 324.014)" class="st3" width="14.82" height="14.82"/>
		</g>
		<g>
			<g>
				<path class="st1" d="M548.13,399.3l25.3,46.01l-57.47,31.61l-25.3-46.01c-0.57-1.04-0.19-2.35,0.85-2.92l53.71-29.54
					C546.25,397.88,547.56,398.26,548.13,399.3z"/>
				<path class="st4" d="M548.13,399.3l1.38,2.51l-57.47,31.61l-1.38-2.51c-0.57-1.04-0.19-2.35,0.85-2.92l53.71-29.54
					C546.25,397.88,547.56,398.26,548.13,399.3z"/>
				<g>
					<path class="st3" d="M495.33,429.08c0.3,0.55,0.1,1.23-0.45,1.53c-0.55,0.3-1.23,0.1-1.53-0.45c-0.3-0.55-0.1-1.23,0.45-1.53
						C494.34,428.33,495.03,428.53,495.33,429.08z"/>
					<path class="st3" d="M498.24,427.48c0.3,0.55,0.1,1.23-0.45,1.53c-0.55,0.3-1.23,0.1-1.53-0.45c-0.3-0.55-0.1-1.23,0.45-1.53
						C497.25,426.73,497.94,426.93,498.24,427.48z"/>
					<path class="st3" d="M501.15,425.88c0.3,0.55,0.1,1.23-0.45,1.53c-0.55,0.3-1.23,0.1-1.53-0.45c-0.3-0.55-0.1-1.23,0.45-1.53
						C500.16,425.13,500.85,425.33,501.15,425.88z"/>
				</g>
			</g>
			
				<rect x="493.13" y="419.63" transform="matrix(0.8762 -0.4819 0.4819 0.8762 -138.4537 304.3924)" class="st3" width="60.43" height="4.2"/>
			<g>
				
					<rect x="496.21" y="426.21" transform="matrix(0.8762 -0.4819 0.4819 0.8762 -140.8331 306.5922)" class="st3" width="60.46" height="2.5"/>
				
					<rect x="498.22" y="429.85" transform="matrix(0.8762 -0.4819 0.4819 0.8762 -142.3397 308.0064)" class="st3" width="60.46" height="2.5"/>
				
					<rect x="500.22" y="433.5" transform="matrix(0.8762 -0.4819 0.4819 0.8762 -143.8468 309.4231)" class="st3" width="60.46" height="2.5"/>
			</g>
			<g>
				
					<rect x="510.4" y="452.36" transform="matrix(0.8762 -0.4819 0.4819 0.8762 -151.5223 316.5495)" class="st3" width="60.17" height="1.78"/>
				
					<rect x="511.82" y="454.95" transform="matrix(0.8762 -0.4819 0.4819 0.8762 -152.5923 317.5535)" class="st3" width="60.17" height="1.78"/>
				
					<rect x="513.24" y="457.54" transform="matrix(0.8762 -0.4819 0.4819 0.8762 -153.6626 318.559)" class="st3" width="60.17" height="1.78"/>
			</g>
			
				<rect x="508.24" y="447.38" transform="matrix(0.8762 -0.4819 0.4819 0.8762 -155.4171 304.9091)" class="st3" width="15.27" height="15.27"/>
			
				<rect x="523.68" y="436.38" transform="matrix(0.8762 -0.4819 0.4819 0.8762 -147.6418 313.188)" class="st3" width="24.39" height="15.27"/>
			
				<rect x="547.68" y="425.69" transform="matrix(0.8762 -0.4819 0.4819 0.8762 -140.0834 321.2306)" class="st3" width="15.27" height="15.27"/>
		</g>
		<g>
			<rect x="507.39" y="433.71" class="st18" width="70" height="50.55"/>
			<rect x="487.72" y="433.71" class="st23" width="20.2" height="50.55"/>
			<polygon class="st31" points="507.95,433.71 512.53,450.38 583.78,450.38 577.39,433.71 			"/>
			<polygon class="st18" points="507.91,433.71 502.64,450.29 481.94,450.31 487.78,433.71 			"/>
		</g>
	</g>
</g>
</svg>
