<?xml version="1.0" encoding="utf-8"?>
<!-- Generator: Adobe Illustrator 26.0.3, SVG Export Plug-In . SVG Version: 6.00 Build 0)  -->
<svg version="1.1" id="Layer_1" xmlns="http://www.w3.org/2000/svg" xmlns:xlink="http://www.w3.org/1999/xlink" x="0px" y="0px"
	 viewBox="0 0 2800 2000" style="enable-background:new 0 0 2800 2000;" xml:space="preserve">
<style type="text/css">
	.st0{fill:#B75742;}
	.st1{fill:#86B1F2;}
	.st2{fill:#F47257;}
	.st3{fill:#3C8F7C;}
	.st4{fill:#96D9C9;}
	.st5{fill:#50BFA5;}
	.st6{fill:#F7CC7F;}
	.st7{fill:#FAE0B2;}
	.st8{fill:#FFFFFF;}
	.st9{fill:#F48C7F;}
	.st10{fill:#13375B;}
	.st11{fill:#466EB6;}
	.st12{fill:#F7A491;}
	.st13{fill:#F8A492;}
	.st14{fill:#F47458;}
	.st15{fill:#184655;}
	.st16{fill:#355389;}
</style>
<g>
	<g>
		<path class="st0" d="M1980.71,1534.33c-30.46-25.48-46.08-49.06-48.9-53.53l107.14-67.68c0,0-0.15-0.25-0.46-0.71
			c0.09,0.13,9.01,13.26,26.85,27.42c22.78,18.07,49.25,29.61,78.69,34.3c37.47,5.97,76.14-6.53,101.97-18.06
			c28.8-12.85,48.11-27.26,48.29-27.4l95,18.36l-17.86,82.18c-37.12,28.48-96.13,56.63-150.81,67.49
			C2129.89,1614.71,2043.26,1586.65,1980.71,1534.33z"/>
	</g>
	<path class="st1" d="M2135.74,642.68l25.15-13.03l24.99,13.32c2.85,1.52,6.2-0.89,5.67-4.07l-4.63-27.94l20.4-19.65
		c2.32-2.24,1.07-6.17-2.12-6.65l-28-4.24l-12.39-25.47c-1.41-2.9-5.54-2.92-6.98-0.04l-12.68,25.33l-28.05,3.91
		c-3.2,0.45-4.49,4.36-2.2,6.63l20.17,19.89l-4.95,27.89C2129.56,641.73,2132.88,644.17,2135.74,642.68z"/>
	<rect x="845.75" y="1154.34" class="st2" width="1237.26" height="129.51"/>
	<g>
		<path class="st3" d="M1753.91,1612.73c-279.01-147.52-582.05-238.33-893.18-267.63c11.53-135,23.05-270,34.58-405
			c359.73,33.88,710.12,138.87,1032.71,309.44C1869.99,1370.61,1811.95,1491.67,1753.91,1612.73z"/>
		<path class="st4" d="M888.16,1271.06c7.86-84.2,15.71-168.39,23.57-252.58c32.7,3.35,61.99-17.75,65.55-47.99
			c299.9,37.67,592.19,125.25,865.87,259.45c-12.17,27.66,2.11,61.82,31.57,77.09c-35.63,75.87-71.26,151.75-106.89,227.62
			c-27.11-14.05-59.19-2.43-71.35,25.21c-240.33-117.85-497-194.75-760.37-227.83C939.66,1301.79,918.25,1274.15,888.16,1271.06z"/>
		<g>
			<path class="st5" d="M1531.99,1284.95c-25.15,72.42-102.7,109.32-174.64,87.21c-71.89-22.28-118.08-97.38-101.92-172.57
				c16.12-75.06,95.92-120.05,176.81-95.03C1513.16,1129.49,1557.11,1212.66,1531.99,1284.95z"/>
			<path class="st3" d="M1356.75,1346.66c2.01-8.08,4.02-16.17,6.03-24.25c-10.83-3.52-21.1-8.48-29.32-13.73
				c-6.85-4.38-9.35-13.25-5.64-20.32c0.15-0.28,0.3-0.57,0.45-0.85c4.08-7.79,14.12-10.28,21.69-5.29
				c7.71,5.08,16.78,9.62,26.88,12.44c14.69,4.11,26.18,1.46,28.84-8.72c2.51-9.66-4.18-18.24-21.96-30.03
				c-25.7-16.98-42.11-34.69-36.44-59.6c5.12-22.56,25.94-36.06,56.28-33.41c1.99-8.09,3.97-16.18,5.95-24.27
				c8.92,2.47,17.83,4.99,26.73,7.55c-1.91,7.48-3.81,14.95-5.72,22.43c9.72,3.25,17.46,6.87,23.74,10.58
				c7.69,4.54,10.39,14,6.19,21.13l0,0c-4.35,7.37-14.33,9.49-22.07,4.67c-5.81-3.61-13.21-7.29-22.66-9.98
				c-17.41-4.95-24.8,0.71-26.54,7.86c-2.07,8.45,5.99,16.31,26.34,30.93c28.65,19.83,37.22,37.77,30.93,60.53
				c-6.27,22.57-27.66,36.73-58.22,33.38c-2.24,8.66-4.48,17.31-6.72,25.97C1373.26,1351.28,1365.01,1348.95,1356.75,1346.66z"/>
			<path class="st5" d="M1212.83,1196.78c-71.11-16.41-142.91-29.78-215.21-40.05c1.67-12.98,3.34-25.96,5.02-38.94
				c73.32,10.42,146.12,23.97,218.23,40.61C1218.18,1171.19,1215.51,1183.99,1212.83,1196.78z"/>
			<path class="st5" d="M1767.33,1393.67c-66.18-32.36-133.51-61.83-201.83-88.34c4.32-12.29,8.65-24.57,12.97-36.86
				c69.27,26.88,137.55,56.76,204.65,89.57C1777.86,1369.92,1772.59,1381.8,1767.33,1393.67z"/>
		</g>
	</g>
	<g>
		<path class="st3" d="M1884.28,1149.37c-287.87,60.14-561.98,180.66-807.91,355.22c-66.45-114.66-132.9-229.32-199.35-343.98
			c284.35-201.83,601.29-341.18,934.13-410.71C1835.53,883.05,1859.91,1016.21,1884.28,1149.37z"/>
		<path class="st4" d="M1055.5,1428.27c-40.95-71.93-81.9-143.87-122.85-215.8c26-18.13,35.9-53.53,21.74-79.84
			c242.29-160.77,506.68-277.01,783.21-344.36c6.38,29.73,35.88,47.81,66.1,41.22c15.83,82.98,31.65,165.96,47.48,248.94
			c-27.81,6.07-45.04,35.71-38.67,65.42c-242.84,59.14-475.01,161.22-687.78,302.4C1110.58,1419.96,1079.43,1411.59,1055.5,1428.27z
			"/>
		<g>
			<path class="st5" d="M1538.46,1029.9c21.65,73.57-15.12,152.22-80.49,180.39c-65.44,28-141.23-2.32-171.05-72.39
				c-29.78-69.93,4.15-156.44,77.75-187.99C1438.25,918.27,1516.87,956.45,1538.46,1029.9z"/>
			<path class="st3" d="M1443.37,1190.4c-3-7.71-6.01-15.41-9.02-23.11c-9.96,4.09-20.29,6.67-29.27,7.73
				c-7.49,0.88-14.26-4.59-15.45-12.57c-0.05-0.32-0.1-0.64-0.14-0.96c-1.31-8.78,4.71-17.15,13.07-18
				c8.51-0.87,17.73-3.02,26.75-7.2c13.13-6.08,20.14-15.49,16.45-25.28c-3.51-9.27-13.21-11.84-32.88-9.91
				c-28.4,2.85-50.34-0.8-60-24.21c-8.75-21.19-0.87-45.17,22.99-62.35c-3.03-7.69-6.06-15.39-9.09-23.08
				c7.96-3.71,15.93-7.37,23.93-10.99c2.74,7.16,5.49,14.31,8.23,21.47c8.98-3.6,16.7-5.64,23.4-6.69
				c8.19-1.28,15.44,4.52,16.3,12.86l0,0c0.88,8.63-5.31,16.65-13.69,17.75c-6.29,0.82-13.8,2.6-22.27,6.47
				c-15.6,7.14-17.91,16.34-15.23,23.12c3.16,8.04,13.48,9.16,36.61,7.84c32.16-2.46,48.45,6.36,56.44,28.46
				c7.9,21.93-0.02,46.79-24.44,63.56c3.16,8.31,6.31,16.61,9.46,24.92C1458.13,1183.57,1450.74,1186.96,1443.37,1190.4z"/>
			<path class="st5" d="M1253.92,1162.75c-61.61,32.17-122.03,67.2-181.1,105.02c-5.97-11.38-11.95-22.77-17.92-34.15
				c59.9-38.34,121.17-73.86,183.64-106.49C1243.66,1139.01,1248.79,1150.88,1253.92,1162.75z"/>
			<path class="st5" d="M1772.55,966.67c-66.82,16.35-132.88,35.75-198.03,58.12c-3.63-12.52-7.26-25.03-10.89-37.55
				c66.06-22.68,133.05-42.35,200.8-58.93C1767.14,941.1,1769.84,953.89,1772.55,966.67z"/>
		</g>
	</g>
	<g>
		<path class="st3" d="M1930.21,1401.01c-299.37-18.14-599.19,25.8-883.64,129.51c-39.16-128.59-78.33-257.18-117.49-385.77
			c328.9-119.91,675.54-170.72,1021.69-149.74C1943.92,1130.34,1937.07,1265.67,1930.21,1401.01z"/>
		<path class="st4" d="M1043.66,1451.12c-23.84-80.48-47.68-160.95-71.52-241.43c29.99-10.65,48.06-42.28,40.15-71.5
			c277.64-91.33,566.81-133.71,856.63-125.55c-0.61,30.47,24.43,55.78,55.93,57.42c-3.64,84.5-7.28,169.01-10.92,253.51
			c-28.99-1.5-52.97,22.61-53.57,53.05c-254.51-7.17-508.44,30.05-752.25,110.25C1100.2,1457.69,1071.26,1441.33,1043.66,1451.12z"
			/>
		<g>
			<path class="st5" d="M1615.22,1193.67c4.33,76.94-50.44,143.31-121.81,153.23c-71.39,9.74-139.47-39.71-152.7-115.42
				c-13.23-75.58,40.55-150.3,120.86-161.31C1541.88,1059.06,1610.93,1116.86,1615.22,1193.67z"/>
			<path class="st3" d="M1483.58,1323.78c-1.18-8.25-2.37-16.51-3.55-24.76c-10.82,1.32-21.66,1.08-30.81-0.28
				c-7.63-1.14-13.07-8.23-12.39-16.26c0.03-0.32,0.05-0.65,0.08-0.97c0.75-8.85,8.66-15.35,17.15-13.96
				c8.64,1.42,18.28,1.78,28.19,0.13c14.43-2.4,23.57-9.65,22.19-20.1c-1.32-9.91-10.34-14.96-30.29-18.31
				c-28.82-4.78-49.72-14.13-53.84-39.34c-3.74-22.83,9.66-43.94,37.32-54.24c-1.21-8.25-2.42-16.5-3.63-24.75
				c8.75-1.48,17.51-2.91,26.28-4.29c1.05,7.65,2.1,15.31,3.16,22.96c9.74-1.1,17.87-1.03,24.75-0.27
				c8.42,0.93,14.26,8.47,13.16,16.77l0,0c-1.13,8.58-9.14,14.71-17.71,13.54c-6.43-0.88-14.28-1.14-23.58,0.36
				c-17.13,2.77-21.56,11.06-20.48,18.34c1.26,8.62,11.22,12.44,34.47,17.29c32.45,6.15,46.55,19,49.32,42.51
				c2.72,23.32-10.92,45.28-39.04,55.03c1.19,8.88,2.39,17.75,3.58,26.63C1499.79,1321.08,1491.68,1322.41,1483.58,1323.78z"/>
			<path class="st5" d="M1302.2,1246.78c-68.57,14.8-136.62,32.68-203.99,53.6c-3.27-12.6-6.54-25.2-9.81-37.8
				c68.31-21.22,137.32-39.35,206.85-54.35C1297.57,1221.08,1299.88,1233.93,1302.2,1246.78z"/>
			<path class="st5" d="M1862.01,1194.57c-70.05-1.89-140.06-0.64-209.85,3.72c-0.68-13.08-1.37-26.15-2.05-39.23
				c70.77-4.43,141.75-5.7,212.79-3.78C1862.6,1168.38,1862.3,1181.47,1862.01,1194.57z"/>
		</g>
	</g>
	<rect x="845.75" y="1154.34" class="st2" width="1237.26" height="544.53"/>
	<path class="st0" d="M2083.01,1559.85h-306.16c-13.57,0-24.58,11.52-24.58,25.74l0,0c0,14.21,11,25.74,24.58,25.74h-39.7
		c-13.57,0-24.58,11.52-24.58,25.74l0,0c0,14.21,11,25.74,24.58,25.74h6.88c-13.58,0-24.58,11.52-24.58,25.74
		c0,3.68,0.74,7.17,2.07,10.33h361.49V1559.85z"/>
	<rect x="891.34" y="1181.15" class="st0" width="1126.31" height="42.29"/>
	<g>
		<path class="st3" d="M1381.97,1692.11H873.7c-22.96,0-41.57-18.61-41.57-41.57V1395.5c0-22.96,18.61-41.57,41.57-41.57h508.27
			c22.96,0,41.57,18.61,41.57,41.57v255.04C1423.54,1673.5,1404.93,1692.11,1381.97,1692.11z"/>
		<rect x="870.15" y="1421.18" class="st6" width="145.64" height="84.67"/>
		<rect x="1127.83" y="1399.73" class="st6" width="258.27" height="15.81"/>
		<rect x="891.6" y="1580.37" class="st6" width="475.3" height="19.53"/>
		<rect x="891.6" y="1626.35" class="st6" width="475.3" height="19.53"/>
	</g>
	<rect x="905.65" y="1293.37" class="st0" width="525.16" height="14.04"/>
	<g>
		<circle class="st7" cx="1731.4" cy="1085.74" r="116.96"/>
		<path class="st6" d="M1811.73,1029.36c31.14,44.37,20.41,105.57-23.95,136.71c-44.37,31.14-105.57,20.41-136.71-23.95
			c-31.14-44.37-20.41-105.57,23.95-136.71C1719.38,974.27,1780.59,984.99,1811.73,1029.36z"/>
		<g>
			<path class="st8" d="M1742.73,1154.78l-4.28-15.82c-7.23,1.61-14.61,2.16-20.89,1.84c-5.25-0.27-9.38-4.57-9.45-9.83l-0.01-0.63
				c-0.08-5.79,4.78-10.46,10.56-10.08c5.89,0.39,12.39-0.01,18.9-1.77c9.49-2.57,14.99-7.99,13.19-14.64
				c-1.71-6.33-8.12-8.88-21.57-9.71c-19.43-1.17-33.84-6.21-38.21-22.36c-3.96-14.65,3.25-28.93,20.12-37.24l-4.28-15.82
				l16.32-4.41l3.96,14.65c6.13-1.37,11.32-1.9,15.78-1.92c5.45-0.02,9.89,4.39,9.96,9.84l0,0c0.07,5.64-4.54,10.23-10.17,10.1
				c-4.23-0.1-9.31,0.29-15.19,1.88c-10.82,2.93-13.06,8.53-11.79,13.2c1.49,5.49,8.26,7.41,23.85,8.91
				c21.7,1.63,32.17,8.63,36.22,23.61c4.01,14.82-3.06,30.31-21.3,38.81l4.59,16.98L1742.73,1154.78z"/>
		</g>
	</g>
	<g>
		
			<ellipse transform="matrix(0.7071 -0.7071 0.7071 0.7071 -492.9824 1729.9456)" class="st7" cx="1841.74" cy="1460.06" rx="116.96" ry="116.96"/>
		<path class="st6" d="M1922.07,1403.68c31.14,44.37,20.41,105.57-23.95,136.71c-44.37,31.14-105.57,20.41-136.71-23.95
			c-31.14-44.37-20.41-105.57,23.95-136.71S1890.93,1359.31,1922.07,1403.68z"/>
		<g>
			<path class="st8" d="M1853.07,1529.09l-4.28-15.82c-7.23,1.61-14.61,2.16-20.89,1.84c-5.25-0.27-9.38-4.57-9.45-9.83l-0.01-0.63
				c-0.07-5.79,4.79-10.46,10.56-10.08c5.89,0.39,12.38-0.01,18.9-1.77c9.49-2.57,14.99-7.99,13.19-14.64
				c-1.71-6.33-8.12-8.88-21.56-9.71c-19.44-1.18-33.84-6.21-38.21-22.36c-3.96-14.65,3.25-28.93,20.12-37.24l-4.28-15.82
				l16.32-4.41l3.96,14.65c6.13-1.37,11.32-1.9,15.78-1.92c5.45-0.02,9.89,4.39,9.96,9.84l0,0c0.07,5.64-4.54,10.22-10.17,10.1
				c-4.23-0.1-9.31,0.29-15.19,1.88c-10.82,2.93-13.06,8.53-11.8,13.19c1.49,5.49,8.26,7.42,23.85,8.92
				c21.7,1.63,32.17,8.63,36.22,23.61c4.01,14.82-3.06,30.31-21.3,38.81l4.59,16.98L1853.07,1529.09z"/>
		</g>
	</g>
	<g>
		
			<ellipse transform="matrix(0.9999 -0.0167 0.0167 0.9999 -21.6609 27.0785)" class="st7" cx="1614.43" cy="1313.63" rx="116.96" ry="116.96"/>
		
			<ellipse transform="matrix(0.9135 -0.4068 0.4068 0.9135 -394.7881 770.4411)" class="st6" cx="1614.43" cy="1313.63" rx="98.14" ry="98.14"/>
		<g>
			<path class="st8" d="M1584.05,1376.65l5.59-15.4c-6.85-2.83-13.2-6.62-18.16-10.5c-4.14-3.24-5.05-9.13-2.09-13.48l0.36-0.52
				c3.26-4.78,9.93-5.82,14.44-2.19c4.6,3.7,10.14,7.11,16.49,9.41c9.24,3.35,16.86,2.08,19.21-4.41
				c2.23-6.16-1.54-11.93-12.07-20.34c-15.23-12.13-24.13-24.53-18.43-40.25c5.17-14.27,19.28-21.81,37.86-18.92l5.58-15.4
				l15.89,5.76l-5.17,14.27c5.8,2.4,10.36,4.95,14.02,7.5c4.47,3.12,5.57,9.28,2.5,13.78l0,0c-3.18,4.66-9.59,5.76-14.13,2.42
				c-3.4-2.51-7.79-5.11-13.51-7.18c-10.54-3.82-15.59-0.52-17.24,4.02c-1.94,5.35,2.5,10.81,14.4,21
				c16.82,13.81,21.37,25.54,16.08,40.14c-5.23,14.43-19.92,23.05-39.74,19.53l-6,16.54L1584.05,1376.65z"/>
		</g>
	</g>
	<rect x="1487.94" y="1381.08" class="st9" width="529.71" height="283.89"/>
	<path class="st0" d="M1752.27,1585.58L1752.27,1585.58c0,14.21,11,25.74,24.58,25.74h-39.7c-13.57,0-24.58,11.52-24.58,25.74l0,0
		c0,14.21,11,25.74,24.58,25.74h6.88c-3.51,0-6.85,0.78-9.88,2.17h283.49v-105.12h-240.79
		C1763.28,1559.85,1752.27,1571.37,1752.27,1585.58z"/>
	<g>
		<g>
			<path class="st10" d="M412.71,1690.57L412.71,1690.57c0,4.59,3.45,8.3,7.7,8.3h1920.48c4.25,0,7.7-3.71,7.7-8.3l0,0
				c0-4.58-3.45-8.3-7.7-8.3H420.41C416.16,1682.27,412.71,1685.98,412.71,1690.57z"/>
		</g>
		<path class="st6" d="M2086.11,1714.27h-316.17c-12.69,0-22.97-10.29-22.97-22.97l0,0c0-12.69,10.28-22.97,22.97-22.97h316.17
			c12.69,0,22.97,10.28,22.97,22.97l0,0C2109.08,1703.99,2098.8,1714.27,2086.11,1714.27z"/>
		<path class="st7" d="M2079.69,1668.33h-316.16c-12.69,0-22.97-10.28-22.97-22.97l0,0c0-12.69,10.28-22.97,22.97-22.97h316.16
			c12.69,0,22.97,10.28,22.97,22.97l0,0C2102.66,1658.05,2092.37,1668.33,2079.69,1668.33z"/>
		<path class="st6" d="M2116.79,1622.39h-316.17c-12.69,0-22.97-10.28-22.97-22.97l0,0c0-12.69,10.28-22.97,22.97-22.97h316.17
			c12.69,0,22.97,10.28,22.97,22.97l0,0C2139.76,1612.11,2129.47,1622.39,2116.79,1622.39z"/>
	</g>
	<polygon class="st11" points="1714.65,627.73 1718.68,654.95 1675.6,666.25 1676.58,706.77 1645.73,720.5 1652.68,736.12 
		1693.94,717.75 1693.02,679.36 1737.83,667.59 1731.77,626.64 	"/>
	<g>
		<path class="st4" d="M1307.33,541.58l8.3-20.6c-9.14-4.17-17.56-9.6-24.1-15.09c-5.46-4.58-6.41-12.62-2.19-18.35l0.51-0.69
			c4.65-6.33,13.72-7.4,19.66-2.27c6.05,5.23,13.4,10.11,21.89,13.53c12.36,4.98,22.74,3.62,26.23-5.05
			c3.32-8.24-1.52-16.24-15.38-28.12c-20.05-17.15-31.51-34.37-23.04-55.4c7.69-19.08,27.16-28.62,52.19-23.83l8.3-20.6l21.25,8.56
			l-7.69,19.08c7.74,3.53,13.8,7.2,18.63,10.83c5.91,4.44,7.1,12.83,2.72,18.78l0,0c-4.53,6.16-13.26,7.35-19.25,2.6
			c-4.49-3.56-10.31-7.29-17.96-10.38c-14.09-5.68-21.09-1.44-23.54,4.63c-2.88,7.15,2.87,14.77,18.5,29.13
			c22.13,19.5,27.73,35.62,19.87,55.14c-7.78,19.3-28.08,30.27-54.76,24.56l-8.91,22.12L1307.33,541.58z"/>
	</g>
	<path class="st1" d="M1346.59,761.38c2.17,3.51,1.55,8.07-1.48,10.87c-5.95,5.5-15.42,11.93-26.95,16.25
		c-16.87,6.33-35.6,6.94-52.48-0.72c-10.55-4.79-20.2-13.42-27.01-24.57l-9.97,3.74c-3.39,1.27-7.17-0.44-8.44-3.83l-0.1-0.26
		c-1.27-3.39,0.44-7.17,3.83-8.44l8.18-3.07c-1.31-2.72-2.24-4.41-2.81-5.94c-0.96-2.56-1.86-5.72-2.59-9.24l-8.44,3.17
		c-3.39,1.27-7.17-0.44-8.44-3.83l0,0c-1.27-3.39,0.44-7.17,3.83-8.44l10.23-3.84c-1.6-12.81,0.09-25.41,4.88-35.95
		c8.14-17.93,23.48-30.69,41.12-37.31c10.28-3.86,18.74-5,25.58-5.07c4.76-0.05,8.7,3.67,8.92,8.42l0.01,0.15
		c0.23,4.93-3.61,9.05-8.54,9.25c-5.6,0.22-12.22,1.34-19.89,4.22c-11.25,4.22-21.15,12.02-26.84,24.07
		c-3.2,7.03-4.69,15.47-3,23.87l57.52-21.59c3.39-1.27,7.17,0.44,8.44,3.83l0,0c1.27,3.39-0.44,7.17-3.83,8.44l-60.07,22.55
		c0.8,2.91,1.6,5.82,2.27,7.61c0.86,2.3,1.73,4.6,3.13,7.57l60.2-22.6c3.46-1.3,7.32,0.45,8.61,3.91l0,0
		c1.3,3.46-0.45,7.32-3.91,8.61l-57.65,21.64c4.57,6.74,10.55,11.79,16.88,14.66c12.56,5.49,24.13,5.23,36.91,0.44
		c7.79-2.92,14.27-6.94,19.2-10.82C1337.95,755.95,1343.88,756.99,1346.59,761.38L1346.59,761.38z"/>
	<polygon class="st5" points="1189.56,556.35 1163.44,559 1154.54,517.45 1115.88,516.62 1104.13,486.62 1088.94,492.56 
		1104.65,532.69 1141.29,533.48 1150.56,576.71 1189.85,572.72 	"/>
	<g>
		<path class="st7" d="M1491.37,525.28l27.94,9.22c0,0,44.3-14.35,48.66-23.38c4.36-9.03,5.59-30.94,11.9-31.53
			c6.3-0.6,18.49,1.45,21.39,16.45c2.11,10.88-13.83,42.34-11.34,45.69c1.56,2.1,17.46,7.85,29.15,11.87
			c7.69,2.64,13.23,9.41,14.41,17.57l0,0.02c0.8,5.52-2.33,10.89-7.49,12.88l-8.04,3.1l2.56,8.3c1.91,6.18-1.48,12.82-7.58,14.87
			l-6.22,2.09l1.99,5.06c2.56,6.51-1.05,13.9-7.74,15.84l-5.43,1.58l0.22,1.45c0.93,6.04-2.85,11.86-8.72,13.39l-5.4,1.42
			l-74.41-24.56c-6.97-2.3-13.39-6.03-18.86-10.95l-24.71-13.04c-2.66-1.4-3.88-4.58-2.88-7.46l22.91-65.97
			C1484.81,525.97,1488.22,524.24,1491.37,525.28z"/>
	</g>
	<path class="st6" d="M1049.38,820.83l5.92-29.32l27.51-11.75c3.13-1.34,3.37-5.69,0.4-7.36l-26.06-14.69l-2.67-29.79
		c-0.3-3.39-4.37-4.96-6.88-2.66l-22.02,20.24l-29.16-6.66c-3.32-0.76-6.07,2.62-4.65,5.72l12.45,27.2l-15.35,25.67
		c-1.75,2.92,0.62,6.58,4,6.19l29.71-3.43l19.68,22.53C1044.5,825.28,1048.71,824.17,1049.38,820.83z"/>
	<g>
		<g>
			<path class="st12" d="M690.42,1541.03c0,0-36.66,26.43-42.44,34.32c-8.32,11.36,62.11,32.6,54.43,19.3
				c-1.77-3.06-6.84-13.35-7.06-14.36c-1.18-5.42,13.76-20,13.76-20L690.42,1541.03z"/>
			<path class="st6" d="M721.46,1616.88l-24.9-35.18c0,0-15.54-3.61-31.5-21.56c0,0-14.34,5.47-23.16,17.34
				c0,0,16.67,17.96,42.35,38.18c0,0,15.22,13.48,36.26,20.59C741.55,1643.35,721.46,1616.88,721.46,1616.88z"/>
			<path class="st13" d="M384.02,1059.28c0,0,4.51,3.98,6.1,5.2c1.87,1.42,7.78,5.27,7.78,5.27s21.4,12.17,22.12,10.57
				c0.73-1.6,0.69-6.22-0.36-7.44s-4.14-2.47-5.2-3.68c-1.06-1.21-1.42-3.67-0.06-5.02c1.36-1.36,8.67,2.64,8.67,2.64
				s5.92,3.29,8.4,7.27c8.58,13.77,5.98,14.57,7.13,16.31c1.36,2.05,31.37,15.68,31.37,15.68s89.73,37.3,94.57,39.34h0.06
				c0.65,4.16-1.57,7.98-2.71,11.66c-2.15,12.82-5.96,13.67-8.87,26.03c-13.76-6.96-109.04-59.45-118.72-64.92
				c0,0-14.51-2.48-23.58-4.33s-16.97-7.59-19.46-8.5c-0.37-0.13-8.48-3.63-17.4-10.55c-7.69-5.96,2.24-3.71,2.24-3.71
				s16.16,8.57,16.58,7.21c0.32-1.05-8.76-5.22-17.33-11.72c-2.2-1.67-4.37-3.33-6.35-4.87c-5.2-4.04-4.29-8.28,1.8-4.89
				c2.15,1.2,5.68,3.27,8,5.09c2.5,1.97,5.42,3,7.76,4.35c4.66,2.67,8.03,4.68,8.03,4.43c0-0.32,1.28-0.43-1.01-2.27
				c-2.75-2.22-9.6-5.69-13.4-9.25c-2.15-2.02-6.9-5.99-6.9-5.99s-6.1-7.29-5.8-7.77c1.61-2.62,7.15,1.24,9.73,4.36
				c2.64,1.18,7.52,5.49,7.52,5.49s11.77,6.57,12.68,4.96c0.39-0.68-6.38-5.56-12.28-11.34c-5.48-5.37-10.17-11.66-9.3-12.87
				C377.31,1053.94,384.02,1059.28,384.02,1059.28z"/>
			<path class="st0" d="M634.34,1269.36l5.8,28.68l145.79,132.61l-104.36,105.61l28.18,28.8c0,0,154.13-113.18,159.68-128.01
				c8.55-22.83-110.48-174.09-110.48-174.09L634.34,1269.36z"/>
			<path class="st12" d="M533.25,1616.2c0,0-29.41,32.05-35.19,39.94c-8.32,11.36,53.79,28.13,46.11,14.83
				c-1.77-3.06-6.84-13.35-7.06-14.36c-1.18-5.42,13.76-20,13.76-20L533.25,1616.2z"/>
			<path class="st6" d="M576.91,1669.95l-40.48-14.79c0,0-15.3,6.95-38.63,1.26c0,0-8.23,11.56-8.75,26.33
				c0,0,76.73,9.78,98.08,3.67C608.48,1680.31,576.91,1669.95,576.91,1669.95z"/>
			<path class="st14" d="M639.33,1282.65l6.55,180.95l-129.36,158.61l35,19.17c0,0,143.1-122.82,158.81-157.03
				c9.75-21.22,42.54-213.03,42.54-213.03L639.33,1282.65z"/>
			<path class="st7" d="M756.93,1267.8c-11.86-26.76-10.49-218.61-56.63-263.55c-16.24,2.74-27.82,4.28-30.53,4.99
				c-2.41,19.76-5.06,92.28-6.68,158.75c-1.08,44.28,0.03,90.72-5.42,115.19C654.28,1298.36,767.76,1292.25,756.93,1267.8z"/>
			<path class="st11" d="M632.01,1019.15c-12.95,2.95-22.49,5.03-39.47,30.11c-16.26,24.01-52.35,80.99-52.35,80.99l-95.07-42.22
				l-4.44,48.15c0,0,107.55,55.91,122.72,50.87c15.17-5.04,57.84-67.4,60.99-71.61c0.74-0.99-3.58,66.6-3.58,77.4
				c0,10.8-20.62,104.83-20.62,104.83s52.32,12.88,62.53-10.51c31.31-71.71,7.28-277.97,7.28-277.97S641.34,1017.02,632.01,1019.15z
				"/>
			<path class="st12" d="M827.29,813.82c-4-3.35-5.74-11.36-6.4-16.53l-1.78-6.83c1.62-0.66,33.33-5.18,42.89-5.42
				c0.93,3.02,1.39,5.58,1.1,7.21c-1.42,7.82-11.4,58.55-11.4,58.55l-27.3,0.54C824.39,851.35,830.33,821.27,827.29,813.82z"/>
			<path class="st11" d="M710.99,1015.48c0,0,18.73,53.31,34.15,45.63c15.42-7.68,102.03-95.98,102.88-100.24
				c0.86-4.27,6.85-112.64,6.85-112.64l-34.26-6.83l-19.7,88.75c0,0-63.38,60.59-76.22,66.56
				C711.85,1002.68,710.99,1015.48,710.99,1015.48z"/>
			<path class="st11" d="M761.56,1280.63c10.37,0,14.2-1.43,21.11-3.51c0,0-19.75-111.31-31.23-221.69
				c-4.54-43.6-8.75-61.48-26.73-58.32c-5.2,0.91-19.29,6.28-24.41,7.14c45.2,127.9,45.36,226.34,51.76,254.89
				C755.27,1273.47,758.06,1280.72,761.56,1280.63z"/>
			<path class="st12" d="M695.53,984.93l4.74,19.32c0,0,1.08,16.82-6.73,18.33c-9.42,1.82-23.41-12.27-23.41-12.27l-8.1-54.5
				L695.53,984.93z"/>
			<path class="st12" d="M695.53,984.93l4.74,19.32c0,0,1.08,16.82-6.73,18.33c-9.42,1.82-23.41-12.27-23.41-12.27l-8.1-54.5
				L695.53,984.93z"/>
			<path class="st14" d="M662.1,956.08l33.43,28.85l3.54,14.43C686.29,996.29,668.07,982.23,662.1,956.08z"/>
			<path class="st12" d="M695.64,905.94c8.08-0.03,15.36,5.59,18.2,13.65c2.36,6.69,5.37,16.6,7.29,27.98
				c3.54,20.96-8.4,40.14-18.78,41.67s-35.12-5.35-40.59-35.03c-2.34-12.73-5.43-29.42,5.04-38.19
				C674.94,909.2,686.35,905.97,695.64,905.94z"/>
			<path class="st15" d="M665.14,976.83c0,0-36.6-32.62-38.2-58.11c-1.6-25.48,21.94-39.14,42.07-39.85
				c9.09-0.32,15.24,0.09,24.63,1.27c20.16,2.54,33.23,11.48,28.63,28c-6.18,22.18-48.02,3.47-56.58,10.35
				c-7.06,5.68,4.39,19.35-2.47,24.56c-6.45,4.9-3.16,3.24-1.03,12.56C664.32,964.93,665.14,976.83,665.14,976.83z"/>
			<path class="st12" d="M651.03,947.27c0.91,6.11,4.64,10.61,8.34,10.07c3.7-0.54,5.96-5.94,5.05-12.04
				c-0.91-6.11-4.64-10.61-8.34-10.07C652.38,935.77,650.12,941.17,651.03,947.27z"/>
			<path class="st14" d="M829.14,790.39c0,0,5.93,3.37,11.82,11.18c0,0,15.44-9.9,14.9-13.03c-0.72-4.16-16.5,3.56-16.5,3.56
				L829.14,790.39z"/>
		</g>
		<g>
			<path class="st4" d="M431.1,585.44l416.82,214.62c22.43,11.55,50.79,1.15,63.34-23.22l106.44-206.73
				c12.55-24.37,4.54-53.49-17.89-65.04L582.99,290.44c-22.43-11.55-50.79-1.15-63.34,23.22L413.21,520.39
				C400.66,544.77,408.67,573.89,431.1,585.44z"/>
			
				<rect x="645.5" y="332.52" transform="matrix(0.4578 -0.8891 0.8891 0.4578 -175.5218 937.4191)" class="st16" width="70.54" height="560.18"/>
		</g>
		
			<rect x="552.2" y="344.47" transform="matrix(0.8887 0.4585 -0.4585 0.8887 242.013 -239.3637)" class="st6" width="123.51" height="68.51"/>
		<path class="st12" d="M829.02,790.06c-0.73-1.96-2.15-4.7-1.45-5.77c4.44-6.79-0.35-14.17-3.58-8.4
			c-1.88,3.35-5.16,10.74-4.88,14.57c0.2,2.78,3.02,13.38,3.02,13.38S833.14,801.17,829.02,790.06z"/>
	</g>
	<g>
		<g>
			<g>
				<path class="st12" d="M2084.66,1504.21c0,0-2.57,31.95-0.48,42.34c1.12,5.56,7.32,17.01,4.48,22.24s-6.1,6.54-6.1,6.54
					l-73.8,1.17c-4.02,0.06-1.36-2.48,1.88-4.82c5.31-3.84,9.59-6.37,26.54-14.43c1.1-0.53,5.13-3.04,6.58-3.92
					c3.68-2.21,7.38-5.69,10.56-9.17c5.3-5.8,5.76-33.94,5.76-33.94L2084.66,1504.21z"/>
				<path class="st16" d="M2026.98,1079.49c0,0-31.72-15.64-25.62,18.37c6.1,34.01,52.58,416.5,52.58,416.5l43.53,2.42
					c0,0,5.56-127.52,4.34-145.83c-1.22-18.31-8.43-46.64-8.43-46.64l-3.69-113.13l-41.07-139.68L2026.98,1079.49z"/>
				<path class="st3" d="M2043.75,1553.32c19.52,4.92,33.95,1.58,42.02-1.62c2.08,5.8,4.84,13.08,3.38,17.28
					c-1.79,5.14-4.13,7.42-6.38,7.48c-17.83,0.46-65.52-0.04-79.12,0.14c-1.9,0.02-2.95-2.16-1.72-3.59
					C2005.3,1569.04,2042.3,1554.2,2043.75,1553.32z"/>
				<path class="st12" d="M2001.36,849.63c0,0-26.82-51.61-30.98-70.55c-4.16-18.95-18.57-114.35-17.36-120.5
					c1.21-6.14,24-20.93,21.19-26.15c-2.81-5.22-24.52-5.23-29.49-4.79c-4.97,0.45-14.95,3.34-19.23,6.87
					c-4.28,3.53,4.81,117.86,7.52,142.47c2.71,24.62,36.03,100.42,36.03,100.42L2001.36,849.63z"/>
				<g>
					<path class="st12" d="M2210.33,1251.82c0,0,22.12-23.2,27.05-32.57c2.64-5.02,5.03-17.82,10.54-20.09
						c5.51-2.27,8.86-1.23,8.86-1.23l58.05,45.59c3.16,2.48-0.5,2.79-4.5,2.56c-6.54-0.36-11.46-1.09-29.7-5.51
						c-1.19-0.29-5.9-0.87-7.58-1.11c-4.25-0.6-9.31-0.23-13.98,0.47c-7.77,1.17-25.86,22.73-25.86,22.73L2210.33,1251.82z"/>
					<path class="st3" d="M2273.04,1239.46c-12.05-16.12-25.37-22.61-33.65-25.21c2.04-5.82,4.27-13.42,8.05-15.76
						c4.63-2.86,7.82-2.27,9.61-0.89c14.13,10.88,51.13,40.63,61.8,49.06c1.49,1.18,0.93,3.53-0.92,3.88
						C2312.8,1251.48,2274.72,1239.7,2273.04,1239.46z"/>
					<path class="st15" d="M2210.85,833.91c-13.77-28.88-44.28-44.78-73.83-37.09c-10.6-14.35-27-24.39-44.06-26.8
						c-33.66-4.77-77.09,11.56-72.66,46.69c-10.63,24.58-8.03,58.44,13.21,75.04c-3.9,32.3,28.49,60.96,66.82,57.09
						c15.42,21.29,42.23,33.78,67.31,28.91c6.02-1.17,15.16-3.36,16.73-3.09c-1.96-0.22,43.72,29.7,75.23-23.58
						C2291.76,896.73,2260.1,835.95,2210.85,833.91z"/>
					<path class="st11" d="M2014.21,1091.82c0,0,71.14-31.63,72.26-28.02c8.92,28.73,36.67,19.46,53.14,70.06
						c6.9,21.19,13.98,162.14,13.98,162.14s28.05-23.28,68.14-63.96c3.08-3.12,33.21,25.54,33.21,25.54
						c-79.57,107.51-113.9,113.12-127.18,107.1c-27.72-12.56-86.2-188.33-86.11-188.31
						C2034.64,1162.68,2014.21,1091.82,2014.21,1091.82z"/>
					<path class="st12" d="M2132.15,893.26c0,0,102.83-0.13,124.85-1.4c19.93-1.15,98.96,0.86,102.05,0.5
						c3.09-0.36,23.52-34.95,26.91-31.24c3.4,3.71-11.37,17.16-6.8,20.64c4.57,3.49,53.61-4.32,52.96-0.7
						c-1.22,6.79-29.83,5.92-29.8,9.2c0.03,3.27,29.95-1.84,31.98,3.6s-28.78,2.22-30.01,4.64c-1.23,2.43,28.58,6.87,25.53,11.93
						c-1.66,2.75-26.41-4.59-26.29-0.84c0.12,3.74,18.18,12.26,15.96,15.24c-2.21,2.98-14.17-9.15-24.65-9.3
						c-10.48-0.15-17.98-5.62-34.71-1.03c-8.26,2.27-71.31,9.97-124.59,14.53c-54.62,4.67-99.39,6.15-99.39,6.15L2132.15,893.26z"/>
					<path class="st6" d="M1979.67,965.96c-1.36-16.51,1.89-29.23,2.63-34.7c-4.99-17.15-15.62-53.74-19.44-60.93
						c0,0,17.9-34.41,36.23-34.17c0,0,18.72,42.19,33.19,49.74c0.21-0.05,5.12,2.19,7.28,2.17c13.97-0.1,62.8-1.58,71.91-1.74
						l-5.13,69.27c-35.38,69.35-25.8,105.75-12.34,119.21c6.33,6.33-88.29,32.03-92.65,23.06
						C1996.22,1087.29,1982.43,999.33,1979.67,965.96z"/>
					<path class="st6" d="M2086.66,888.94c9.01-4.3,74.18-2.15,74.18-2.15s9.11,45.38,1.75,56.29c0,0-58.27,8.67-56.62,13.45
						L2086.66,888.94z"/>
					<path class="st12" d="M2069.58,859.78c0,0-1.14,24.75,0.01,35.06c1.16,10.31-10.58,34.48-32.43,34.9
						c-21.85,0.42-3.21-23.19-1.29-33.34c1.92-10.15,4.21-49.86,4.21-49.86L2069.58,859.78z"/>
					<path class="st14" d="M2040.08,846.54c0,0-0.53,9.22-1.3,19.91c6.89,8.22,17.48,12.42,30.36,7.42
						c0.14-7.66,0.43-14.09,0.43-14.09L2040.08,846.54z"/>
					<path class="st12" d="M2071.39,786.02c0,0,12.37,3.7,19.32,16.08c6.94,12.38,9.87,47.61-16.81,62.12
						c-26.68,14.51-44.97-9.88-43.75-32.35C2031.36,809.39,2038.23,779.76,2071.39,786.02z"/>
					<path class="st12" d="M2024.77,824.43c1.81,5.57,5.9,9.23,9.15,8.18c3.24-1.05,4.41-6.42,2.6-11.99
						c-1.81-5.57-5.9-9.23-9.14-8.18C2024.13,813.5,2022.96,818.87,2024.77,824.43z"/>
					<path class="st15" d="M2067.67,785.03c0,0,13.55,37.04,27.4,41.22c13.86,4.18,12.41,22.25,12.41,22.25s2.56-41.78-9.97-52.27
						C2084.97,785.74,2067.67,785.03,2067.67,785.03z"/>
					<path class="st12" d="M2088.96,833.33c-2.25,5.71-0.96,11.57,2.9,13.1c3.86,1.52,8.81-1.87,11.07-7.58
						c2.25-5.71,0.96-11.57-2.9-13.1C2096.17,824.23,2091.22,827.62,2088.96,833.33z"/>
				</g>
				<path class="st14" d="M1921.62,643.32c0,0,30.13,1.32,33.67,1.32c3.54,0,13.83-10.64,13.83-10.64L1921.62,643.32z"/>
			</g>
			<g>
				
					<ellipse transform="matrix(0.9755 -0.2199 0.2199 0.9755 -68.9291 436.1416)" class="st7" cx="1924.49" cy="527.67" rx="116.96" ry="116.96"/>
				<path class="st6" d="M2004.82,471.29c31.14,44.37,20.41,105.57-23.95,136.71c-44.37,31.14-105.57,20.41-136.71-23.95
					c-31.14-44.37-20.41-105.57,23.95-136.71C1912.48,416.2,1973.69,426.92,2004.82,471.29z"/>
				<g>
					<path class="st8" d="M1935.82,596.71l-4.28-15.82c-7.23,1.61-14.61,2.16-20.9,1.84c-5.25-0.27-9.38-4.57-9.45-9.83l-0.01-0.63
						c-0.08-5.79,4.78-10.46,10.56-10.08c5.89,0.39,12.38-0.01,18.9-1.77c9.49-2.57,14.99-7.99,13.19-14.64
						c-1.71-6.33-8.12-8.88-21.57-9.71c-19.43-1.18-33.84-6.21-38.21-22.36c-3.96-14.65,3.25-28.93,20.12-37.24l-4.28-15.82
						l16.32-4.41l3.96,14.65c6.13-1.37,11.32-1.9,15.78-1.92c5.45-0.02,9.89,4.39,9.96,9.84l0,0c0.07,5.64-4.54,10.22-10.17,10.1
						c-4.23-0.1-9.31,0.29-15.19,1.88c-10.82,2.93-13.06,8.53-11.8,13.19c1.49,5.49,8.26,7.41,23.85,8.91
						c21.7,1.63,32.17,8.63,36.22,23.61c4.01,14.82-3.06,30.31-21.3,38.81l4.59,16.98L1935.82,596.71z"/>
				</g>
			</g>
		</g>
		<path class="st12" d="M1955.29,644.64l12.44-11.18c0,0-5.87-7.02-3.43-8.36c3.97-2.19,10.76,6.29,10.15,8.34
			c-0.61,2.06-7.9,8.7-7.9,8.7L1955.29,644.64z"/>
	</g>
</g>
</svg>
